<svg xmlns="http://www.w3.org/2000/svg" xmlns:xlink="http://www.w3.org/1999/xlink" width="412" height="260" viewBox="0 0 412 260">
  <defs>
    <clipPath id="clip-Artboard_1">
      <rect width="412" height="260"/>
    </clipPath>
  </defs>
  <g id="Artboard_1" data-name="Artboard – 1" clip-path="url(#clip-Artboard_1)">
    <rect width="412" height="260" fill="#292775"/>
    <g id="_2056675784656" transform="translate(-105.084 -41.057)" opacity="0.05">
      <path id="Path_5623" data-name="Path 5623" d="M213.721,219.533c-1.357,10.314-34.481,73.964-40.861,86.042L154.67,338.418c-13.982,24.293-31.9,58.357-43.983,83.056-5.294,10.857-11.4,23.207-14.389,36.371-3.394,15.336-2.987,30.671,4.344,42.885a33.625,33.625,0,0,0,33.53,16.421c13.846-1.493,26.471-10.45,33.53-17.236,10.045-9.636,14.932-15.336,23.485-27.278,7.059-9.771,13.982-19.95,20.905-30.264,6.788-10.179,13.439-20.221,20.227-30.535,10.046-15.471,20.363-30.4,30.68-45.6,3.529-5.021,7.059-9.907,10.724-14.793,3.665-5.021,7.466-9.636,11.4-14.25,16.29-19.678,24.435-14.521,38.01-.271,8.688,9.229,20.227,25.514,27.693,35.964,6.923,9.636,13.846,20.221,20.362,30.4,12.625,19.95,27.15,42.207,40.454,61.478,7.059,10.314,14.525,20.221,22.4,28.364,6.788,6.921,17.919,16.286,31.087,19.678,16.833,4.343,30.136-2.171,37.06-11.536,17.512-23.343,2.036-56.592-8.145-78.035-5.566-11.536-11.4-22.528-17.1-33.657-5.973-11.671-12.082-22.121-17.919-33.114s-11.81-21.85-17.919-32.978-11.674-22.257-17.648-33.521c-5.837-10.993-11.674-22.121-17.376-33.385C403.5,251.7,390.468,225.1,390.2,221.433c2.579-1.764,6.109-3.529,8.824-5.157l26.335-16.286q17.308-11.2,33.8-22.8c22.67-15.878,44.39-31.621,65.7-47.771,15.068-11.4,51.178-38.814,63.26-50.214,7.6-7.193,18.733-20.628,19.955-36.643,1.357-18.457-9.774-29.857-21.72-35.285-14.525-6.65-33.259-4.343-47.92.814-6.788,2.443-13.575,5.429-20.091,8.143-53.35,22.121-124.076,51.435-158.692,96.9-18.055,23.614-20.77,49.4-15.2,78.849.679,3.664,2.172,8.278,2.579,11.671-2.172,1.764-16.7,6.65-20.634,7.6-17.648,4.479-31.9,3.8-49.142-1.493-9.1-2.714-14.661-5.971-20.634-7.871,1.222-8.143,3.122-13.028,4.208-24.021,6.652-62.835-28.643-89.3-77.242-117.663C164.58,49.213,127.384,31.57,108.108,23.7,94.94,18.271,82.044,12.028,68.6,7.006,53.944,1.578,36.3-1.136,21.364,5.649,9.689,10.942-.628,22.478.051,40.392c.543,13.436,9.1,29.585,18.055,38.271,6.38,6.243,7.331,7.464,14.525,13.436,46.291,38.678,95.161,73.557,146.067,106.4,3.394,2.171,31.766,19.814,35.3,20.9ZM130.507,482.138c12.761-1.086,36.381-34.878,43.847-46.685,2.851-4.478,5.973-8.821,9.1-13.436l18.191-27.55c2.986-4.75,5.973-9.093,9.1-13.707,12.217-18.593,24.435-36.778,37.331-53.607,6.652-8.686,13.711-17.236,21.313-24.021,7.466-6.514,17.919-13.164,31.494-13.978,14.118-.95,25.793,4.75,34.209,11.128,20.227,15.336,45.884,53.878,60.273,76,15.34,23.343,29.186,45.464,44.933,68.535,2.579,3.8,13.846,19.271,17.376,22.528,2.579,2.443,12.9,12.757,16.833,11.4,2.308-15.336-17.24-50.214-24.435-64.328-9.638-18.728-21.313-39.493-31.494-58.221-5.294-9.771-10.317-19.136-15.611-29.043-5.294-10.043-10.045-19.678-15.2-29.45-7.059-13.028-16.426-30.943-22.535-44.514-1.086-2.307-6.109-14.521-6.923-15.471l-12.353,4.75c-30.408,10.45-57.558,9.771-87.695-1.493l-12.489-4.886c-.815,1.221-5.43,13.028-6.652,15.878-7.466,16.286-13.711,29.857-22.263,45.871l-15.611,29.721c-15.611,29.178-32.987,58.221-48.191,88.485-5.023,10.043-10.046,19.814-15.068,30.4-4.208,8.957-11.267,24.428-7.466,35.964ZM379.065,186.962a50.28,50.28,0,0,0,6.923-3.936c2.172-1.357,4.208-2.579,6.516-4.071,37.6-23.343,77.649-52.25,112.673-78.849,8.145-6.243,16.154-12.214,24.028-18.457,4.073-3.257,7.874-5.971,11.81-9.229,8.145-6.786,31.087-22.664,31.494-32.3-10.453-4.614-25.521,2.579-34.209,6.107-10.317,4.207-20.362,8.279-30.679,12.621-10.181,4.343-19.955,8.821-30,13.3-16.426,7.464-41.268,21.036-55.658,31.214-14.932,10.586-36.109,27.278-42.218,44.65-4.616,12.893-2.987,25.514-.814,38.95ZM35.074,37.949c-.543,11.807,19.955,27.278,28.372,34.2,35.159,29.178,94.618,71.792,133.985,96.628,2.579,1.629,23.756,14.929,26.336,15.878,1.222-2.307,2.172-15.2,2.308-18.728a70.844,70.844,0,0,0-1.9-19.543c-3.937-16.014-15.611-26.464-28.1-35.964-12.217-9.364-25.792-16.964-39.639-24.7-14.525-8.143-42.083-20.9-57.965-27.55-10.045-4.207-20.091-8.55-30-12.893-7.6-3.257-24.164-11.264-33.53-7.329Z" transform="translate(-0.019 18.705)" fill="#d5dbe1" fill-rule="evenodd"/>
      <path id="Path_5624" data-name="Path 5624" d="M72.479.334A58.039,58.039,0,0,0,33.79,20.7,58.69,58.69,0,0,0,19.943,65.629C23.337,95.9,50.487,121.694,85.1,117.893c30.408-3.394,56.2-30.408,52.535-65.024a56.561,56.561,0,0,0-7.059-22.263,69.211,69.211,0,0,0-5.837-8.688C114.29,8.207,93.791-1.974,72.614.334Zm2.579,32.987C61.89,35.357,50.623,47.3,52.931,62.914a26.119,26.119,0,0,0,51.721-7.331C102.887,42.552,90.533,31.013,75.058,33.321Z" transform="translate(225.932 -0.006)" fill="#d5dbe1" fill-rule="evenodd"/>
    </g>
    <g id="logo_txt" transform="translate(87.436 105.348)">
      <g id="_2056675784336" transform="translate(76.934 15.899)">
        <path id="Path_5621" data-name="Path 5621" d="M71.008,19.592H64.446v3.123a8.324,8.324,0,0,0-7.124-3.351c-5.878,0-9.913,4.422-9.913,10.931,0,6.685,4.123,11.141,10.071,11.141a8.107,8.107,0,0,0,6.948-3.351V40.7c0,3.123-2.4,5.141-6.176,5.141a12.149,12.149,0,0,1-7.159-2.316l-2.439,4.632a17.892,17.892,0,0,0,10.036,3.053c7.369,0,12.3-4.158,12.3-10.72V19.557ZM59.042,36.436c-3.264,0-5.4-2.439-5.439-5.966.035-3.509,2.228-6,5.439-6s5.4,2.439,5.4,6C64.446,33.979,62.253,36.436,59.042,36.436ZM87.466,19.364c-7.422,0-12.387,4.667-12.387,11.756,0,7.036,4.983,11.791,12.387,11.791,7.369,0,12.352-4.755,12.352-11.791C99.818,24.049,94.853,19.364,87.466,19.364Zm0,5.492c3.386,0,5.737,2.579,5.737,6.352s-2.351,6.352-5.737,6.352c-3.439,0-5.755-2.579-5.755-6.352S84.027,24.856,87.466,24.856Zm26.968-8.878a5.035,5.035,0,0,1,2.877.983l2.351-4.808a11.405,11.405,0,0,0-6.053-1.632c-4.632,0-8.492,2.737-8.492,7.9V20.61h-3.088v4.6h3.088V42.665h6.562V25.207h5.439v-4.6h-5.439V18.68a2.505,2.505,0,0,1,2.737-2.7Zm15.388,3.386c-7.422,0-12.387,4.667-12.387,11.756,0,7.036,4.983,11.791,12.387,11.791,7.369,0,12.352-4.755,12.352-11.791C142.173,24.049,137.208,19.364,129.821,19.364Zm0,5.492c3.386,0,5.737,2.579,5.737,6.352s-2.351,6.352-5.737,6.352c-3.439,0-5.737-2.579-5.737-6.352S126.4,24.856,129.821,24.856Zm23.336-5.281h-6.6V42.647h6.6V31.541c0-3.9,2.913-6.439,7.632-6V19.329a8.344,8.344,0,0,0-7.632,4.422V19.575Z" transform="translate(-47.409 -9.345)" fill="#fff"/>
        <path id="Path_5622" data-name="Path 5622" d="M139.391,17.166a3.507,3.507,0,0,0,3.6-3.685,3.581,3.581,0,1,0-7.159,0A3.509,3.509,0,0,0,139.391,17.166Zm-18,3.737H118.3v4.544h3.088V43.116h6.562V25.448h5.439V20.9h-5.439V19.149a2.423,2.423,0,0,1,2.737-2.667,8.13,8.13,0,0,1,3.386.895l.263-5.492a11.09,11.09,0,0,0-4.457-.895c-4.544,0-8.492,2.667-8.492,7.9Zm14.756-.86V43.116h6.562V20.044Zm25.81,16.932a7.58,7.58,0,0,1-3.088.86c-1.421.035-2.228-.737-2.228-2.667V25.641H162.9v-4.6h-6.264V14.692h-6.562v6.352h-3.211v4.544h3.211V36.274c0,4.755,3.123,7.124,7.246,7.124a12.331,12.331,0,0,0,6-1.579Z" transform="translate(-3.15 -9.797)" fill="#ff8000"/>
      </g>
      <g id="_2056675784656-2" data-name="_2056675784656" transform="translate(0.019 0.006)">
        <path id="Path_5623-2" data-name="Path 5623" d="M27.64,29.789c-.175,1.333-4.457,9.56-5.281,11.121l-2.351,4.245c-1.807,3.14-4.123,7.543-5.685,10.735a22.07,22.07,0,0,0-1.86,4.7,7.545,7.545,0,0,0,.561,5.543,4.346,4.346,0,0,0,4.334,2.122,7.991,7.991,0,0,0,4.334-2.228A21.227,21.227,0,0,0,24.727,62.5c.912-1.263,1.807-2.578,2.7-3.912.877-1.316,1.737-2.614,2.614-3.947,1.3-2,2.632-3.929,3.965-5.894.456-.649.912-1.28,1.386-1.912.474-.649.965-1.245,1.474-1.842,2.105-2.543,3.158-1.877,4.913-.035a51.854,51.854,0,0,1,3.579,4.648c.895,1.245,1.79,2.614,2.632,3.929,1.632,2.579,3.509,5.455,5.229,7.946a28.382,28.382,0,0,0,2.9,3.666,9.231,9.231,0,0,0,4.018,2.543,4.4,4.4,0,0,0,4.79-1.491c2.263-3.017.263-7.315-1.053-10.086-.719-1.491-1.474-2.912-2.211-4.35-.772-1.509-1.562-2.859-2.316-4.28s-1.526-2.824-2.316-4.262-1.509-2.877-2.281-4.333c-.754-1.421-1.509-2.859-2.246-4.315a40.031,40.031,0,0,1-2.053-4.543c.333-.228.79-.456,1.14-.667l3.4-2.1q2.237-1.447,4.369-2.947c2.93-2.052,5.737-4.087,8.492-6.174,1.948-1.473,6.615-5.017,8.176-6.49A7.823,7.823,0,0,0,78.61,6.915,4.5,4.5,0,0,0,75.8,2.355a8.67,8.67,0,0,0-6.194.105c-.877.316-1.755.7-2.6,1.052C60.117,6.372,50.976,10.16,46.5,16.037c-2.334,3.052-2.684,6.385-1.965,10.191.088.474.281,1.07.333,1.509a15.162,15.162,0,0,1-2.667.982,10.886,10.886,0,0,1-6.352-.193c-1.176-.351-1.895-.772-2.667-1.017.158-1.052.4-1.684.544-3.1.86-8.121-3.7-11.542-9.983-15.208A103.488,103.488,0,0,0,13.99,4.477c-1.7-.7-3.369-1.509-5.106-2.158a8.173,8.173,0,0,0-6.106-.175A4.572,4.572,0,0,0,.023,6.635a8.236,8.236,0,0,0,2.334,4.947,22.432,22.432,0,0,0,1.877,1.737A189.427,189.427,0,0,0,23.113,27.07c.439.281,4.106,2.561,4.562,2.7ZM16.885,63.73c1.649-.14,4.7-4.508,5.667-6.034.368-.579.772-1.14,1.176-1.737L26.078,52.4c.386-.614.772-1.175,1.176-1.772,1.579-2.4,3.158-4.754,4.825-6.929a22.573,22.573,0,0,1,2.755-3.1A6.808,6.808,0,0,1,38.9,38.787a6.57,6.57,0,0,1,4.422,1.438c2.614,1.982,5.93,6.964,7.79,9.823,1.983,3.017,3.772,5.876,5.808,8.858a32.2,32.2,0,0,0,2.246,2.912c.333.316,1.667,1.649,2.176,1.473.3-1.982-2.228-6.49-3.158-8.314-1.246-2.421-2.755-5.1-4.071-7.525-.684-1.263-1.333-2.473-2.018-3.754-.684-1.3-1.3-2.543-1.965-3.806-.912-1.684-2.123-4-2.913-5.753-.14-.3-.79-1.877-.895-2l-1.6.614a15.788,15.788,0,0,1-11.334-.193l-1.614-.631c-.105.158-.7,1.684-.86,2.052-.965,2.1-1.772,3.859-2.877,5.929l-2.018,3.841c-2.018,3.771-4.264,7.525-6.229,11.437-.649,1.3-1.3,2.561-1.948,3.929-.544,1.158-1.456,3.157-.965,4.648ZM49.011,25.579a6.5,6.5,0,0,0,.895-.509c.281-.175.544-.333.842-.526,4.86-3.017,10.036-6.753,14.563-10.191,1.053-.807,2.088-1.579,3.106-2.386.526-.421,1.018-.772,1.526-1.193C71,9.9,73.961,7.845,74.013,6.6c-1.351-.6-3.3.333-4.422.789-1.333.544-2.632,1.07-3.965,1.631-1.316.561-2.579,1.14-3.878,1.719a52.241,52.241,0,0,0-7.194,4.034c-1.93,1.368-4.667,3.526-5.457,5.771a9.784,9.784,0,0,0-.105,5.034ZM4.55,6.319c-.07,1.526,2.579,3.526,3.667,4.42A196.617,196.617,0,0,0,25.535,23.228c.333.21,3.07,1.93,3.4,2.052a12.508,12.508,0,0,0,.3-2.421,9.157,9.157,0,0,0-.246-2.526c-.509-2.07-2.018-3.42-3.632-4.648a41.938,41.938,0,0,0-5.123-3.192c-1.877-1.052-5.439-2.7-7.492-3.561-1.3-.544-2.6-1.105-3.878-1.666-.983-.421-3.123-1.456-4.334-.947Z" transform="translate(-0.019 1.004)" fill="#fff" fill-rule="evenodd"/>
        <path id="Path_5624-2" data-name="Path 5624" d="M26.393.049a7.5,7.5,0,0,0-5,2.632A7.646,7.646,0,1,0,34.815,6.839,7.31,7.31,0,0,0,33.9,3.961a8.946,8.946,0,0,0-.754-1.123A7.7,7.7,0,0,0,26.411.049Zm.333,4.264A3.376,3.376,0,1,0,30.552,7.19,3.362,3.362,0,0,0,26.727,4.312Z" transform="translate(12.176 -0.006)" fill="#ff8000" fill-rule="evenodd"/>
      </g>
    </g>
  </g>
</svg>
