<svg xmlns="http://www.w3.org/2000/svg" width="287.999" height="199.774" viewBox="0 0 287.999 199.774">
  <g id="Group_3272" data-name="Group 3272" transform="translate(-842 -355)">
    <path id="Union_1" data-name="Union 1" d="M237.916,97.7V98H54.846v-.115q-1.435.115-2.9.115a35.922,35.922,0,1,1,0-71.844,36.378,36.378,0,0,1,3.671.185,83.072,83.072,0,0,1,159.8-41.188A60.035,60.035,0,1,1,243.944,98Q240.892,98,237.916,97.7Z" transform="translate(826 423)" fill="#fff"/>
    <g id="Group_3271" data-name="Group 3271" transform="translate(0 -37)">
      <g id="Group_3254" data-name="Group 3254" transform="translate(-120 10)">
        <g id="Group_3252" data-name="Group 3252" transform="translate(-3)">
          <path id="Path_6180" data-name="Path 6180" d="M292.086,99.382l-5.28,1.362-65.05,16.775-5.28,1.362a10,10,0,0,0-7.176,12.163l22.9,88.782A10,10,0,0,0,244.358,227l.014,0,75.583-19.491.014,0a10,10,0,0,0,7.176-12.163l-22.9-88.782A10,10,0,0,0,292.086,99.382Z" transform="translate(844.017 327.934)" fill="#292775"/>
          <path id="Path_6181" data-name="Path 6181" d="M303.784,113.145l-6.254,1.613-63.1,16.273-6.254,1.613a7.119,7.119,0,0,0-5.11,8.661l22.9,88.782a7.119,7.119,0,0,0,8.661,5.11l.014,0L330.216,215.7l.014,0a7.119,7.119,0,0,0,5.11-8.661l-22.9-88.782A7.119,7.119,0,0,0,303.784,113.145Z" transform="translate(833.037 316.955)" fill="#fff"/>
          <path id="Path_6182" data-name="Path 6182" d="M436.214,240.061l-38.236,9.86a1.663,1.663,0,0,1-.831-3.22l38.236-9.86a1.663,1.663,0,1,1,.831,3.22Z" transform="translate(695.885 218.789)" fill="#b6b5c4" opacity="0.5"/>
          <path id="Path_6183" data-name="Path 6183" d="M449.61,258l-44.878,11.573a1.663,1.663,0,0,1-.83-3.22l44.878-11.573a1.663,1.663,0,1,1,.83,3.22Z" transform="translate(690.531 204.576)" fill="#b6b5c4" opacity="0.5"/>
          <path id="Path_6184" data-name="Path 6184" d="M466.482,357.434l-38.236,9.86a1.663,1.663,0,1,1-.831-3.22l38.236-9.86a1.663,1.663,0,0,1,.83,3.22Z" transform="translate(671.896 125.77)" fill="#b6b5c4" opacity="0.5"/>
          <path id="Path_6185" data-name="Path 6185" d="M479.878,375.37,435,386.943a1.663,1.663,0,0,1-.831-3.22l44.878-11.573a1.663,1.663,0,1,1,.831,3.22Z" transform="translate(666.544 111.556)" fill="#b6b5c4" opacity="0.5"/>
          <path id="Path_6186" data-name="Path 6186" d="M496.751,474.807l-38.236,9.86a1.663,1.663,0,1,1-.83-3.22l38.236-9.86a1.663,1.663,0,0,1,.83,3.22Z" transform="translate(647.908 32.751)" fill="#ff8000" opacity="0.5"/>
          <path id="Path_6187" data-name="Path 6187" d="M510.147,492.743l-44.878,11.573a1.663,1.663,0,0,1-.831-3.22l44.878-11.573a1.663,1.663,0,0,1,.831,3.22Z" transform="translate(642.556 18.537)" fill="#ff8000" opacity="0.5"/>
          <path id="Path_6188" data-name="Path 6188" d="M307.108,296.811,293.577,300.3a.8.8,0,0,1-.971-.573L289.5,287.683a.8.8,0,0,1,.573-.971l13.531-3.489a.8.8,0,0,1,.971.573l3.106,12.045A.8.8,0,0,1,307.108,296.811Z" transform="translate(780.227 182.01)" fill="#b6b5c4" opacity="0.5"/>
          <path id="Path_6189" data-name="Path 6189" d="M337.376,414.184l-13.531,3.489a.8.8,0,0,1-.971-.573l-3.106-12.045a.8.8,0,0,1,.573-.971l13.531-3.489a.8.8,0,0,1,.971.573l3.106,12.045A.8.8,0,0,1,337.376,414.184Z" transform="translate(756.239 88.99)" fill="#b6b5c4" opacity="0.5"/>
          <path id="Path_6190" data-name="Path 6190" d="M367.644,531.558l-13.531,3.49a.8.8,0,0,1-.971-.573l-3.106-12.045a.8.8,0,0,1,.573-.971l13.531-3.489a.8.8,0,0,1,.971.573l3.106,12.045A.8.8,0,0,1,367.644,531.558Z" transform="translate(732.252 -4.029)" fill="#b6b5c4" opacity="0.5"/>
        </g>
        <g id="Group_3253" data-name="Group 3253">
          <path id="Path_6191" data-name="Path 6191" d="M527.263,209.052H449.179a10,10,0,0,0-9.986,9.986v91.687a10,10,0,0,0,9.986,9.986h78.084a10,10,0,0,0,9.986-9.986V219.038A10,10,0,0,0,527.263,209.052Z" transform="translate(661.574 240.77)" fill="#292775"/>
          <path id="Path_6192" data-name="Path 6192" d="M538.242,222.906H460.158a7.119,7.119,0,0,0-7.111,7.111V321.7a7.119,7.119,0,0,0,7.111,7.111h78.084a7.119,7.119,0,0,0,7.111-7.111V230.017A7.119,7.119,0,0,0,538.242,222.906Z" transform="translate(650.595 229.79)" fill="#fff"/>
          <path id="Path_6194" data-name="Path 6194" d="M649.834,453.014H610.348a1.663,1.663,0,0,1,0-3.326h39.487a1.663,1.663,0,1,1,0,3.326Z" transform="translate(527.251 50.064)" fill="#b6b5c4" opacity="0.5"/>
          <path id="Path_6195" data-name="Path 6195" d="M656.694,480.061H610.348a1.663,1.663,0,0,1,0-3.326h46.346a1.663,1.663,0,0,1,0,3.326Z" transform="translate(527.251 28.63)" fill="#b6b5c4" opacity="0.5"/>
          <path id="Path_6196" data-name="Path 6196" d="M649.834,574.227H610.348a1.663,1.663,0,0,1,0-3.326h39.487a1.663,1.663,0,1,1,0,3.326Z" transform="translate(527.251 -45.998)" fill="#b6b5c4" opacity="0.5"/>
          <path id="Path_6197" data-name="Path 6197" d="M656.694,601.275H610.348a1.663,1.663,0,0,1,0-3.326h46.346a1.663,1.663,0,1,1,0,3.326Z" transform="translate(527.251 -67.434)" fill="#b6b5c4" opacity="0.5"/>
          <path id="Path_6198" data-name="Path 6198" d="M517.652,451.443H503.679a.8.8,0,0,1-.8-.8V438.207a.8.8,0,0,1,.8-.8h13.974a.8.8,0,0,1,.8.8v12.439a.8.8,0,0,1-.8.8Z" transform="translate(611.101 59.795)" fill="#b6b5c4" opacity="0.5"/>
          <path id="Path_6199" data-name="Path 6199" d="M517.652,572.656H503.679a.8.8,0,0,1-.8-.8V559.42a.8.8,0,0,1,.8-.8h13.974a.8.8,0,0,1,.8.8v12.439a.8.8,0,0,1-.8.8Z" transform="translate(611.101 -36.267)" fill="#b6b5c4" opacity="0.5"/>
          <path id="Path_6200" data-name="Path 6200" d="M689.671,318.079H660.559a1.663,1.663,0,0,1,0-3.326h29.112a1.663,1.663,0,0,1,0,3.326Z" transform="translate(487.458 157.001)" fill="#ff8000"/>
          <path id="Path_6201" data-name="Path 6201" d="M696.53,345.127H660.559a1.663,1.663,0,0,1,0-3.326H696.53a1.663,1.663,0,0,1,0,3.326Z" transform="translate(487.458 135.565)" fill="#ff8000"/>
          <path id="Path_6202" data-name="Path 6202" d="M530.306,304.515H503.468a.8.8,0,0,1-.8-.8V282.772a.8.8,0,0,1,.8-.8h26.839a.8.8,0,0,1,.8.8v20.946A.8.8,0,0,1,530.306,304.515Z" transform="translate(611.268 182.979)" fill="#ff8000"/>
        </g>
      </g>
      <g id="Group_3246" data-name="Group 3246" transform="translate(889.516 539.995)" opacity="0.2">
        <path id="Path_6178" data-name="Path 6178" d="M326.492,460.741A13.742,13.742,0,1,1,340.234,447a13.742,13.742,0,0,1-13.741,13.742Zm0-25.541a11.8,11.8,0,1,0,11.8,11.8,11.8,11.8,0,0,0-11.8-11.8Z" transform="translate(-312.749 -433.256)" fill="#292775"/>
        <path id="Path_6179" data-name="Path 6179" d="M332.109,446.575l-4.262-5.182a1.256,1.256,0,0,0-1.914-.032l-4.557,5.182a1.256,1.256,0,1,0,1.887,1.659l2.358-2.681v6.723a1.256,1.256,0,1,0,2.512,0V445.7l2.035,2.475a1.256,1.256,0,1,0,1.94-1.6Z" transform="translate(-312.987 -433.475)" fill="#292775"/>
      </g>
      <g id="Group_3259" data-name="Group 3259" transform="translate(939.484 406.963)" opacity="0.1">
        <path id="Path_6178-2" data-name="Path 6178" d="M327.769,463.293a15.019,15.019,0,1,1,15.018-15.018,15.019,15.019,0,0,1-15.018,15.018Zm0-27.914a12.9,12.9,0,1,0,12.895,12.9,12.9,12.9,0,0,0-12.895-12.9Z" transform="translate(-312.75 -433.256)" fill="#292775"/>
        <path id="Path_6179-2" data-name="Path 6179" d="M333.134,447.1l-4.657-5.664a1.373,1.373,0,0,0-2.091-.035l-4.981,5.664a1.373,1.373,0,1,0,2.062,1.813l2.577-2.93V453.3a1.373,1.373,0,0,0,2.746,0v-7.157l2.224,2.7a1.373,1.373,0,1,0,2.121-1.744Z" transform="translate(-312.237 -432.782)" fill="#292775"/>
      </g>
      <g id="Group_3260" data-name="Group 3260" transform="translate(1100.564 574.742)" opacity="0.2">
        <path id="Path_6178-3" data-name="Path 6178" d="M321.266,450.288a8.516,8.516,0,1,1,8.515-8.516,8.516,8.516,0,0,1-8.515,8.516Zm0-15.828a7.312,7.312,0,1,0,7.312,7.312,7.312,7.312,0,0,0-7.312-7.312Z" transform="translate(-312.749 -433.256)" fill="#292775"/>
        <path id="Path_6179-3" data-name="Path 6179" d="M327.908,444.43l-2.641-3.211a.779.779,0,0,0-1.186-.02l-2.824,3.211a.778.778,0,1,0,1.169,1.028l1.461-1.662v4.166a.778.778,0,1,0,1.557,0v-4.058l1.261,1.534a.778.778,0,0,0,1.2-.989Z" transform="translate(-316.059 -436.312)" fill="#292775"/>
      </g>
    </g>
  </g>
</svg>
