<svg xmlns="http://www.w3.org/2000/svg" width="146" height="42.67" viewBox="0 0 146 42.67"><g transform="translate(-0.019 -0.006)"><path d="M61.938,16.106H57.9v1.923a5.124,5.124,0,0,0-4.386-2.063c-3.619,0-6.1,2.722-6.1,6.73,0,4.115,2.538,6.859,6.2,6.859a4.991,4.991,0,0,0,4.278-2.063V29.1c0,1.923-1.48,3.165-3.8,3.165a7.48,7.48,0,0,1-4.407-1.426l-1.5,2.852a11.015,11.015,0,0,0,6.179,1.88c4.537,0,7.572-2.56,7.572-6.6V16.084Zm-7.367,10.37c-2.009,0-3.327-1.5-3.349-3.673.022-2.16,1.372-3.694,3.349-3.694S57.9,20.61,57.9,22.8A3.351,3.351,0,0,1,54.571,26.475Zm17.5-10.51c-4.569,0-7.626,2.873-7.626,7.237,0,4.332,3.068,7.259,7.626,7.259,4.537,0,7.6-2.927,7.6-7.259C79.674,18.849,76.617,15.965,72.07,15.965Zm0,3.381c2.085,0,3.532,1.588,3.532,3.91s-1.447,3.91-3.532,3.91c-2.117,0-3.543-1.588-3.543-3.91S69.953,19.346,72.07,19.346Zm16.6-5.466a3.1,3.1,0,0,1,1.771.6l1.447-2.96a7.022,7.022,0,0,0-3.727-1c-2.852,0-5.228,1.685-5.228,4.861v1.35h-1.9v2.83h1.9V30.31h4.04V19.562h3.349v-2.83H86.976V15.544a1.542,1.542,0,0,1,1.685-1.663Zm9.473,2.085c-4.569,0-7.626,2.873-7.626,7.237,0,4.332,3.068,7.259,7.626,7.259,4.537,0,7.6-2.927,7.6-7.259C105.75,18.849,102.693,15.965,98.145,15.965Zm0,3.381c2.085,0,3.532,1.588,3.532,3.91s-1.447,3.91-3.532,3.91c-2.117,0-3.532-1.588-3.532-3.91S96.039,19.346,98.145,19.346Zm14.366-3.251H108.45V30.3h4.061V23.462c0-2.4,1.793-3.964,4.7-3.694V15.943a5.137,5.137,0,0,0-4.7,2.722V16.095Z" fill="#292775"/><path d="M131.285,14.334a2.159,2.159,0,0,0,2.214-2.268,2.2,2.2,0,1,0-4.407,0A2.16,2.16,0,0,0,131.285,14.334Zm-11.083,2.3h-1.9v2.8h1.9V30.31h4.04V19.432h3.349v-2.8h-3.349v-1.08a1.492,1.492,0,0,1,1.685-1.642,5.006,5.006,0,0,1,2.085.551l.162-3.381a6.828,6.828,0,0,0-2.744-.551c-2.8,0-5.228,1.642-5.228,4.861Zm9.084-.529v14.2h4.04v-14.2Zm15.889,10.424a4.667,4.667,0,0,1-1.9.529c-.875.022-1.372-.454-1.372-1.642V19.551h3.856v-2.83H141.9v-3.91h-4.04v3.91h-1.977v2.8h1.977V26.1c0,2.927,1.923,4.386,4.461,4.386a7.592,7.592,0,0,0,3.694-.972Z" fill="#ff8000"/><path d="M17.024,18.968c-.108.821-2.744,5.887-3.251,6.848L12.325,28.43c-1.113,1.934-2.538,4.645-3.5,6.611A13.593,13.593,0,0,0,7.68,37.936a4.648,4.648,0,0,0,.346,3.413,2.675,2.675,0,0,0,2.668,1.307,4.919,4.919,0,0,0,2.668-1.372,13.071,13.071,0,0,0,1.869-2.171c.562-.778,1.113-1.588,1.663-2.409s1.069-1.609,1.609-2.43c.8-1.231,1.62-2.42,2.441-3.629.281-.4.562-.789.853-1.177s.594-.767.907-1.134c1.3-1.566,1.944-1.156,3.025-.022a31.931,31.931,0,0,1,2.2,2.862c.551.767,1.1,1.609,1.62,2.42,1,1.588,2.16,3.359,3.219,4.893a17.478,17.478,0,0,0,1.782,2.258,5.683,5.683,0,0,0,2.474,1.566,2.709,2.709,0,0,0,2.949-.918c1.393-1.858.162-4.5-.648-6.211-.443-.918-.907-1.793-1.361-2.679-.475-.929-.961-1.761-1.426-2.636s-.94-1.739-1.426-2.625-.929-1.771-1.4-2.668c-.464-.875-.929-1.761-1.383-2.657a24.656,24.656,0,0,1-1.264-2.8c.205-.14.486-.281.7-.41l2.1-1.3q1.377-.891,2.69-1.815c1.8-1.264,3.532-2.517,5.228-3.8,1.2-.907,4.072-3.089,5.034-4A4.818,4.818,0,0,0,48.4,4.882a2.768,2.768,0,0,0-1.728-2.808,5.336,5.336,0,0,0-3.813.065c-.54.194-1.08.432-1.6.648C37.018,4.548,31.39,6.881,28.636,10.5a7.4,7.4,0,0,0-1.21,6.276c.054.292.173.659.205.929a9.332,9.332,0,0,1-1.642.6,6.7,6.7,0,0,1-3.91-.119c-.724-.216-1.167-.475-1.642-.627.1-.648.248-1.037.335-1.912.529-5-2.279-7.108-6.146-9.365A63.7,63.7,0,0,0,8.62,3.381c-1.048-.432-2.074-.929-3.143-1.329a5.03,5.03,0,0,0-3.759-.108A2.816,2.816,0,0,0,.022,4.71,5.073,5.073,0,0,0,1.458,7.756,13.812,13.812,0,0,0,2.614,8.825a116.62,116.62,0,0,0,11.623,8.469c.27.173,2.528,1.577,2.808,1.663ZM10.4,39.87c1.015-.086,2.895-2.776,3.489-3.716.227-.356.475-.7.724-1.069l1.447-2.193c.238-.378.475-.724.724-1.091.972-1.48,1.944-2.927,2.971-4.267a13.9,13.9,0,0,1,1.7-1.912,4.191,4.191,0,0,1,2.506-1.113,4.044,4.044,0,0,1,2.722.886c1.609,1.221,3.651,4.288,4.8,6.049C32.7,33.3,33.8,35.063,35.052,36.9a19.826,19.826,0,0,0,1.383,1.793c.205.194,1.026,1.015,1.339.907.184-1.221-1.372-4-1.944-5.12-.767-1.491-1.7-3.143-2.506-4.634-.421-.778-.821-1.523-1.242-2.312s-.8-1.566-1.21-2.344c-.562-1.037-1.307-2.463-1.793-3.543-.086-.184-.486-1.156-.551-1.231l-.983.378a9.717,9.717,0,0,1-6.978-.119l-.994-.389c-.065.1-.432,1.037-.529,1.264-.594,1.3-1.091,2.376-1.771,3.651L16.03,27.566c-1.242,2.322-2.625,4.634-3.835,7.043-.4.8-.8,1.577-1.2,2.42a4.4,4.4,0,0,0-.594,2.862ZM30.18,16.376a4,4,0,0,0,.551-.313c.173-.108.335-.205.518-.324,2.992-1.858,6.179-4.159,8.966-6.276.648-.5,1.285-.972,1.912-1.469.324-.259.627-.475.94-.735.648-.54,2.474-1.8,2.506-2.571-.832-.367-2.031.205-2.722.486-.821.335-1.62.659-2.441,1s-1.588.7-2.387,1.059a32.159,32.159,0,0,0-4.429,2.484c-1.188.843-2.873,2.171-3.359,3.554a6.027,6.027,0,0,0-.065,3.1ZM2.808,4.515c-.043.94,1.588,2.171,2.258,2.722a121.047,121.047,0,0,0,10.661,7.691c.205.13,1.89,1.188,2.1,1.264a7.7,7.7,0,0,0,.184-1.491,5.64,5.64,0,0,0-.151-1.555,5.3,5.3,0,0,0-2.236-2.862,25.818,25.818,0,0,0-3.154-1.966C11.31,7.669,9.117,6.654,7.853,6.125c-.8-.335-1.6-.681-2.387-1.026-.6-.259-1.923-.9-2.668-.583Z" fill="#292775" fill-rule="evenodd"/><path d="M23.764.032a4.618,4.618,0,0,0-3.079,1.62,4.707,4.707,0,1,0,8.263,2.56,4.5,4.5,0,0,0-.562-1.771,5.507,5.507,0,0,0-.464-.691A4.739,4.739,0,0,0,23.775.032Zm.205,2.625a2.078,2.078,0,1,0,2.355,1.771A2.069,2.069,0,0,0,23.969,2.657Z" fill="#ff8000" fill-rule="evenodd"/></g></svg>