<svg xmlns="http://www.w3.org/2000/svg" width="188.071" height="54.967" viewBox="0 0 188.071 54.967">
  <g id="Layer_x0020_1" transform="translate(-1.766 -0.589)">
    <g id="_2091242905072" transform="translate(62.813 12.617)">
      <path id="Path_5614" data-name="Path 5614" d="M4407.715,939.194h-5.2v2.477a6.6,6.6,0,0,0-5.649-2.658c-4.662,0-7.862,3.506-7.862,8.669,0,5.3,3.27,8.836,7.987,8.836a6.428,6.428,0,0,0,5.51-2.658v2.073c0,2.477-1.906,4.077-4.9,4.077a9.636,9.636,0,0,1-5.677-1.837l-1.934,3.673a14.189,14.189,0,0,0,7.959,2.421c5.844,0,9.754-3.3,9.754-8.5v-16.6Zm-9.49,13.358c-2.588,0-4.286-1.934-4.313-4.731.028-2.783,1.767-4.759,4.313-4.759s4.286,1.934,4.286,4.759C4402.511,950.6,4400.771,952.552,4398.225,952.552Zm22.542-13.539c-5.886,0-9.823,3.7-9.823,9.323,0,5.58,3.952,9.351,9.823,9.351,5.844,0,9.8-3.771,9.8-9.351C4430.563,942.728,4426.625,939.013,4420.767,939.013Zm0,4.355c2.686,0,4.55,2.045,4.55,5.037s-1.865,5.037-4.55,5.037c-2.728,0-4.564-2.045-4.564-5.037S4418.039,943.368,4420.767,943.368Zm21.387-7.041a4,4,0,0,1,2.282.779l1.864-3.813a9.044,9.044,0,0,0-4.8-1.294c-3.674,0-6.735,2.171-6.735,6.262V940h-2.449v3.646h2.449v13.845h5.2V943.646h4.313V940h-4.313V938.47a1.987,1.987,0,0,1,2.171-2.143Zm12.2,2.685c-5.885,0-9.823,3.7-9.823,9.323,0,5.58,3.952,9.351,9.823,9.351,5.845,0,9.8-3.771,9.8-9.351C4464.152,942.728,4460.215,939.013,4454.356,939.013Zm0,4.355c2.686,0,4.55,2.045,4.55,5.037s-1.864,5.037-4.55,5.037c-2.727,0-4.55-2.045-4.55-5.037S4451.643,943.368,4454.356,943.368Zm18.507-4.188h-5.232v18.3h5.232V948.67c0-3.089,2.31-5.107,6.053-4.759v-4.926a6.617,6.617,0,0,0-6.053,3.506V939.18Z" transform="translate(-4389 -931.068)" fill="#fff"/>
      <path id="Path_5615" data-name="Path 5615" d="M10968.726,870.844a2.924,2.924,0,1,0-2.824-2.922A2.781,2.781,0,0,0,10968.726,870.844Zm-14.276,2.964H10952v3.6h2.449v14.012h5.2V877.412h4.313v-3.6h-4.313v-1.391a1.922,1.922,0,0,1,2.171-2.115,6.44,6.44,0,0,1,2.685.71l.209-4.355a8.79,8.79,0,0,0-3.534-.71c-3.6,0-6.734,2.115-6.734,6.261Zm11.7-.682v18.3h5.205v-18.3Zm20.47,13.428a6.014,6.014,0,0,1-2.449.682c-1.127.028-1.767-.584-1.767-2.115v-7.556h4.967v-3.646h-4.967v-5.037h-5.205v5.037h-2.546v3.6h2.546V886c0,3.771,2.477,5.649,5.746,5.649a9.777,9.777,0,0,0,4.759-1.252Z" transform="translate(-10860.679 -865)" fill="#ff8000"/>
    </g>
    <g id="_2091242903248" transform="translate(1.766 0.589)">
      <path id="Path_5616" data-name="Path 5616" d="M23.671,172.682c-.139,1.057-3.534,7.583-4.188,8.822l-1.865,3.367c-1.433,2.491-3.27,5.983-4.508,8.516a17.509,17.509,0,0,0-1.475,3.729,5.987,5.987,0,0,0,.445,4.4,3.446,3.446,0,0,0,3.437,1.684,6.337,6.337,0,0,0,3.437-1.767,16.837,16.837,0,0,0,2.407-2.8c.724-1,1.433-2.045,2.143-3.1s1.378-2.073,2.073-3.131c1.03-1.586,2.087-3.117,3.145-4.675.362-.515.724-1.016,1.1-1.517s.765-.988,1.169-1.461c1.67-2.018,2.5-1.489,3.9-.028a41.13,41.13,0,0,1,2.839,3.687c.71.988,1.419,2.073,2.087,3.117,1.294,2.045,2.783,4.327,4.147,6.3a22.514,22.514,0,0,0,2.3,2.908,7.32,7.32,0,0,0,3.186,2.018,3.489,3.489,0,0,0,3.8-1.183c1.795-2.393.209-5.8-.835-8-.57-1.183-1.169-2.31-1.753-3.451-.612-1.2-1.238-2.268-1.837-3.4s-1.211-2.24-1.837-3.381-1.2-2.282-1.809-3.437c-.6-1.127-1.2-2.268-1.781-3.423a31.758,31.758,0,0,1-1.628-3.6c.264-.181.626-.362.9-.529l2.7-1.67q1.774-1.148,3.465-2.338c2.324-1.628,4.55-3.242,6.735-4.9,1.545-1.169,5.246-3.98,6.484-5.148a6.206,6.206,0,0,0,2.045-3.757,3.566,3.566,0,0,0-2.226-3.618,6.874,6.874,0,0,0-4.912.083c-.7.25-1.391.557-2.059.835-5.468,2.268-12.718,5.274-16.266,9.935-1.851,2.421-2.129,5.065-1.558,8.084.07.376.223.849.264,1.2a12.019,12.019,0,0,1-2.115.779,8.631,8.631,0,0,1-5.037-.153c-.932-.278-1.5-.612-2.115-.807.125-.835.32-1.336.431-2.463.682-6.442-2.936-9.156-7.917-12.064a82.061,82.061,0,0,0-7.736-3.743c-1.35-.557-2.672-1.2-4.049-1.711a6.48,6.48,0,0,0-4.842-.139,3.627,3.627,0,0,0-2.185,3.562,6.534,6.534,0,0,0,1.851,3.924,17.8,17.8,0,0,0,1.489,1.378,150.233,150.233,0,0,0,14.972,10.909c.348.223,3.256,2.031,3.618,2.143Zm-8.53,26.925c1.308-.111,3.729-3.576,4.494-4.787.292-.459.612-.9.932-1.378l1.865-2.825c.306-.487.612-.932.932-1.405,1.252-1.906,2.5-3.771,3.826-5.5a17.9,17.9,0,0,1,2.185-2.463A5.4,5.4,0,0,1,32.6,179.82a5.209,5.209,0,0,1,3.506,1.141c2.073,1.572,4.7,5.524,6.178,7.792,1.572,2.393,2.992,4.661,4.606,7.027a25.539,25.539,0,0,0,1.781,2.31c.264.25,1.322,1.308,1.725,1.169.237-1.572-1.767-5.148-2.5-6.6-.988-1.92-2.185-4.049-3.228-5.969-.543-1-1.058-1.962-1.6-2.978s-1.03-2.018-1.558-3.019c-.724-1.336-1.684-3.173-2.31-4.564-.111-.237-.626-1.489-.71-1.586l-1.266.487a12.518,12.518,0,0,1-8.989-.153l-1.28-.5c-.083.125-.557,1.336-.682,1.628-.765,1.67-1.405,3.061-2.282,4.7l-1.6,3.047c-1.6,2.992-3.381,5.969-4.94,9.072-.515,1.03-1.03,2.032-1.545,3.117-.431.918-1.155,2.5-.765,3.687Zm25.477-30.264a5.152,5.152,0,0,0,.71-.4c.223-.139.431-.264.668-.417,3.854-2.393,7.959-5.357,11.549-8.084.835-.64,1.656-1.252,2.463-1.892.417-.334.807-.612,1.211-.946.835-.7,3.186-2.324,3.228-3.312-1.071-.473-2.616.264-3.506.626-1.058.431-2.087.849-3.145,1.294s-2.045.9-3.075,1.364a41.426,41.426,0,0,0-5.7,3.2c-1.531,1.085-3.7,2.8-4.327,4.578a7.763,7.763,0,0,0-.083,3.993ZM5.36,154.064c-.056,1.211,2.045,2.8,2.908,3.506A155.931,155.931,0,0,0,22,167.478c.264.167,2.435,1.531,2.7,1.628a9.925,9.925,0,0,0,.237-1.92,7.265,7.265,0,0,0-.195-2,6.829,6.829,0,0,0-2.88-3.687,33.256,33.256,0,0,0-4.063-2.532c-1.489-.835-4.314-2.143-5.942-2.825-1.03-.431-2.059-.877-3.075-1.322-.779-.334-2.477-1.155-3.437-.751Z" transform="translate(-1.766 -148.256)" fill="#fff" fill-rule="evenodd"/>
      <path id="Path_5617" data-name="Path 5617" d="M1815.546.623a5.95,5.95,0,0,0-3.966,2.087,6.064,6.064,0,1,0,10.645,3.3,5.8,5.8,0,0,0-.724-2.282,7.094,7.094,0,0,0-.6-.891A6.1,6.1,0,0,0,1815.56.623ZM1815.811,4a2.677,2.677,0,1,0,3.033,2.282A2.666,2.666,0,0,0,1815.811,4Z" transform="translate(-1784.959 -0.589)" fill="#ff8000" fill-rule="evenodd"/>
    </g>
  </g>
</svg>
