<svg xmlns="http://www.w3.org/2000/svg" width="57.221" height="50.462" viewBox="0 0 57.221 50.462">
  <g id="Group_2746" data-name="Group 2746" transform="translate(-161.064 -326)">
    <path id="Path_5618" data-name="Path 5618" d="M899.5,3516.253c-.121.975-3.248,6.953-3.84,8.1l-1.716,3.095c-1.311,2.287-3,5.487-4.143,7.813a15.758,15.758,0,0,0-1.352,3.423,5.489,5.489,0,0,0,.412,4.039,3.177,3.177,0,0,0,3.158,1.55,5.881,5.881,0,0,0,3.158-1.618,14.924,14.924,0,0,0,2.212-2.567c.658-.921,1.311-1.874,1.962-2.846s1.264-1.9,1.9-2.88c.942-1.456,1.913-2.867,2.888-4.3.326-.477.666-.937,1.008-1.395s.7-.9,1.067-1.337c1.528-1.847,2.294-1.364,3.57-.02a36.777,36.777,0,0,1,2.609,3.387c.649.907,1.3,1.907,1.911,2.865,1.192,1.874,2.548,3.967,3.8,5.786a20.553,20.553,0,0,0,2.109,2.667,6.7,6.7,0,0,0,2.923,1.852,3.216,3.216,0,0,0,3.492-1.09c1.653-2.2.195-5.329-.764-7.344-.518-1.092-1.077-2.124-1.608-3.168-.557-1.1-1.135-2.075-1.688-3.121s-1.114-2.061-1.679-3.1-1.1-2.095-1.655-3.156c-.545-1.039-1.092-2.077-1.638-3.138a31.611,31.611,0,0,1-1.5-3.309c.238-.17.573-.338.827-.487l2.476-1.532c1.088-.7,2.142-1.411,3.183-2.14,2.128-1.489,4.172-2.973,6.181-4.5,1.413-1.071,4.815-3.648,5.95-4.725a5.681,5.681,0,0,0,1.872-3.451,3.272,3.272,0,0,0-2.042-3.316,6.312,6.312,0,0,0-4.5.076c-.635.225-1.28.508-1.894.762-5.024,2.087-11.672,4.842-14.933,9.114a8.8,8.8,0,0,0-1.432,7.424c.063.344.2.784.238,1.1a11.016,11.016,0,0,1-1.94.717,7.859,7.859,0,0,1-4.625-.144c-.852-.262-1.382-.559-1.94-.746.113-.768.291-1.229.4-2.265.623-5.907-2.7-8.405-7.269-11.068a75.036,75.036,0,0,0-7.107-3.44c-1.233-.508-2.456-1.1-3.719-1.573a5.955,5.955,0,0,0-4.442-.133,3.318,3.318,0,0,0-2,3.267,6.056,6.056,0,0,0,1.692,3.606,16.151,16.151,0,0,0,1.36,1.268,137.229,137.229,0,0,0,13.743,10.011c.315.2,2.988,1.858,3.324,1.972Zm-7.826,24.716c1.206-.1,3.416-3.281,4.127-4.389.272-.426.563-.835.85-1.266l1.706-2.589c.282-.44.565-.858.852-1.294,1.147-1.745,2.3-3.463,3.51-5.049a15.217,15.217,0,0,1,2.009-2.255,5.049,5.049,0,0,1,2.966-1.321,4.794,4.794,0,0,1,3.213,1.042c1.9,1.438,4.313,5.072,5.673,7.15,1.438,2.2,2.753,4.278,4.229,6.447a24.965,24.965,0,0,0,1.63,2.122c.248.236,1.213,1.2,1.585,1.071.215-1.44-1.626-4.731-2.3-6.058-.9-1.765-2.007-3.721-2.959-5.474-.5-.918-.971-1.8-1.466-2.735s-.94-1.853-1.434-2.765c-.664-1.225-1.55-2.906-2.126-4.19-.1-.215-.571-1.37-.657-1.454l-1.159.44a11.455,11.455,0,0,1-8.244-.147l-1.176-.461c-.076.109-.508,1.223-.629,1.491-.7,1.53-1.292,2.812-2.089,4.322l-1.466,2.8c-1.464,2.75-3.107,5.474-4.534,8.321-.473.946-.942,1.864-1.411,2.855-.4.835-1.055,2.3-.7,3.389Zm23.387-27.774a4.7,4.7,0,0,0,.647-.369c.209-.127.4-.24.617-.377,3.533-2.2,7.31-4.911,10.595-7.422.766-.586,1.526-1.151,2.267-1.741.379-.3.739-.561,1.116-.87.772-.635,2.925-2.134,2.964-3.044-.979-.44-2.4.244-3.218.578-.975.4-1.921.778-2.88,1.192s-1.882.834-2.816,1.256a37.553,37.553,0,0,0-5.239,2.935c-1.4.993-3.4,2.564-3.977,4.2A7.228,7.228,0,0,0,915.059,3513.2ZM882.7,3499.176c-.049,1.114,1.874,2.568,2.665,3.224a142.637,142.637,0,0,0,12.61,9.093c.238.15,2.241,1.407,2.48,1.491a8.688,8.688,0,0,0,.219-1.757,6.952,6.952,0,0,0-.174-1.839,6.325,6.325,0,0,0-2.64-3.389,30.393,30.393,0,0,0-3.734-2.325c-1.37-.764-3.957-1.964-5.45-2.6q-1.413-.6-2.826-1.213c-.715-.311-2.271-1.065-3.148-.69Z" transform="translate(-718.307 -3167.834)" fill="#fff" fill-rule="evenodd"/>
    <path id="Path_5619" data-name="Path 5619" d="M12172.786,2559.741a5.576,5.576,0,0,0-4.947,6.146,5.567,5.567,0,1,0,10.41-3.3,6.216,6.216,0,0,0-.555-.824,5.588,5.588,0,0,0-4.91-2.025Zm.238,3.1a2.457,2.457,0,1,0,2.783,2.1A2.453,2.453,0,0,0,12173.024,2562.842Z" transform="translate(-11983.62 -2233.708)" fill="#ff8000" fill-rule="evenodd"/>
  </g>
</svg>
