<svg xmlns="http://www.w3.org/2000/svg" width="100" height="100" viewBox="0 0 100 100">
  <g id="Group_2923" data-name="Group 2923" transform="translate(-15 -734)">
    <rect id="Rectangle_888" data-name="Rectangle 888" width="100" height="100" transform="translate(15 734)" fill="rgba(255,255,255,0)"/>
    <g id="_095c7bb83bf6d1edad3582ee642bbffc" data-name="095c7bb83bf6d1edad3582ee642bbffc" transform="translate(-14 759)">
      <g id="Group_2800" data-name="Group 2800" transform="translate(61 1)">
        <g id="Group_2798" data-name="Group 2798" transform="translate(0)">
          <path id="Path_5706" data-name="Path 5706" d="M94.065,1H64.518A3.521,3.521,0,0,0,61,4.518v40.8a3.521,3.521,0,0,0,3.518,3.518H94.065a3.521,3.521,0,0,0,3.518-3.518V4.518A3.521,3.521,0,0,0,94.065,1Zm2.111,44.321a2.113,2.113,0,0,1-2.111,2.111H64.518a2.113,2.113,0,0,1-2.111-2.111V4.518a2.113,2.113,0,0,1,2.111-2.111H94.065a2.113,2.113,0,0,1,2.111,2.111Z" transform="translate(-61 -1)" fill="#292775"/>
          <path id="Path_5707" data-name="Path 5707" d="M113.864,119.128a8.09,8.09,0,1,0,8.09,8.09A8.1,8.1,0,0,0,113.864,119.128Zm3.843,13.553-1.374-2.185a.7.7,0,0,0-1.191.749l1.336,2.124a6.683,6.683,0,1,1-3.317-12.8v2.542a.7.7,0,0,0,1.407,0v-2.542a6.7,6.7,0,0,1,5.943,5.943h-2.542a.7.7,0,1,0,0,1.407h2.542A6.685,6.685,0,0,1,117.707,132.681Zm3.544-19.181H91.7a.7.7,0,0,0,0,1.407h29.547a.7.7,0,1,0,0-1.407Zm0,2.814H91.7a.7.7,0,0,0,0,1.407h29.547a.7.7,0,0,0,0-1.407ZM91.7,120.535h14.07a.7.7,0,0,0,0-1.407H91.7a.7.7,0,0,0,0,1.407Zm11.96,7.739H91.7a.7.7,0,0,0,0,1.407h11.96a.7.7,0,0,0,0-1.407Zm0-6.332H91.7a.7.7,0,0,0-.7.7v3.518a.7.7,0,0,0,.7.7h11.96a.7.7,0,0,0,.7-.7v-3.518A.7.7,0,0,0,103.663,121.942Zm-.7,3.518H92.407v-2.11H102.96Z" transform="translate(-88.186 -102.947)" fill="#292775"/>
        </g>
        <g id="Group_2799" data-name="Group 2799" transform="translate(2.814 2.814)">
          <path id="Path_5708" data-name="Path 5708" d="M121.251,71.8h-.7V62.611a.7.7,0,0,0-.7-.7H117.03a.7.7,0,0,0-.7.7V71.8h-1.407V64.018a.7.7,0,0,0-.7-.7H111.4a.7.7,0,0,0-.7.7V71.8h-1.407V65.378a.7.7,0,0,0-.7-.7h-2.814a.7.7,0,0,0-.7.7V71.8h-1.407V66.785a.7.7,0,0,0-.7-.7h-2.814a.7.7,0,0,0-.7.7V71.8H98.035V68.192a.7.7,0,0,0-.7-.7H94.518a.7.7,0,0,0-.7.7V71.8H92.407V57.03a.7.7,0,0,0-1.407,0V72.507a.7.7,0,0,0,.7.7h29.547a.7.7,0,1,0,0-1.407Zm-26.03,0V68.9h1.407V71.8Zm5.628,0V67.488h1.407V71.8Zm5.628,0V66.081h1.407V71.8Zm5.628,0V64.721h1.407V71.8Zm5.628,0V63.314h1.407V71.8ZM121.251,31H91.7a.7.7,0,0,0-.7.7v4.925a.7.7,0,0,0,.7.7h29.547a.7.7,0,0,0,.7-.7V31.7A.7.7,0,0,0,121.251,31Zm-.7,4.925H92.407V32.407h28.14Zm-6.683,21.34a4.807,4.807,0,1,0-4.807-4.807A4.813,4.813,0,0,0,113.864,57.264Zm0-8.208a3.4,3.4,0,1,1-3.4,3.4A3.4,3.4,0,0,1,113.864,49.057Z" transform="translate(-91 -31)" fill="#ff8000"/>
        </g>
      </g>
    </g>
  </g>
</svg>
