<svg xmlns="http://www.w3.org/2000/svg" width="100" height="100" viewBox="0 0 100 100">
  <g id="Group_2928" data-name="Group 2928" transform="translate(-137 -904)">
    <rect id="Rectangle_1542" data-name="Rectangle 1542" width="100" height="100" transform="translate(137 904)" fill="rgba(255,255,255,0)"/>
    <g id="_9b3feb476aaf84887e0a9d497905b371" data-name="9b3feb476aaf84887e0a9d497905b371" transform="translate(161 927)">
      <path id="Path_5628" data-name="Path 5628" d="M42.429,51h-32A3.429,3.429,0,0,1,7,47.571V6.429A3.429,3.429,0,0,1,10.429,3H32.339a3.408,3.408,0,0,1,2.424,1L44.853,14.094a3.4,3.4,0,0,1,1,2.424V47.571A3.429,3.429,0,0,1,42.429,51Zm-32-45.714A1.143,1.143,0,0,0,9.286,6.429V47.571a1.143,1.143,0,0,0,1.143,1.143h32a1.143,1.143,0,0,0,1.143-1.143V16.518a1.143,1.143,0,0,0-.335-.808L33.147,5.621a1.143,1.143,0,0,0-.808-.335Z" transform="translate(0 0)" fill="#292775" stroke="#fff" stroke-width="0.5"/>
      <path id="Path_5629" data-name="Path 5629" d="M41.1,16.2H32.3A3.3,3.3,0,0,1,29,12.9V4.1a1.1,1.1,0,0,1,1.878-.778l11,11A1.1,1.1,0,0,1,41.1,16.2ZM31.2,6.755V12.9A1.1,1.1,0,0,0,32.3,14h6.145Z" transform="translate(3.657 0)" fill="#292775" stroke="#fff" stroke-width="0.5"/>
      <path id="Path_5630" data-name="Path 5630" d="M16.3,20.6a1.1,1.1,0,0,1-.778-.322l-2.2-2.2a1.1,1.1,0,1,1,1.556-1.556L16.3,17.945l3.622-3.622a1.1,1.1,0,1,1,1.556,1.556l-4.4,4.4A1.1,1.1,0,0,1,16.3,20.6Z" transform="translate(0.936 1.65)" fill="#ff8000"/>
      <path id="Path_5631" data-name="Path 5631" d="M35.1,19.2h-11a1.1,1.1,0,1,1,0-2.2h11a1.1,1.1,0,0,1,0,2.2Z" transform="translate(2.66 2.03)" fill="#292775"/>
      <path id="Path_5632" data-name="Path 5632" d="M16.3,29.6a1.1,1.1,0,0,1-.778-.322l-2.2-2.2a1.1,1.1,0,1,1,1.556-1.556L16.3,26.945l3.622-3.622a1.1,1.1,0,1,1,1.556,1.556l-4.4,4.4A1.1,1.1,0,0,1,16.3,29.6Z" transform="translate(0.936 3)" fill="#ff8000"/>
      <path id="Path_5633" data-name="Path 5633" d="M35.1,28.2h-11a1.1,1.1,0,1,1,0-2.2h11a1.1,1.1,0,0,1,0,2.2Z" transform="translate(2.66 3.335)" fill="#292775"/>
      <path id="Path_5634" data-name="Path 5634" d="M16.3,38.6a1.1,1.1,0,0,1-.778-.322l-2.2-2.2a1.1,1.1,0,1,1,1.556-1.556L16.3,35.945l3.622-3.622a1.1,1.1,0,1,1,1.556,1.556l-4.4,4.4A1.1,1.1,0,0,1,16.3,38.6Z" transform="translate(0.936 4.35)" fill="#ff8000"/>
      <path id="Path_5635" data-name="Path 5635" d="M35.1,37.2h-11a1.1,1.1,0,1,1,0-2.2h11a1.1,1.1,0,0,1,0,2.2Z" transform="translate(2.66 4.64)" fill="#292775"/>
    </g>
  </g>
</svg>
