<svg xmlns="http://www.w3.org/2000/svg" width="100" height="100" viewBox="0 0 100 100">
  <g id="Group_2926" data-name="Group 2926" transform="translate(-257 -734)">
    <rect id="Rectangle_1538" data-name="Rectangle 1538" width="100" height="100" transform="translate(257 734)" fill="rgba(255,255,255,0)"/>
    <g id="Group_2924" data-name="Group 2924" transform="translate(276 759)">
      <path id="Path_5759" data-name="Path 5759" d="M46.167,2H17.033a.767.767,0,0,0-.767.767V8.9H10.133a.767.767,0,0,0-.767.767V38.8h-4.6A.767.767,0,0,0,4,39.567v3.067A5.373,5.373,0,0,0,9.367,48H36.2a3.838,3.838,0,0,0,3.833-3.833V41.1h6.133a.767.767,0,0,0,.767-.767V2.767A.767.767,0,0,0,46.167,2ZM9.367,46.467a3.838,3.838,0,0,1-3.833-3.833v-2.3H32.367v3.833a3.816,3.816,0,0,0,.072.711c.014.074.036.144.055.217a3.8,3.8,0,0,0,.141.454c.031.078.064.153.1.229a3.819,3.819,0,0,0,.217.4c.041.067.08.134.126.2.021.03.037.064.059.093Zm29.133-2.3a2.3,2.3,0,0,1-4.6,0v-4.6a.767.767,0,0,0-.767-.767H10.9V10.433H38.5Zm6.9-4.6H40.033V9.667a.767.767,0,0,0-.767-.767H17.8V3.533H45.4Z" fill="#292775"/>
      <path id="Path_5760" data-name="Path 5760" d="M36.633,18H19.767a.767.767,0,0,0-.767.767v4.6a.767.767,0,0,0,.767.767H36.633a.767.767,0,0,0,.767-.767v-4.6A.767.767,0,0,0,36.633,18Zm-.767,4.6H20.533V19.533H35.867Zm.767,4.6h-13.8a.767.767,0,0,0,0,1.533h13.8a.767.767,0,1,0,0-1.533Zm0,4.6H19.767a.767.767,0,0,0,0,1.533H36.633a.767.767,0,1,0,0-1.533Zm0,4.6H19.767a.767.767,0,1,0,0,1.533H36.633a.767.767,0,1,0,0-1.533Z" transform="translate(-3.5 -3.733)" fill="#ff8000"/>
    </g>
    <g id="Group_2925" data-name="Group 2925" transform="translate(37.003 7.418)">
      <g id="Path_5729" data-name="Path 5729" transform="translate(248.535 748.586)" fill="#fff" stroke-linecap="round">
        <path d="M 41.77900314331055 58.08418655395508 C 41.68386077880859 58.08418655395508 41.58755111694336 58.07730865478516 41.49275207519531 58.06374740600586 C 40.96368408203125 57.98791885375977 40.49556350708008 57.71024703979492 40.17483139038086 57.28190612792969 C 39.85425186157227 56.85372924804688 39.71957397460938 56.32637786865234 39.7956428527832 55.79703903198242 L 40.34435272216797 51.98551940917969 L 40.40590286254883 51.55796813964844 L 40.06697082519531 51.29016876220703 L 36.5814208984375 48.53618621826172 L 35.94167327880859 48.03071594238281 L 35.49127197265625 48.71036911010742 L 33.25612258911133 52.08319854736328 C 32.8746337890625 52.65822601318359 32.23574066162109 53.00171661376953 31.54731178283691 53.00171661376953 C 31.48307228088379 53.00171661376953 31.41651153564453 52.9985466003418 31.3494815826416 52.99228668212891 L 26.6083927154541 52.54130935668945 C 26.07733154296875 52.49074935913086 25.59701156616211 52.23553848266602 25.25597190856934 51.82270812988281 C 24.91495323181152 51.40990829467773 24.75504302978516 50.8901481628418 24.80569267272949 50.35917663574219 C 24.85638236999512 49.82666778564453 25.11136245727539 49.34589767456055 25.52366256713867 49.00528717041016 C 25.8867130279541 48.70553588867188 26.3267822265625 48.54702758789062 26.79616165161133 48.54702758789062 C 26.86031150817871 48.54702758789062 26.92551231384277 48.55008697509766 26.98994255065918 48.55613708496094 L 30.12337303161621 48.85563659667969 L 30.57204246520996 48.89851760864258 L 30.82049179077148 48.52246856689453 L 32.69596099853516 45.68377685546875 L 32.8202018737793 45.4957275390625 L 32.8202018737793 45.27034759521484 L 32.8202018737793 39.40127563476562 L 32.8202018737793 38.00743865966797 L 31.65699195861816 38.7753791809082 L 30.74714279174805 39.37604904174805 L 30.41035270690918 39.598388671875 L 30.41035270690918 40.00194931030273 L 30.41035270690918 41.52179718017578 C 30.41035270690918 42.6254768371582 29.51244163513184 43.52338790893555 28.40877151489258 43.52338790893555 C 27.30509185791016 43.52338790893555 26.40718269348145 42.6254768371582 26.40718269348145 41.52179718017578 L 26.40718269348145 38.43279647827148 C 26.40718269348145 37.72653579711914 26.76071166992188 37.07477569580078 27.35286140441895 36.68932723999023 L 31.79351234436035 33.80099868774414 C 32.50531387329102 33.33784866333008 33.33041381835938 33.09307861328125 34.17972183227539 33.09307861328125 L 43.59153366088867 33.09307861328125 L 43.93047332763672 33.09307861328125 L 44.15445327758789 32.83868789672852 L 46.56143188476562 30.10480690002441 L 46.56381225585938 30.10209846496582 L 46.5661735534668 30.09936714172363 C 46.91233062744141 29.69847679138184 47.39672088623047 29.45611763000488 47.93011093139648 29.41693687438965 C 47.98023223876953 29.41325759887695 48.03093338012695 29.41139793395996 48.08084106445312 29.41139793395996 C 48.56514358520508 29.41139793395996 49.01595306396484 29.5797176361084 49.38451385498047 29.89815711975098 C 49.78852081298828 30.2469367980957 50.03244400024414 30.73304748535156 50.07159042358398 31.26713752746582 C 50.11074066162109 31.80120658874512 49.94032287597656 32.31766891479492 49.59172058105469 32.72136688232422 L 48.24211120605469 34.28465270996094 L 46.38296127319336 36.37640762329102 L 46.37929153442383 36.38052749633789 L 46.37569046020508 36.38469696044922 C 45.98553085327148 36.83689880371094 45.41472244262695 37.09624862670898 44.80962371826172 37.09624862670898 L 40.44748306274414 37.09624862670898 L 39.69748306274414 37.09624862670898 L 39.69748306274414 37.84624862670898 L 39.69748306274414 45.53263854980469 L 39.69748306274414 45.89587783813477 L 39.98247146606445 46.12108612060547 L 43.75639343261719 49.10335922241211 C 44.33649063110352 49.56208801269531 44.63123321533203 50.30153656005859 44.525390625 51.03296661376953 L 43.75925064086914 56.36676788330078 C 43.61846160888672 57.34580612182617 42.76713180541992 58.08418655395508 41.77900314331055 58.08418655395508 Z" stroke="none"/>
        <path d="M 48.0804328918457 30.16139602661133 C 48.04900360107422 30.16139602661133 48.01694488525391 30.1625862121582 47.98505401611328 30.1649284362793 C 47.65140151977539 30.18943786621094 47.34910202026367 30.34022903442383 47.13383483886719 30.58952713012695 L 47.12434387207031 30.60040664672852 L 44.26941299438477 33.84307861328125 L 34.17972183227539 33.84307861328125 C 33.47597122192383 33.84307861328125 32.79232406616211 34.04587936401367 32.20244216918945 34.42970657348633 L 27.76201248168945 37.31788635253906 C 27.38329315185547 37.56441879272461 27.15718078613281 37.98119735717773 27.15718078613281 38.43279647827148 L 27.15718078613281 41.52179718017578 C 27.15718078613281 42.21192932128906 27.71864318847656 42.77338790893555 28.40877151489258 42.77338790893555 C 29.09889221191406 42.77338790893555 29.66034317016602 42.21192932128906 29.66034317016602 41.52179718017578 L 29.66034317016602 39.19481658935547 L 33.5702018737793 36.61361694335938 L 33.5702018737793 45.72110748291016 L 30.9493522644043 49.68799591064453 L 26.9199104309082 49.3028564453125 C 26.5828857421875 49.27126312255859 26.25984954833984 49.37005615234375 26.00132369995117 49.58351898193359 C 25.73973083496094 49.79960632324219 25.5844841003418 50.09234619140625 25.55230331420898 50.43038940429688 C 25.52068328857422 50.76188659667969 25.62079238891602 51.08671569824219 25.83419418334961 51.34503936767578 C 26.04763412475586 51.60341644287109 26.34786224365234 51.76310729980469 26.67941284179688 51.794677734375 L 31.41922378540039 52.24553680419922 C 31.46316146850586 52.24963760375977 31.50625228881836 52.25171661376953 31.54731369018555 52.25171661376953 C 31.98373413085938 52.25171661376953 32.38898086547852 52.03359603881836 32.63094329833984 51.66888809204102 L 35.76688385009766 46.9367561340332 L 41.20980072021484 51.23727798461914 L 40.53801345825195 55.90371704101562 C 40.48975372314453 56.23955535888672 40.57178115844727 56.56070709228516 40.77517318725586 56.83236694335938 C 40.97869110107422 57.10415649414062 41.263671875 57.27324676513672 41.59909057617188 57.32131958007812 C 41.65876388549805 57.32985687255859 41.71929168701172 57.33419036865234 41.77900314331055 57.33419036865234 C 42.39665222167969 57.33419036865234 42.9288330078125 56.87233734130859 43.01687240600586 56.26011657714844 L 43.78312301635742 50.92555618286133 C 43.85079193115234 50.45791625976562 43.66221237182617 49.98504638671875 43.29137420654297 49.69179916381836 L 38.94748306274414 46.25910568237305 L 38.94748306274414 36.34624862670898 L 44.80962371826172 36.34624862670898 C 45.19643402099609 36.34624862670898 45.56027221679688 36.18167877197266 45.80785369873047 35.89473724365234 L 45.82238006591797 35.87815856933594 L 47.67795562744141 33.79042816162109 L 49.02407073974609 32.23118591308594 C 49.24172210693359 31.9791259765625 49.34810256958008 31.65622711181641 49.32360076904297 31.32195663452148 C 49.29910278320312 30.98768615722656 49.14676284790039 30.6837272644043 48.89417266845703 30.46566772460938 C 48.66381072998047 30.26662826538086 48.38254165649414 30.16140747070312 48.08064270019531 30.16139602661133 L 48.0804328918457 30.16139602661133 M 48.08084869384766 28.66139221191406 C 48.73997497558594 28.66142272949219 49.37093353271484 28.89524459838867 49.87485504150391 29.33064651489258 C 51.02330017089844 30.32210922241211 51.15085220336914 32.06332778930664 50.15938186645508 33.21152877807617 L 48.80657196044922 34.77852630615234 L 46.94354248046875 36.87464904785156 C 46.41371154785156 37.48870849609375 45.63284301757812 37.84624862670898 44.80962371826172 37.84624862670898 L 40.44748306274414 37.84624862670898 L 40.44748306274414 45.53263854980469 L 44.22138977050781 48.51490783691406 C 45.01064300537109 49.1390266418457 45.41172027587891 50.14484786987305 45.26766204833984 51.14037704467773 L 44.50163269042969 56.473388671875 C 44.30467987060547 57.84294891357422 43.12440490722656 58.83419036865234 41.77900314331055 58.83419036865234 C 41.64953231811523 58.83419036865234 41.51863098144531 58.82508850097656 41.38653182983398 58.80617523193359 C 40.65855407714844 58.70184707641602 40.01529312133789 58.32013702392578 39.57448196411133 57.7314453125 C 39.1339111328125 57.14299011230469 38.94869232177734 56.41810607910156 39.05326080322266 55.69036865234375 L 39.60200119018555 51.87864685058594 L 36.11645126342773 49.12466812133789 L 33.88130187988281 52.49749755859375 C 33.30791091918945 53.36178588867188 32.31337738037109 53.8355598449707 31.27976226806641 53.73903656005859 L 26.53737258911133 53.28793716430664 C 25.0268440246582 53.14411926269531 23.91501235961914 51.79823684692383 24.05908203125 50.28794860839844 C 24.12871170043945 49.55638885498047 24.47907257080078 48.89540863037109 25.04599380493164 48.42707824707031 C 25.6129150390625 47.958984375 26.32826232910156 47.74076843261719 27.06002044677734 47.80941772460938 L 30.19473266601562 48.10903930664062 L 32.0702018737793 45.27034759521484 L 32.0702018737793 39.40127563476562 L 31.16034317016602 40.00194931030273 L 31.16034317016602 41.52179718017578 C 31.16034317016602 43.03902816772461 29.92599105834961 44.27338790893555 28.40877151489258 44.27338790893555 C 26.89154052734375 44.27338790893555 25.65718078613281 43.03902816772461 25.65718078613281 41.52179718017578 L 25.65718078613281 38.43279647827148 C 25.65718078613281 37.47172927856445 26.13820266723633 36.58508682250977 26.9437141418457 36.06075668334961 L 31.38458251953125 33.17228698730469 C 32.21834182739258 32.62976837158203 33.18491363525391 32.34307861328125 34.17972183227539 32.34307861328125 L 43.59152984619141 32.34307861328125 L 45.99851226806641 29.60919570922852 C 46.47378158569336 29.05878829956055 47.14217376708984 28.72279739379883 47.87517166137695 28.6689567565918 C 47.94400405883789 28.66389846801758 48.01251220703125 28.6613883972168 48.08084869384766 28.66139221191406 Z" stroke="none" fill="#ff8000"/>
      </g>
      <g id="Path_5730" data-name="Path 5730" transform="translate(222.8 766.39)" fill="#fff" stroke-linecap="round">
        <path d="M 62.16022109985352 13.05941295623779 C 60.21255111694336 13.05941295623779 58.62800979614258 11.47733306884766 58.62800979614258 9.532703399658203 C 58.62800979614258 7.588073253631592 60.21255111694336 6.006003379821777 62.16022109985352 6.006003379821777 C 64.10787963867188 6.006003379821777 65.69241333007812 7.588073253631592 65.69241333007812 9.532703399658203 C 65.69241333007812 11.47733306884766 64.10787963867188 13.05941295623779 62.16022109985352 13.05941295623779 Z" stroke="none"/>
        <path d="M 62.16022109985352 12.30941295623779 C 63.69432067871094 12.30941295623779 64.94241333007812 11.06378364562988 64.94241333007812 9.532703399658203 C 64.94241333007812 8.001623153686523 63.69432067871094 6.756003379821777 62.16022109985352 6.756003379821777 C 60.6260986328125 6.756003379821777 59.37800979614258 8.001623153686523 59.37800979614258 9.532703399658203 C 59.37800979614258 11.06378364562988 60.6260986328125 12.30941295623779 62.16022109985352 12.30941295623779 M 62.16022109985352 13.80941295623779 C 59.7989387512207 13.80941295623779 57.87800979614258 11.8908634185791 57.87800979614258 9.532703399658203 C 57.87800979614258 7.174543380737305 59.79917907714844 5.256003379821777 62.16022109985352 5.256003379821777 C 64.52123260498047 5.256003379821777 66.44241333007812 7.174543380737305 66.44241333007812 9.532703399658203 C 66.44241333007812 11.8908634185791 64.52123260498047 13.80941295623779 62.16022109985352 13.80941295623779 Z" stroke="none" fill="#ff8000"/>
      </g>
    </g>
  </g>
</svg>
