<svg xmlns="http://www.w3.org/2000/svg" width="100" height="100" viewBox="0 0 100 100">
  <g id="Group_2831" data-name="Group 2831" transform="translate(-15 -248)">
    <rect id="Rectangle_888" data-name="Rectangle 888" width="100" height="100" transform="translate(15 248)" fill="none"/>
    <g id="Group_2809" data-name="Group 2809" transform="translate(-124 10)">
      <g id="_7ce6f13e270518335d113431be4ecaf0" data-name="7ce6f13e270518335d113431be4ecaf0" transform="translate(158 261)">
        <path id="Path_5669" data-name="Path 5669" d="M48.286,4H34.571a1.713,1.713,0,1,0,0,3.426h12V31.409H41.429V27.983a1.714,1.714,0,0,0-1.714-1.713H12.286a1.714,1.714,0,0,0-1.714,1.713v3.426H5.429V7.426h12a1.713,1.713,0,1,0,0-3.426H3.714A1.714,1.714,0,0,0,2,5.713V33.122a1.714,1.714,0,0,0,1.714,1.713h6.857v4.735a14.592,14.592,0,0,1-1.534,6.491A1.714,1.714,0,0,0,12.1,47.595a18.038,18.038,0,0,0,1.766-5.907h3.559v5.139a1.714,1.714,0,0,0,3.429,0V41.688h3.429v5.139a1.714,1.714,0,0,0,3.429,0V41.688h3.429v5.139a1.714,1.714,0,0,0,3.429,0V41.688H38.13A18.038,18.038,0,0,0,39.9,47.593a1.714,1.714,0,0,0,3.067-1.533,14.592,14.592,0,0,1-1.534-6.489V34.836h6.857A1.714,1.714,0,0,0,50,33.122V5.713A1.714,1.714,0,0,0,48.286,4ZM14,29.7H38v1.713H14Zm0,8.565V34.836h3.429v3.426Zm6.857,0V34.836h3.429v3.426Zm6.857,0V34.836h3.429v3.426Zm10.286,0H34.571V34.836H38Z" transform="translate(0 1.46)" fill="#292775" stroke="#fff" stroke-width="1.5"/>
        <path id="Path_5670" data-name="Path 5670" d="M20.891,26.218A12,12,0,0,0,32.782,14.109,12,12,0,0,0,20.891,2,12,12,0,0,0,9,14.109,12.015,12.015,0,0,0,20.891,26.218ZM14.032,9.053a20.049,20.049,0,0,1,2.738,1.654,14.6,14.6,0,0,1-4.141,1.472,8.656,8.656,0,0,1,1.4-3.126ZM12.555,15.7a18.277,18.277,0,0,0,7.067-2.65c.572.538,1.16,1.14,1.756,1.8a13.759,13.759,0,0,0-5.12,6.49,8.658,8.658,0,0,1-3.7-5.643Zm6.858,6.906a10.236,10.236,0,0,1,4.138-5.037A34.646,34.646,0,0,1,25.8,21.15,8.039,8.039,0,0,1,19.413,22.606ZM28.2,18.434c-.447-.763-.9-1.489-1.359-2.171a16.972,16.972,0,0,1,2.351-.346A8.636,8.636,0,0,1,28.2,18.434Zm1.019-5.963a18.98,18.98,0,0,0-4.587.865c-.759-.9-1.514-1.709-2.252-2.43a15.547,15.547,0,0,0,3.1-4.05,8.655,8.655,0,0,1,3.737,5.624ZM22.25,5.6a12.429,12.429,0,0,1-2.484,3.027,26.078,26.078,0,0,0-3-2.029,7.685,7.685,0,0,1,5.487-1Z" transform="translate(5.109)" fill="#ff8000" stroke="#fff" stroke-linecap="round" stroke-width="1.5"/>
      </g>
      <g id="_17d989ebd3d7d089a326f83faa44c7aa" data-name="17d989ebd3d7d089a326f83faa44c7aa" transform="translate(187.868 282.868)">
        <g id="Path_5710" data-name="Path 5710" fill="#fff" fill-rule="evenodd">
          <path d="M 16 29.25 C 12.46080017089844 29.25 9.133440017700195 27.87174987792969 6.630829811096191 25.369140625 C 4.12824010848999 22.86654090881348 2.75 19.53918075561523 2.75 16 C 2.75 12.46080017089844 4.12824010848999 9.133429527282715 6.630829811096191 6.630829811096191 C 9.133429527282715 4.12824010848999 12.46080017089844 2.75 16 2.75 C 19.53918075561523 2.75 22.86654090881348 4.12824010848999 25.369140625 6.630829811096191 C 27.87174987792969 9.133440017700195 29.25 12.46080017089844 29.25 16 C 29.25 19.53916931152344 27.87174987792969 22.86652946472168 25.369140625 25.369140625 C 22.86652946472168 27.87174987792969 19.53916931152344 29.25 16 29.25 Z" stroke="none"/>
          <path d="M 16 28.5 C 19.33884048461914 28.5 22.47785949707031 27.19976043701172 24.83880996704102 24.83880996704102 C 27.19976043701172 22.47785949707031 28.5 19.33884048461914 28.5 16 C 28.5 12.66114044189453 27.19976043701172 9.522109985351562 24.83880996704102 7.16117000579834 C 22.47785949707031 4.800230026245117 19.3388500213623 3.5 16 3.5 C 12.66112995147705 3.5 9.522100448608398 4.800230026245117 7.161159992218018 7.161159992218018 C 4.800230026245117 9.522100448608398 3.5 12.66112995147705 3.5 16 C 3.5 19.3388500213623 4.800230026245117 22.47785949707031 7.16117000579834 24.83880996704102 C 9.522109985351562 27.19976043701172 12.66114044189453 28.5 16 28.5 M 16 30 C 8.268010139465332 30 2 23.73192024230957 2 16 C 2 8.268010139465332 8.268010139465332 2 16 2 C 23.73192024230957 2 30 8.268010139465332 30 16 C 30 23.73192024230957 23.73192024230957 30 16 30 Z" stroke="none" fill="#292775"/>
        </g>
        <path id="Path_5711" data-name="Path 5711" d="M18.265,15.308l-6.819,4.026A1.65,1.65,0,0,1,9,17.8V9.752a1.65,1.65,0,0,1,2.446-1.53l6.819,4.026A1.805,1.805,0,0,1,18.265,15.308Z" transform="translate(2.632 2.222)" fill="#ff8000"/>
      </g>
    </g>
  </g>
</svg>
