<svg xmlns="http://www.w3.org/2000/svg" width="100" height="100" viewBox="0 0 100 100">
  <g id="Group_2891" data-name="Group 2891" transform="translate(-138 -248)">
    <rect id="Rectangle_888" data-name="Rectangle 888" width="100" height="100" transform="translate(138 248)" fill="none"/>
    <path id="e46e35d059ef5fdab52c9f8c4b69d1eb" d="M31.589,29.413h-.035L29.422,27.92V26.295a8.333,8.333,0,0,0,3.625-4.417,3.868,3.868,0,0,0,2.285-6.847,4.993,4.993,0,0,0,.576-2.257V12.08a4.007,4.007,0,0,0,1.778-2.826l.042-.319a.694.694,0,0,0-.521-.792l-2.264-.694a4.819,4.819,0,0,0,.965-2.833.694.694,0,0,0-.694-.694H20.144a5.049,5.049,0,0,0-5.069,5.042v3.812a4.993,4.993,0,0,0,.549,2.257,3.875,3.875,0,0,0,2.229,6.847,8,8,0,0,0,3.694,4.458V27.92l-2.132,1.493h-.035A8.708,8.708,0,0,0,10.7,38.107v2.285a2.528,2.528,0,0,0,2.521,2.528H37.762a2.528,2.528,0,0,0,2.521-2.528V38.107a8.708,8.708,0,0,0-8.694-8.694ZM28.811,29.2l1.59,1.111-1.875,3.278-2.083-1.778ZM35.346,18a2.493,2.493,0,0,1-1.924,2.424,8.618,8.618,0,0,0,.118-1.389V17.024a5.1,5.1,0,0,0,.979-.84A2.465,2.465,0,0,1,35.346,18ZM16.464,8.962a3.66,3.66,0,0,1,3.681-3.653H34.422a3.472,3.472,0,0,1-1.187,1.972,5.889,5.889,0,0,1-3.306,1.208.694.694,0,1,0,0,1.389,7.125,7.125,0,0,0,3.854-1.292l2.451.694a2.632,2.632,0,0,1-1.389,1.729.694.694,0,0,0-.382.618v1.118a3.667,3.667,0,0,1-.951,2.451v-.9a2.34,2.34,0,0,0-2.333-2.333H27.012c-2.215,0-3.34-.09-4.576-2.035a.692.692,0,0,0-1.278.4c0,1.882-1.132,3.819-3.021,3.819a.694.694,0,0,0-.694.694v.41a3.667,3.667,0,0,1-.979-2.479Zm-.854,9.028a2.465,2.465,0,0,1,.854-1.806,5.1,5.1,0,0,0,1,.84v2.292a8.264,8.264,0,0,0,.083,1.1A2.5,2.5,0,0,1,15.637,18ZM18.8,19.3V15.448a4.618,4.618,0,0,0,3.472-3.472c1.389,1.389,2.958,1.389,4.694,1.389h4.167a.944.944,0,0,1,.944.944V19.08a6.819,6.819,0,0,1-6.535,6.9,6.667,6.667,0,0,1-6.785-6.66Zm6.687,8.062h.146a7.639,7.639,0,0,0,2.4-.431v1.09l-2.542,2.819L22.95,28.024V26.948a7.993,7.993,0,0,0,2.542.417Zm-3.34,1.84L24.5,31.816l-2.083,1.778L20.54,30.316ZM38.894,40.392a1.139,1.139,0,0,1-1.132,1.139H13.221a1.139,1.139,0,0,1-1.132-1.139V38.107a7.312,7.312,0,0,1,7.153-7.3l2.41,4.208a.694.694,0,0,0,.486.34h.118a.694.694,0,0,0,.458-.132l2.778-2.4,2.778,2.4a.694.694,0,0,0,.451.167h.118a.694.694,0,0,0,.486-.34l2.417-4.243a7.312,7.312,0,0,1,7.153,7.3ZM23.29,15.67v.875a.694.694,0,1,1-1.389,0V15.67a.694.694,0,0,1,1.389,0Zm4.4.875V15.67a.694.694,0,0,1,1.389,0v.875a.694.694,0,1,1-1.389,0Zm-2.2,5.2a2.313,2.313,0,0,1-1.861-.958.7.7,0,1,1,1.125-.84.931.931,0,0,0,1.472,0,.694.694,0,1,1,1.125.812,2.312,2.312,0,0,1-1.861.986Zm.91,14.062a.91.91,0,1,1-.91-.91.91.91,0,0,1,.91.91Zm0,3.424a.91.91,0,1,1-.91-.91.91.91,0,0,1,.91.91Z" transform="translate(137.8 275.08)" fill="#292775" stroke="#292775" stroke-width="0.25"/>
    <path id="_602e67791d58909252ba2de2b5a00bd8" data-name="602e67791d58909252ba2de2b5a00bd8" d="M9.8,7l-3-3.8c-.1-.2-.5-.2-.7,0L3.1,7c-.2.4,0,1,.4,1h2v6.5A.472.472,0,0,0,6,15H7a.472.472,0,0,0,.5-.5V8H9.4a.632.632,0,0,0,.4-1Z" transform="translate(196.025 291.978) rotate(90)" fill="#ff8000"/>
    <path id="Path_5746" data-name="Path 5746" d="M34.38,5.9,32.1,2.582a.741.741,0,0,0-1.029-.191L28.406,4.225a2.688,2.688,0,0,0-1,3.126l-.214.147c-.165-.214-.324-.43-.5-.637A14.042,14.042,0,0,0,5.024,24.718l-1.97,5.926a2.957,2.957,0,1,0,5.611,1.871l.1-.295a17.681,17.681,0,0,0,14.595,0l.1.293a2.956,2.956,0,0,0,3.737,1.874h0a2.976,2.976,0,0,0,1.871-3.744L27.1,24.72a13.946,13.946,0,0,0,.94-16.007l.207-.142a2.666,2.666,0,0,0,1.261.616,2.72,2.72,0,0,0,.5.046,2.674,2.674,0,0,0,1.519-.474L34.19,6.924A.739.739,0,0,0,34.38,5.9ZM5.4,32.985a1.491,1.491,0,0,1-.939-1.876l1.694-5.1c.017.017.036.031.053.047a13.855,13.855,0,0,0,1.065.947c.09.072.184.136.276.206q.438.333.9.63c.062.04.118.088.181.127L7.262,32.048a1.478,1.478,0,0,1-1.865.937Zm3.839-2.177.707-2.114a14.105,14.105,0,0,0,12.237,0l.707,2.114a16.24,16.24,0,0,1-13.65,0Zm17.49,2.177a1.479,1.479,0,0,1-1.867-.938L23.5,27.97c.15-.093.292-.2.438-.3.107-.072.215-.141.319-.216.344-.246.679-.5,1-.778q.375-.325.72-.668l1.695,5.1A1.493,1.493,0,0,1,26.726,32.984Zm-1.02-8.877,0,0a12.25,12.25,0,0,1-1.423,1.45,12.106,12.106,0,0,1-2.038,1.431,12.609,12.609,0,0,1-12.365,0,12.31,12.31,0,0,1-3.328-2.722c-.039-.044-.074-.084-.107-.129h0l-.024-.03A12.624,12.624,0,0,1,7.841,6.537a12.473,12.473,0,0,1,8.2-3.06q.466,0,.934.034a12.491,12.491,0,0,1,8.6,4.318c.143.165.269.338.4.508L22.91,10.443c-.051-.061-.1-.126-.147-.187A8.856,8.856,0,1,0,9.238,21.693c.039.053.079.1.121.147a8.667,8.667,0,0,0,2.347,1.92,8.885,8.885,0,0,0,8.707,0,8.6,8.6,0,0,0,1.441-1.012,8.688,8.688,0,0,0,1-1.024,8.8,8.8,0,0,0,.9-10.067L26.82,9.551a12.488,12.488,0,0,1-1.114,14.557Zm-7.956-6.65,0,0a2.165,2.165,0,0,1-.249.253,2.125,2.125,0,0,1-.356.249,2.208,2.208,0,0,1-2.168,0,2.2,2.2,0,1,1,2.376-3.7L15.642,15.44a.74.74,0,1,0,.838,1.219l1.7-1.172A2.178,2.178,0,0,1,17.75,17.458Zm.848-4.051a3.67,3.67,0,0,0-5.377,4.98l.056.068a3.615,3.615,0,0,0,.974.8,3.692,3.692,0,0,0,3.618,0,3.668,3.668,0,0,0,1.576-4.632L22.527,12.5a7.326,7.326,0,0,1-.805,8.276l0,0a7.2,7.2,0,0,1-.835.85,7.107,7.107,0,0,1-1.2.839,7.4,7.4,0,0,1-7.258,0,7.218,7.218,0,0,1-1.951-1.6l-.079-.095a7.41,7.41,0,0,1,.837-10.313,7.318,7.318,0,0,1,4.812-1.8c.182,0,.365.007.548.02a7.331,7.331,0,0,1,5.047,2.534c.016.019.03.039.046.059ZM30.684,7.539A1.213,1.213,0,0,1,29,7.227l-.033-.048h0l-.033-.048a1.214,1.214,0,0,1,.312-1.687L31.3,4.029l1.441,2.1Z" transform="translate(194.979 280.503)" fill="#292775" stroke="#292775" stroke-width="0.25"/>
  </g>
</svg>
