<svg xmlns="http://www.w3.org/2000/svg" width="100" height="100" viewBox="0 0 100 100">
  <g id="Group_3236" data-name="Group 3236" transform="translate(-257 -1749)">
    <rect id="Rectangle_1634" data-name="Rectangle 1634" width="100" height="100" transform="translate(257 1749)" fill="rgba(255,255,255,0)"/>
    <g id="Group_3234" data-name="Group 3234">
      <g id="Ellipse_157" data-name="Ellipse 157" transform="translate(291 1786)" fill="rgba(255,255,255,0)" stroke="#292775" stroke-width="2">
        <circle cx="14.5" cy="14.5" r="14.5" stroke="none"/>
        <circle cx="14.5" cy="14.5" r="13.5" fill="none"/>
      </g>
      <g id="Intersection_1" data-name="Intersection 1" transform="translate(295.734 1801.545)" fill="rgba(255,255,255,0)">
        <path d="M 9.697757720947266 12.29541492462158 C 6.547107219696045 12.29541492462158 3.527753353118896 11.19119548797607 1.129892706871033 9.174166679382324 C 1.810322761535645 6.887394428253174 3.005403518676758 4.857729434967041 4.532247543334961 3.410945177078247 C 6.196767807006836 1.83369505405426 8.159497261047363 1.000005125999451 10.20824718475342 1.000005125999451 C 12.15360736846924 1.000005125999451 14.03369808197021 1.757525086402893 15.64524745941162 3.190685033798218 C 17.13639259338379 4.516754627227783 18.30776214599609 6.328178882598877 19.05447578430176 8.45496940612793 C 17.9090747833252 9.587498664855957 16.5855598449707 10.49226665496826 15.11280727386475 11.14861488342285 C 13.40530776977539 11.90957546234131 11.58341789245605 12.29541492462158 9.697757720947266 12.29541492462158 Z" stroke="none"/>
        <path d="M 9.697757720947266 11.29541492462158 C 11.44225788116455 11.29541492462158 13.12718772888184 10.9387149810791 14.70573806762695 10.23521518707275 C 15.87154865264893 9.715663909912109 16.93635940551758 9.027689933776855 17.88346862792969 8.183245658874512 C 17.19402503967285 6.477901458740234 16.20334434509277 5.025222301483154 14.9807071685791 3.93793511390686 C 13.55508804321289 2.670135021209717 11.90479755401611 2.000005006790161 10.20824718475342 2.000005006790161 C 8.420217514038086 2.000005006790161 6.695337772369385 2.738905191421509 5.220067501068115 4.136825084686279 C 3.960696458816528 5.330153942108154 2.944639921188354 6.965150833129883 2.294051885604858 8.823302268981934 C 4.420547962188721 10.42495632171631 7.007355213165283 11.29541492462158 9.697757720947266 11.29541492462158 M 9.697757720947266 13.29541492462158 C 5.956787586212158 13.29541492462158 2.550537586212158 11.86035537719727 -0.0002423828118480742 9.511235237121582 C 1.404787659645081 3.989745140075684 5.444337844848633 5.078125013824319e-06 10.20824718475342 5.078125013824319e-06 C 14.74145793914795 5.078125013824319e-06 18.61742782592773 3.610355138778687 20.19335746765137 8.716304779052734 C 17.57861709594727 11.53271484375 13.84399795532227 13.29541492462158 9.697757720947266 13.29541492462158 Z" stroke="none" fill="#292775"/>
      </g>
      <g id="Ellipse_151" data-name="Ellipse 151" transform="translate(319 1777)" fill="rgba(255,255,255,0)" stroke="#292775" stroke-width="2">
        <circle cx="5" cy="5" r="5" stroke="none"/>
        <circle cx="5" cy="5" r="4" fill="none"/>
      </g>
      <g id="Ellipse_152" data-name="Ellipse 152" transform="translate(318 1811)" fill="#292775" stroke="#292775" stroke-width="2">
        <circle cx="5.5" cy="5.5" r="5.5" stroke="none"/>
        <circle cx="5.5" cy="5.5" r="4.5" fill="none"/>
      </g>
      <g id="Ellipse_153" data-name="Ellipse 153" transform="translate(286 1813)" fill="#fff" stroke="#292775" stroke-width="2">
        <circle cx="3" cy="3" r="3" stroke="none"/>
        <circle cx="3" cy="3" r="2" fill="none"/>
      </g>
      <g id="Ellipse_154" data-name="Ellipse 154" transform="translate(286 1781)" fill="#ff8000" stroke="#292775" stroke-width="2">
        <circle cx="3.5" cy="3.5" r="3.5" stroke="none"/>
        <circle cx="3.5" cy="3.5" r="2.5" fill="none"/>
      </g>
      <line id="Line_139" data-name="Line 139" x2="5.229" y2="4.779" transform="translate(291.509 1787.051)" fill="none" stroke="#292775" stroke-width="2"/>
      <line id="Line_140" data-name="Line 140" y1="5.833" x2="6.481" transform="translate(290.257 1809.361)" fill="none" stroke="#292775" stroke-width="2"/>
      <line id="Line_141" data-name="Line 141" x1="5.833" y1="5.185" transform="translate(314.842 1808.439)" fill="none" stroke="#292775" stroke-width="2"/>
      <line id="Line_142" data-name="Line 142" x1="7.13" y2="7.13" transform="translate(314.194 1784.458)" fill="none" stroke="#292775" stroke-width="2"/>
      <g id="Ellipse_155" data-name="Ellipse 155" transform="translate(301 1794)" fill="#ff8000" stroke="#292775" stroke-width="2">
        <circle cx="5" cy="5" r="5" stroke="none"/>
        <circle cx="5" cy="5" r="4" fill="none"/>
      </g>
    </g>
  </g>
</svg>
