<svg xmlns="http://www.w3.org/2000/svg" xmlns:xlink="http://www.w3.org/1999/xlink" width="112" height="112" viewBox="0 0 112 112">
  <defs>
    <clipPath id="clip-Web_1920_1">
      <rect width="112" height="112"/>
    </clipPath>
  </defs>
  <g id="Web_1920_1" data-name="Web 1920 – 1" clip-path="url(#clip-Web_1920_1)">
    <g id="g10" transform="translate(-175.702 704.541)">
      <g id="g1068" transform="translate(193.385 -692.585)">
        <g id="g5524" transform="translate(0 55.176)">
          <path id="path5526" d="M-4.366-.348A4.064,4.064,0,0,0-6.173-.655H-8.209V7.009h1.19a3.026,3.026,0,0,1,.157-1.29,3.043,3.043,0,0,1,1.61-1.262A4.425,4.425,0,0,0-3.436,3.218,2.589,2.589,0,0,0-3.059,1.3,2.29,2.29,0,0,0-4.366-.348m-.059,2.93a2.927,2.927,0,0,1-1.2.882,6.225,6.225,0,0,0-1.39.843V.453H-5.89A1.558,1.558,0,0,1-4.313,1.3a1.488,1.488,0,0,1-.112,1.285" transform="translate(8.209 0.655)"/>
        </g>
        <g id="g5528" transform="translate(8.665 55.049)">
          <path id="path5530" d="M-4.466-.385A2.764,2.764,0,0,0-7.773.1a2.586,2.586,0,0,0-.619,1.576C-8.4,1.824-8.4,7.066-8.4,7.066h1.179V4.527a2.889,2.889,0,0,1,2.054.4,1.922,1.922,0,0,1,.752,1.606v.53h1.179V1.927A2.557,2.557,0,0,0-4.466-.385m-.012,4.575a3.177,3.177,0,0,0-2.741-.8V2.132a2.664,2.664,0,0,1,.054-.686A1.346,1.346,0,0,1-6.3.515a1.47,1.47,0,0,1,1.331.2A1.44,1.44,0,0,1-4.413,1.89c0,.36,0,.72,0,1.079V4.263c-.022-.024-.042-.051-.065-.074" transform="translate(8.398 0.725)"/>
        </g>
        <g id="g5532" transform="translate(17.779 55.17)">
          <path id="path5534" d="M-4.72-5.477a2.568,2.568,0,0,0-.434-.18,3.183,3.183,0,0,0,1.018-.811,2.168,2.168,0,0,0,.429-1.093,2.28,2.28,0,0,0-.875-2.154,5.059,5.059,0,0,0-3.169-.578H-8.876V-2.63h1.19c0-.227-.008-.456,0-.684a1.532,1.532,0,0,1,.69-1.266,1.652,1.652,0,0,1,1.484-.089,1.492,1.492,0,0,1,.842,1.152,5.907,5.907,0,0,1,.023.886h1.2a5.728,5.728,0,0,0-.07-1.262A2.392,2.392,0,0,0-4.72-5.477m-1.8-3.708a1.454,1.454,0,0,1,1.607,1.2,1.428,1.428,0,0,1-.313,1.1,3.348,3.348,0,0,1-1.115.725,5.473,5.473,0,0,0-1.347.825v-3.85Z" transform="translate(8.876 10.299)"/>
        </g>
        <g id="g5536" transform="translate(26.916 55.176)">
          <path id="path5538" d="M0-1.219A6.084,6.084,0,0,1,1.19-1.4v-.9H0Z" transform="translate(0 2.292)"/>
        </g>
        <g id="g5540" transform="translate(26.916 56.744)">
          <path id="path5542" d="M0-.2V5.718H1.19v-6.1A5.683,5.683,0,0,0,0-.2" transform="translate(0 0.377)"/>
        </g>
        <g id="g5544" transform="translate(31.714 55.058)">
          <path id="path5546" d="M-4.928-4.661a5.129,5.129,0,0,0-1.443-.713,3.183,3.183,0,0,1-1.351-.737.936.936,0,0,1,.079-1.245,1.315,1.315,0,0,1,1.307-.27,1.139,1.139,0,0,1,.795,1.115h1.179a2.187,2.187,0,0,0-.566-1.516,2.371,2.371,0,0,0-1.431-.71A2.614,2.614,0,0,0-8-8.455a2.2,2.2,0,0,0-1.025,1.2,2.064,2.064,0,0,0,.129,1.566A2.582,2.582,0,0,0-7.58-4.65,8.864,8.864,0,0,1-5.853-3.9a1.025,1.025,0,0,1,.434.581,1.1,1.1,0,0,1-.076.743,1.386,1.386,0,0,1-1.522.607A1.31,1.31,0,0,1-8.1-3.258H-9.267A2.281,2.281,0,0,0-8.617-1.6a2.667,2.667,0,0,0,1.672.728A2.8,2.8,0,0,0-5.1-1.332,2.115,2.115,0,0,0-4.21-2.824a2.008,2.008,0,0,0-.719-1.837" transform="translate(9.267 8.764)"/>
        </g>
        <g id="g5548" transform="translate(42.915 55.053)">
          <path id="path5550" d="M-4.808-4.854A5.037,5.037,0,0,0-4.113-5.91a2.32,2.32,0,0,0,.187-1.214A2.261,2.261,0,0,0-5.269-8.89a2.782,2.782,0,0,0-2.351.047A2.278,2.278,0,0,0-8.9-6.961a2.421,2.421,0,0,0,1,2.071l.672-.86a1.524,1.524,0,0,1-.487-.844,1.186,1.186,0,0,1,.2-.913A1.418,1.418,0,0,1-5.786-7.9a1.244,1.244,0,0,1,.627.7,1.383,1.383,0,0,1-.079.984,4,4,0,0,1-.562.822L-8.187-2.407-9.04-1.34h5.388v-1.1H-6.743Z" transform="translate(9.04 9.127)"/>
        </g>
        <g id="g5552" transform="translate(51.499 55.058)">
          <path id="path5554" d="M-7.779-1.3a4.131,4.131,0,0,0-4.554-.777A3.985,3.985,0,0,0-14.611,1.9a3.98,3.98,0,0,0,2.957,3.43A4.1,4.1,0,0,0-7.322,3.776,4,4,0,0,0-7.392-.86,3.922,3.922,0,0,0-7.779-1.3m-.265,3.908A2.82,2.82,0,0,1-10.8,4.331a2.821,2.821,0,0,1-2.487-1.993,2.886,2.886,0,0,1,1-3.1,2.781,2.781,0,0,1,3.241-.07,2.878,2.878,0,0,1,1,3.442" transform="translate(14.628 2.443)"/>
        </g>
        <g id="g5556" transform="translate(62.863 55.053)">
          <path id="path5558" d="M-4.808-4.854A5.037,5.037,0,0,0-4.113-5.91a2.32,2.32,0,0,0,.187-1.214A2.262,2.262,0,0,0-5.269-8.89a2.782,2.782,0,0,0-2.351.047A2.278,2.278,0,0,0-8.9-6.961a2.419,2.419,0,0,0,1,2.071l.672-.86a1.524,1.524,0,0,1-.487-.844,1.183,1.183,0,0,1,.2-.913A1.418,1.418,0,0,1-5.786-7.9a1.244,1.244,0,0,1,.627.7,1.383,1.383,0,0,1-.079.984,3.983,3.983,0,0,1-.563.822L-8.187-2.407-9.04-1.34h5.388v-1.1H-6.743Z" transform="translate(9.04 9.127)"/>
        </g>
        <g id="g5560" transform="translate(71.752 55.176)">
          <path id="path5562" d="M-4.246-2.33v2.6c-.567-.4-1.275-.527-1.868-.882a1.532,1.532,0,0,1-.678-1.41c0-.556,0-2.357,0-2.357H-7.983s0,1.595,0,2.393A2.582,2.582,0,0,0-7.112.152a4.771,4.771,0,0,0,1.4.7,2.6,2.6,0,0,1,1.2.716,1.494,1.494,0,0,1,.263,1v.719H-3.1V-2.33Z" transform="translate(7.984 4.381)"/>
        </g>
        <g id="g5564" transform="translate(25.208 75.504)">
          <path id="path5566" d="M-14.294-7.147A6.294,6.294,0,0,1-20.587-.854a6.292,6.292,0,0,1-6.291-6.293,6.291,6.291,0,0,1,6.291-6.292,6.293,6.293,0,0,1,6.293,6.292m-6.293-5.243A5.243,5.243,0,0,0-25.83-7.147,5.243,5.243,0,0,0-20.587-1.9a5.244,5.244,0,0,0,5.244-5.243,5.244,5.244,0,0,0-5.244-5.243" transform="translate(26.879 13.439)" fill="#fcb030"/>
        </g>
        <g id="g5568" transform="translate(38.841 75.504)">
          <path id="path5570" d="M-14.295-7.147A6.293,6.293,0,0,1-20.587-.854,6.293,6.293,0,0,1-26.88-7.147a6.292,6.292,0,0,1,6.293-6.292,6.292,6.292,0,0,1,6.293,6.292m-6.293-5.243a5.243,5.243,0,0,0-5.243,5.243A5.243,5.243,0,0,0-20.587-1.9a5.244,5.244,0,0,0,5.244-5.243,5.244,5.244,0,0,0-5.244-5.243" transform="translate(26.88 13.439)" fill="#00a652"/>
        </g>
        <g id="g5572" transform="translate(18.392 69.738)">
          <path id="path5574" d="M-7.147,0A6.291,6.291,0,0,0-13.44,6.291a6.292,6.292,0,0,0,6.293,6.292c.184,0,.364-.011.544-.026-.012-.164-.021-.331-.021-.5,0-.188.011-.37.026-.552-.181.017-.363.027-.549.027a5.242,5.242,0,0,1-5.244-5.242A5.244,5.244,0,0,1-7.147,1.046,5.244,5.244,0,0,1-1.9,6.291a5.244,5.244,0,0,1-3.612,4.982,5.353,5.353,0,0,0-.059.785c0,.109,0,.215.011.323A6.3,6.3,0,0,0-.857,6.291,6.29,6.29,0,0,0-7.147,0" transform="translate(13.44)" fill="#0082c7"/>
        </g>
        <g id="g5576" transform="translate(45.679 69.736)">
          <path id="path5578" d="M-7.122,0a6.29,6.29,0,0,0-6.27,5.791,6.128,6.128,0,0,1,1.038.179A5.244,5.244,0,0,1-7.122,1.048,5.244,5.244,0,0,1-1.878,6.291a5.242,5.242,0,0,1-5.244,5.243,5.243,5.243,0,0,1-5.184-4.457,5.306,5.306,0,0,0-1.082-.23,6.293,6.293,0,0,0,6.266,5.738A6.293,6.293,0,0,0-.83,6.291,6.292,6.292,0,0,0-7.122,0" transform="translate(13.392)" fill="#e8384f"/>
        </g>
        <g id="g5580" transform="translate(32.046 69.736)">
          <path id="path5582" d="M-7.123,0a6.292,6.292,0,0,0-6.271,5.791,6.541,6.541,0,0,1,1.039.179A5.243,5.243,0,0,1-7.123,1.048,5.243,5.243,0,0,1-1.88,6.291a5.245,5.245,0,0,1-3.611,4.983,5.453,5.453,0,0,0-.059.785c0,.109,0,.215.011.323A6.3,6.3,0,0,0-.831,6.291,6.291,6.291,0,0,0-7.123,0" transform="translate(13.395)"/>
        </g>
        <g id="g5584" transform="translate(32.051 76.584)">
          <path id="path5586" d="M-7.713-5.92c0-.188.009-.37.026-.552-.182.017-.365.027-.55.027A5.246,5.246,0,0,1-13.424-10.9a5.2,5.2,0,0,0-1.08-.23A6.292,6.292,0,0,0-8.238-5.4c.184,0,.365-.011.544-.026-.014-.164-.02-.331-.02-.5" transform="translate(14.504 11.132)"/>
        </g>
        <g id="g5588" transform="translate(33.824 41.899)">
          <path id="path5590" d="M-8.17-.173a2.813,2.813,0,0,0-2.7.494,2.813,2.813,0,0,0-2.7-.494,4.343,4.343,0,0,1-1.792.335A4.98,4.98,0,0,0-10.87,2.99,4.98,4.98,0,0,0-6.378.162,4.343,4.343,0,0,1-8.17-.173" transform="translate(15.363 0.324)" fill="#d6c278"/>
        </g>
        <g id="g5592" transform="translate(13.794)">
          <path id="path5594" d="M-27.855,0A24.524,24.524,0,0,0-52.379,24.523,24.534,24.534,0,0,0-33.475,48.4a18.392,18.392,0,0,1-7.969-24.016,11.49,11.49,0,0,0,6.352,8.223A24.533,24.533,0,0,1-27.1,3.267c-1.8,6.171.966,11.817,6.9,16.08a13.063,13.063,0,0,1,1.085,20.2,11.441,11.441,0,0,0,6.25-3.872A18.363,18.363,0,0,1-22.237,48.4a24.533,24.533,0,0,0,18.9-23.876A24.523,24.523,0,0,0-27.855,0" transform="translate(52.379)" fill="#d6c278"/>
        </g>
        <g id="g5596" transform="translate(56.201 46.588)">
          <path id="path5598" d="M0-.238H.463v1.6H.686v-1.6h.463V-.447H0ZM3.2-.447a.822.822,0,0,0-.756.4.82.82,0,0,0-.756-.4h-.12V1.366h.223V-.223H1.8a.523.523,0,0,1,.533.58V.808h.223V.357a.523.523,0,0,1,.532-.58H3.1V1.366h.223V-.447Z" transform="translate(0 0.447)" fill="#d6c278"/>
        </g>
      </g>
    </g>
  </g>
</svg>
