<svg xmlns="http://www.w3.org/2000/svg" xmlns:xlink="http://www.w3.org/1999/xlink" width="112" height="112" viewBox="0 0 112 112">
  <defs>
    <filter id="Rectangle_888" x="0" y="0" width="112" height="112" filterUnits="userSpaceOnUse">
      <feOffset dy="2" input="SourceAlpha"/>
      <feGaussianBlur stdDeviation="2" result="blur"/>
      <feFlood flood-color="#616074" flood-opacity="0.149"/>
      <feComposite operator="in" in2="blur"/>
      <feComposite in="SourceGraphic"/>
    </filter>
  </defs>
  <g id="Group_2834" data-name="Group 2834" transform="translate(-254 -402)">
    <g transform="matrix(1, 0, 0, 1, 254, 402)" filter="url(#Rectangle_888)">
      <rect id="Rectangle_888-2" data-name="Rectangle 888" width="100" height="100" transform="translate(6 4)" fill="#fff" opacity="0"/>
    </g>
    <g id="Group_2827" data-name="Group 2827">
      <rect id="Rectangle_1520" data-name="Rectangle 1520" width="11" height="6" transform="translate(310 434)" fill="#ff8000"/>
      <path id="_7192722a394a344e6cc1d93389791a89" data-name="7192722a394a344e6cc1d93389791a89" d="M23.742,28.94H34.151A1.044,1.044,0,0,0,35.192,27.9V21.654a1.044,1.044,0,0,0-1.041-1.041H23.742A1.044,1.044,0,0,0,22.7,21.654V27.9A1.044,1.044,0,0,0,23.742,28.94Zm1.041-6.245H33.11v4.163H24.783ZM13.854,42.471v3.123a1.041,1.041,0,0,1-2.082,0V42.471a1.041,1.041,0,0,1,2.082,0Zm0-8.327v3.123a1.041,1.041,0,0,1-2.082,0V34.144a1.041,1.041,0,0,1,2.082,0Zm37.991-5.256v-.208c0-.052,0-.052-.052-.1,0-.052-.052-.052-.052-.1v-.052l-4.163-7.286v-.052c0-.052-.052-.052-.052-.1l-.052-.052-.052-.052-.052-.052c-.052,0-.052-.052-.1-.052s-.052-.052-.1-.052-.052-.052-.1-.052-.052,0-.1-.052H40.4V17.49H43a1.041,1.041,0,1,0,0-2.082H29.988V12.286h9.368A1.044,1.044,0,0,0,40.4,11.245v-5.2A1.044,1.044,0,0,0,39.355,5H28.947a1.044,1.044,0,0,0-1.041,1.041v9.368H14.9a1.041,1.041,0,1,0,0,2.082h2.6v3.123H10.992c-.052,0-.052,0-.1.052-.052,0-.052,0-.1.052-.052,0-.052.052-.1.052s-.052.052-.1.052a8032.652,8032.652,0,0,1-.1.1l-.052.052c0,.052-.052.052-.052.1v.052L6.2,28.419v.052c0,.052-.052.052-.052.1s0,.052-.052.1V50.8a1.044,1.044,0,0,0,1.041,1.041H50.857A1.044,1.044,0,0,0,51.9,50.8V28.94A.051.051,0,0,1,51.845,28.888ZM38.314,10.2H29.988V7.082h8.327Zm7.7,12.49,2.966,5.2H40.4v-5.2ZM17.5,27.9H8.858l2.966-5.2H17.5ZM8.13,29.98H17.5V49.757H8.13ZM19.579,28.94V17.49H38.314V49.757H35.192V38.307a6.245,6.245,0,0,0-12.49,0V49.757H19.579Zm13.375,8.327H24.939a4.133,4.133,0,0,1,8.015,0Zm-8.171,12.49V39.348H33.11V49.757Zm24.98,0H40.4V29.98h9.368Zm-5.725-4.163V42.471a1.041,1.041,0,0,1,2.082,0v3.123a1.041,1.041,0,0,1-2.082,0Zm0-8.327V34.144a1.041,1.041,0,0,1,2.082,0v3.123a1.041,1.041,0,0,1-2.082,0Z" transform="translate(280.9 428)" fill="#292775"/>
    </g>
  </g>
</svg>
