<svg xmlns="http://www.w3.org/2000/svg" width="100" height="100" viewBox="0 0 100 100">
  <g id="Group_2905" data-name="Group 2905" transform="translate(-260 -90)">
    <rect id="Rectangle_888" data-name="Rectangle 888" width="100" height="100" transform="translate(260 90)" fill="none"/>
    <g id="Group_2904" data-name="Group 2904" transform="translate(285 115)">
      <path id="Path_5759" data-name="Path 5759" d="M46.167,2H17.033a.767.767,0,0,0-.767.767V8.9H10.133a.767.767,0,0,0-.767.767V38.8h-4.6A.767.767,0,0,0,4,39.567v3.067A5.373,5.373,0,0,0,9.367,48H36.2a3.838,3.838,0,0,0,3.833-3.833V41.1h6.133a.767.767,0,0,0,.767-.767V2.767A.767.767,0,0,0,46.167,2ZM9.367,46.467a3.838,3.838,0,0,1-3.833-3.833v-2.3H32.367v3.833a3.816,3.816,0,0,0,.072.711c.014.074.036.144.055.217a3.8,3.8,0,0,0,.141.454c.031.078.064.153.1.229a3.819,3.819,0,0,0,.217.4c.041.067.08.134.126.2.021.03.037.064.059.093Zm29.133-2.3a2.3,2.3,0,0,1-4.6,0v-4.6a.767.767,0,0,0-.767-.767H10.9V10.433H38.5Zm6.9-4.6H40.033V9.667a.767.767,0,0,0-.767-.767H17.8V3.533H45.4Z" fill="#292775"/>
      <path id="Path_5760" data-name="Path 5760" d="M36.633,18H19.767a.767.767,0,0,0-.767.767v4.6a.767.767,0,0,0,.767.767H36.633a.767.767,0,0,0,.767-.767v-4.6A.767.767,0,0,0,36.633,18Zm-.767,4.6H20.533V19.533H35.867Zm.767,4.6h-13.8a.767.767,0,0,0,0,1.533h13.8a.767.767,0,1,0,0-1.533Zm0,4.6H19.767a.767.767,0,0,0,0,1.533H36.633a.767.767,0,1,0,0-1.533Zm0,4.6H19.767a.767.767,0,1,0,0,1.533H36.633a.767.767,0,1,0,0-1.533Z" transform="translate(-3.5 -3.733)" fill="#ff8000"/>
    </g>
  </g>
</svg>
