<svg xmlns="http://www.w3.org/2000/svg" width="100" height="100" viewBox="0 0 100 100">
  <g id="Group_2903" data-name="Group 2903" transform="translate(-260 -248)">
    <rect id="Rectangle_888" data-name="Rectangle 888" width="100" height="100" transform="translate(260 248)" fill="none"/>
    <g id="Group_2902" data-name="Group 2902" transform="translate(2)">
      <g id="Group_2899" data-name="Group 2899">
        <rect id="Rectangle_1539" data-name="Rectangle 1539" width="30" height="41" rx="2" transform="translate(285 280)" fill="#fff"/>
        <g id="Group_2899-2" data-name="Group 2899" transform="translate(210 -228)">
          <g id="Group_2785" data-name="Group 2785" transform="translate(74 502)">
            <g id="fa321ee286746a4cf3ca4d4053bf5c93" transform="translate(0 0)">
              <path id="Path_5671" data-name="Path 5671" d="M96.377,71.129v37.753a1.649,1.649,0,0,0,1.649,1.648h27.189a1.649,1.649,0,0,0,1.649-1.648V71.129a1.649,1.649,0,0,0-1.649-1.648H98.026A1.649,1.649,0,0,0,96.377,71.129Z" transform="translate(-95.626 -63.283)" fill="none"/>
              <path id="Path_5672" data-name="Path 5672" d="M180.093,60.19v.865a2.865,2.865,0,0,1-2.86,2.87h-12.17a2.865,2.865,0,0,1-2.86-2.87V60.19a1.363,1.363,0,0,1,1.36-1.365h15.169A1.363,1.363,0,0,1,180.093,60.19Z" transform="translate(-155.154 -53.647)" fill="none"/>
              <path id="Path_5673" data-name="Path 5673" d="M151.82,279.779a3.016,3.016,0,1,1-3.013-3.02A3.015,3.015,0,0,1,151.82,279.779Z" transform="translate(-140.32 -250.784)" fill="none"/>
              <rect id="Rectangle_1514" data-name="Rectangle 1514" width="6.04" height="6.041" transform="translate(5.465 36.149)" fill="none"/>
              <rect id="Rectangle_1515" data-name="Rectangle 1515" width="6.04" height="6.041" transform="translate(5.465 15.574)" fill="none"/>
              <path id="Path_5674" data-name="Path 5674" d="M118.115,10.145h-4.2a2.106,2.106,0,0,0-1.8-1.017h-5.04a2.96,2.96,0,1,0-5.115,0H96.923a2.106,2.106,0,0,0-1.8,1.017h-4.2a2.4,2.4,0,0,0-2.4,2.4V50.31a2.4,2.4,0,0,0,2.4,2.4h27.192a2.4,2.4,0,0,0,2.4-2.4V12.544A2.4,2.4,0,0,0,118.115,10.145ZM103.058,7.664a1.459,1.459,0,1,1,1.463,1.463A1.461,1.461,0,0,1,103.058,7.664ZM96.311,11.24a.613.613,0,0,1,.612-.612h15.192a.613.613,0,0,1,.612.612V12.1a2.117,2.117,0,0,1-2.114,2.114H98.425A2.117,2.117,0,0,1,96.311,12.1Zm22.7,39.07a.9.9,0,0,1-.9.9H90.923a.9.9,0,0,1-.9-.9V12.544a.9.9,0,0,1,.9-.9h3.888V12.1a3.618,3.618,0,0,0,3.614,3.614h12.188a3.618,3.618,0,0,0,3.614-3.614v-.458h3.888a.9.9,0,0,1,.9.9V50.31Z" transform="translate(-88.524 -4.709)" fill="#292775" stroke="#292775" stroke-width="0.25"/>
              <path id="Path_5675" data-name="Path 5675" d="M149.17,271.489h4.012a.754.754,0,1,0,0-1.5H149.17a.754.754,0,1,0,0,1.5Zm0,3.687h7.555a.754.754,0,1,0,0-1.5H149.17a.754.754,0,1,0,0,1.5Z" transform="translate(-133.537 -241.99)" fill="#ff8000"/>
              <path id="Path_5676" data-name="Path 5676" d="M140.362,173.8C140.069,174.09,140.615,173.544,140.362,173.8Zm8.235-11.4h4.629a.751.751,0,0,0,0-1.5H148.6a.751.751,0,0,0,0,1.5Zm9.978,2.184H148.6a.751.751,0,0,0,0,1.5h9.978a.751.751,0,0,0,0-1.5Zm-13.886-4.614h-6.023a.75.75,0,0,0-.749.751v6.041a.75.75,0,0,0,.749.751h6.023a.75.75,0,0,0,.749-.751v-6.041A.751.751,0,0,0,144.689,159.967Zm-.749,6.041h-4.525V161.47h4.525Z" transform="translate(-133.19 -145.203)" fill="#292775"/>
            </g>
          </g>
          <circle id="Ellipse_19" data-name="Ellipse 19" cx="4" cy="4" r="4" transform="translate(79 529)" fill="#ff8000"/>
          <path id="Path_5756" data-name="Path 5756" d="M12.271,8.87a.41.41,0,0,1,0,.579l-2.73,2.73a.41.41,0,0,1-.579,0L7.87,11.087a.41.41,0,0,1,.579-.579l.8.8L11.692,8.87A.409.409,0,0,1,12.271,8.87Z" transform="translate(72.929 522.475)" fill="#fff" stroke="#fff" stroke-width="0.5" fill-rule="evenodd"/>
        </g>
      </g>
      <g id="Group_2901" data-name="Group 2901">
        <rect id="Rectangle_1540" data-name="Rectangle 1540" width="4" height="8" transform="translate(313 298)" fill="#fff"/>
        <g id="Group_2900" data-name="Group 2900" transform="translate(-4)">
          <path id="Path_5757" data-name="Path 5757" d="M1708.964,296.489l-5.2,5.156s-1.645,1.65-.271,3.173a2.112,2.112,0,0,0,3.373,0l5.305-5.858h0Z" transform="translate(-1390 -2.4)" fill="#fff"/>
          <path id="Path_5758" data-name="Path 5758" d="M1711.1,300.47l-8.9,10.062h-6.248s-2.338-.1-2.3,2.094,3.021,1.819,3.021,1.819h8.136l6.3-6.567Z" transform="translate(-1390)" fill="#fff"/>
          <g id="running-run-svgrepo-com" transform="translate(303 280.183)">
            <g id="Group_2898" data-name="Group 2898" transform="translate(0 7.784)">
              <g id="Group_2897" data-name="Group 2897" transform="translate(0 0)">
                <g id="Path_5754" data-name="Path 5754" transform="translate(0 -81.28)" fill="#ff8000">
                  <path d="M 22.49365043640137 118.3879776000977 C 22.05841064453125 118.3879776000977 21.72299003601074 118.3090438842773 21.33591079711914 118.1155319213867 C 20.12990188598633 117.5480422973633 19.5148754119873 116.2362594604492 19.84098434448242 114.9254684448242 L 21.02515983581543 107.2943115234375 L 17.13769912719727 103.2124252319336 L 12.43062114715576 108.2463073730469 C 12.27444076538086 108.4025573730469 12.12015056610107 108.4684524536133 11.91296100616455 108.4684524536133 L 2.654770612716675 108.4684524536133 C 1.796020746231079 108.4684524536133 1.111040711402893 108.0268249511719 0.6876206994056702 107.6563415527344 C 0.1393606960773468 107.1083221435547 -0.133659303188324 106.363410949707 -0.06507930904626846 105.6092147827148 C 0.003720693988725543 104.1632614135742 1.256630659103394 103.028076171875 2.787060737609863 103.028076171875 L 8.969672203063965 103.028076171875 L 18.88706588745117 91.93613433837891 L 17.56617736816406 91.93613433837891 L 13.2899808883667 96.47547149658203 C 12.88177108764648 96.95177459716797 12.25843048095703 97.2264404296875 11.58215045928955 97.2264404296875 C 10.90587043762207 97.2264404296875 10.28253078460693 96.95177459716797 9.871971130371094 96.47285461425781 C 9.057120323181152 95.59016418457031 9.116530418395996 94.09083557128906 10.00624084472656 93.13267517089844 L 16.09329032897949 87.31009674072266 C 16.13848114013672 87.26487731933594 16.27517127990723 87.15699005126953 16.54194068908691 87.15699005126953 L 23.75009155273438 87.15699005126953 C 24.55651092529297 87.15699005126953 25.15675163269043 87.52644348144531 25.51828002929688 87.83637237548828 L 30.34810066223145 92.335205078125 C 30.4330005645752 92.42000579833984 30.52901077270508 92.4638671875 30.62767028808594 92.4638671875 C 30.72632026672363 92.4638671875 30.82231140136719 92.42001342773438 30.90527153015137 92.33705139160156 L 34.34346008300781 88.83271026611328 C 34.76769256591797 88.40848541259766 35.3775520324707 88.16546630859375 36.01716995239258 88.16546630859375 C 36.65679168701172 88.16546630859375 37.26665115356445 88.40848541259766 37.69037246704102 88.83221435546875 L 37.75651931762695 88.89834594726562 C 38.64556121826172 89.78739166259766 38.64553070068359 91.28959655761719 37.75643920898438 92.17867279052734 L 32.06932067871094 97.86579132080078 C 31.6394100189209 98.29574584960938 31.05694007873535 98.53253173828125 30.42923164367676 98.53253173828125 C 29.80150985717773 98.53253173828125 29.21902084350586 98.29574584960938 28.78907012939453 97.86579132080078 L 25.80013084411621 94.87685394287109 L 21.54165077209473 99.13533020019531 L 26.97737121582031 104.5710525512695 C 27.12876129150391 104.722526550293 27.19771003723145 105.0132446289062 27.19771003723145 105.2192764282227 L 27.19771003723145 105.2261734008789 L 27.19645118713379 105.2329635620117 L 25.14648056030273 116.2766036987305 C 24.94509124755859 117.0829162597656 24.41127014160156 117.768684387207 23.71755027770996 118.1155319213867 C 23.3508415222168 118.2988662719727 22.95050048828125 118.3879776000977 22.49365043640137 118.3879776000977 Z M 17.1372013092041 101.4409713745117 C 17.34439086914062 101.4409713745117 17.49868011474609 101.5068740844727 17.65312004089355 101.6613159179688 L 22.34941101074219 106.5560073852539 C 22.48834991455078 106.6949157714844 22.56866073608398 106.9070739746094 22.56866073608398 107.1369552612305 L 22.56866073608398 107.1427612304688 L 22.56777000427246 107.1484909057617 L 21.31134033203125 115.2163314819336 C 21.18147087097168 115.9304733276367 21.44999122619629 116.547233581543 21.99509048461914 116.7894821166992 C 22.15386009216309 116.868782043457 22.32133102416992 116.9082412719727 22.49593162536621 116.9082412719727 C 22.67044448852539 116.9082412719727 22.85862350463867 116.8686752319336 23.05535507202148 116.7906341552734 C 23.35352897644043 116.6100387573242 23.61018371582031 116.3068084716797 23.74386787414551 115.9772567749023 L 25.71916389465332 105.3765869140625 L 20.05998992919922 99.71739196777344 C 19.84847068786621 99.50589752197266 19.77350044250488 99.35357666015625 19.77350044250488 99.13533020019531 C 19.77350044250488 98.92814636230469 19.83940124511719 98.77385711669922 19.99384117126465 98.61941528320312 L 25.28421974182129 93.32904052734375 C 25.42632102966309 93.18694305419922 25.60955047607422 93.10868072509766 25.80018043518066 93.10868072509766 C 25.99080085754395 93.10868072509766 26.17403030395508 93.18694305419922 26.31613159179688 93.32904052734375 L 29.82097053527832 96.83388519287109 C 29.96673011779785 96.97964477539062 30.17394065856934 97.05991363525391 30.4044303894043 97.05991363525391 C 30.63634490966797 97.05991363525391 30.86189842224121 96.97879028320312 31.03997802734375 96.83139801025391 L 36.724609375 91.14677429199219 C 36.86825180053711 91.00313568115234 36.95064163208008 90.79347229003906 36.95064926147461 90.57155609130859 C 36.95066070556641 90.34965515136719 36.86830139160156 90.1400146484375 36.72468185424805 89.99640655517578 L 36.65853118896484 89.93025207519531 C 36.514892578125 89.78661346435547 36.29319000244141 89.70423126220703 36.0502815246582 89.70423126220703 C 35.80736923217773 89.70423126220703 35.58567047119141 89.78661346435547 35.44202041625977 89.93025207519531 L 32.00374984741211 93.43460083007812 C 31.65227127075195 93.78608703613281 31.1591911315918 93.98737335205078 30.65044021606445 93.98737335205078 C 30.17864036560059 93.98737335205078 29.72989082336426 93.81560516357422 29.38683128356934 93.50370025634766 L 24.55873107910156 89.00626373291016 C 24.37796020507812 88.82554626464844 24.06653022766113 88.69571685791016 23.81631088256836 88.69571685791016 L 16.83667373657227 88.69571685791016 L 10.97284030914307 94.29592132568359 C 10.62205505371094 94.64675140380859 10.59492206573486 95.19863891601562 10.91038417816162 95.57982635498047 C 11.10615825653076 95.77450561523438 11.35087490081787 95.88607025146484 11.58230113983154 95.88607025146484 C 11.82196044921875 95.88607025146484 12.06265068054199 95.76661682128906 12.18122100830078 95.58880615234375 L 12.18474102020264 95.58352661132812 L 12.18909072875977 95.57891082763672 L 16.6859302520752 90.81756591796875 C 16.83880996704102 90.66464233398438 17.06099128723145 90.59569549560547 17.20335006713867 90.59569549560547 L 20.50983047485352 90.59569549560547 C 20.78583145141602 90.59569549560547 21.09940147399902 90.73595428466797 21.17777061462402 91.04930114746094 C 21.26473045349121 91.3974609375 21.21500015258789 91.65868377685547 21.02574157714844 91.84793090820312 L 9.786581039428711 104.4095153808594 L 9.764220237731934 104.4345016479492 L 9.730690956115723 104.4345016479492 C 9.679590225219727 104.4345016479492 9.625471115112305 104.4466705322266 9.562810897827148 104.4607543945312 C 9.479630470275879 104.4794540405273 9.385340690612793 104.5006561279297 9.267810821533203 104.5006561279297 L 2.787140607833862 104.5006561279297 C 2.013380765914917 104.5006561279297 1.407270669937134 105.0196075439453 1.407270669937134 105.6820831298828 C 1.407270669937134 106.0293350219727 1.512393832206726 106.3464584350586 1.719751715660095 106.6247406005859 C 1.967898368835449 106.870964050293 2.282466650009155 106.9958038330078 2.654840707778931 106.9958038330078 L 11.61596965789795 106.9958038330078 L 16.61264038085938 101.6704635620117 C 16.70520401000977 101.5015258789062 16.94286155700684 101.4409713745117 17.1372013092041 101.4409713745117 Z" stroke="none"/>
                  <path d="M 16.54194068908691 87.23199462890625 C 16.34358024597168 87.23199462890625 16.21128082275391 87.29814147949219 16.1451301574707 87.36428070068359 L 10.06120109558105 93.18370056152344 C 9.201511383056641 94.10954284667969 9.135360717773438 95.56434631347656 9.928911209106445 96.42404174804688 C 10.32571983337402 96.88691711425781 10.92082023620605 97.15144348144531 11.58215141296387 97.15144348144531 C 12.24347114562988 97.15144348144531 12.83858108520508 96.88691711425781 13.23539161682129 96.42404174804688 L 17.53379058837891 91.86113739013672 L 19.05473136901855 91.86113739013672 L 9.003210067749023 103.1030731201172 L 2.787059783935547 103.1030731201172 C 1.266120910644531 103.1030731201172 0.0757598876953125 104.2272872924805 0.009609222412109375 105.6160049438477 C -0.05653762817382812 106.3434066772461 0.2079811096191406 107.0708770751953 0.7370109558105469 107.5999069213867 C 1.266040802001953 108.0627975463867 1.927371978759766 108.3934555053711 2.654769897460938 108.3934555053711 L 11.91296005249023 108.3934555053711 C 12.11133003234863 108.3934555053711 12.24361991882324 108.3273010253906 12.37584114074707 108.1950836181641 L 17.1372013092041 103.103157043457 L 21.10493087768555 107.2693252563477 L 19.91456985473633 114.9403457641602 C 19.58390998840332 116.2629165649414 20.24524116516113 117.5194244384766 21.36945152282715 118.048454284668 C 21.76626014709473 118.246826171875 22.09683990478516 118.3129730224609 22.49365043640137 118.3129730224609 C 22.89046096801758 118.3129730224609 23.28720092773438 118.246826171875 23.68400955200195 118.048454284668 C 24.34534072875977 117.7177963256836 24.87437057495117 117.0565414428711 25.07274055480957 116.2629165649414 L 27.12271118164062 105.2192611694336 C 27.12271118164062 105.0208969116211 27.05657196044922 104.7563858032227 26.92433929443359 104.6240844726562 L 21.43559074401855 99.13533020019531 L 25.80013084411621 94.77079010009766 L 28.84210205078125 97.81276702880859 C 29.70178985595703 98.67243957519531 31.15666961669922 98.67243957519531 32.01628875732422 97.81276702880859 L 37.70341110229492 92.12564086914062 C 38.56317138671875 91.26586151123047 38.56317138671875 89.81107330322266 37.7034912109375 88.95138549804688 L 37.6373405456543 88.88523101806641 C 36.77764129638672 88.02555084228516 35.25669860839844 88.02555084228516 34.39699935913086 88.88523101806641 L 30.95830154418945 92.39008331298828 C 30.75992965698242 92.58844757080078 30.49542236328125 92.58844757080078 30.29698181152344 92.39008331298828 L 25.4694709777832 87.893310546875 C 25.006591796875 87.49650573730469 24.41141128540039 87.23199462890625 23.75008010864258 87.23199462890625 L 16.54194068908691 87.23199462890625 M 30.65043830871582 93.91237640380859 C 31.12836456298828 93.91237640380859 31.60304260253906 93.72924041748047 31.95021057128906 93.38207244873047 L 35.38899230957031 89.87722015380859 C 35.71965026855469 89.54656219482422 36.38090133666992 89.54656219482422 36.71157073974609 89.87722015380859 L 36.7777099609375 89.94337463378906 C 37.10831069946289 90.27395629882812 37.10831069946289 90.869140625 36.77764129638672 91.19979095458984 L 31.09052085876465 96.88691711425781 C 30.69371032714844 97.21757507324219 30.09860992431641 97.21757507324219 29.76794052124023 96.88691711425781 L 26.26309204101562 93.38207244873047 C 25.99857902526855 93.11756134033203 25.60177040100098 93.11756134033203 25.33724975585938 93.38207244873047 L 20.04687118530273 98.67245483398438 C 19.91456985473633 98.80474090576172 19.84850120544434 98.93697357177734 19.84850120544434 99.13533020019531 C 19.84850120544434 99.33371734619141 19.91464996337891 99.46600341796875 20.1130199432373 99.66436004638672 L 25.80013084411621 105.3514938354492 L 23.81623077392578 115.9983367919922 C 23.68394088745117 116.3289947509766 23.41942024230957 116.6596603393555 23.08883094787598 116.858024597168 C 22.75817108154297 116.9903259277344 22.36142730712891 117.0563888549805 21.96463012695312 116.858024597168 C 21.36945152282715 116.5935134887695 21.10493087768555 115.9321823120117 21.23723030090332 115.2047958374023 L 22.49365997314453 107.1369552612305 C 22.49365997314453 106.9385833740234 22.42751121520996 106.7401428222656 22.29528999328613 106.6079254150391 L 17.6000804901123 101.7143402099609 C 17.4677906036377 101.5820465087891 17.3355712890625 101.5159759521484 17.1372013092041 101.5159759521484 C 16.9388313293457 101.5159759521484 16.74039077758789 101.5821228027344 16.6743106842041 101.7143402099609 L 11.64844131469727 107.07080078125 L 2.654842376708984 107.07080078125 C 2.258029937744141 107.07080078125 1.927440643310547 106.9385070800781 1.662929534912109 106.6739959716797 C 1.464561462402344 106.4094772338867 1.332271575927734 106.0788116455078 1.332271575927734 105.6820831298828 C 1.332271575927734 104.9546813964844 1.99359130859375 104.425651550293 2.787139892578125 104.425651550293 L 9.267810821533203 104.425651550293 C 9.466171264648438 104.425651550293 9.598470687866211 104.359504699707 9.730690002441406 104.359504699707 L 20.97271156311035 91.79490661621094 C 21.17108154296875 91.59654235839844 21.17108154296875 91.33201599121094 21.10501098632812 91.0675048828125 C 21.03886032104492 90.80299377441406 20.77434158325195 90.67069244384766 20.50983047485352 90.67069244384766 L 17.20335006713867 90.67069244384766 C 17.0710506439209 90.67069244384766 16.8726806640625 90.73683166503906 16.7404613494873 90.86906433105469 L 12.24361991882324 95.63041687011719 C 12.11133003234863 95.82878112792969 11.84681129455566 95.96107482910156 11.58230018615723 95.96107482910156 C 11.31778144836426 95.96107482910156 11.05327033996582 95.82878112792969 10.85490036010742 95.63041687011719 C 10.52423095703125 95.23360443115234 10.52423095703125 94.63850402832031 10.92104148864746 94.24168395996094 L 16.80661010742188 88.62071228027344 L 23.81631088256836 88.62071228027344 C 24.0808219909668 88.62071228027344 24.41149139404297 88.75300598144531 24.6098518371582 88.95138549804688 L 29.43728065490723 93.44821166992188 C 29.78282165527344 93.76236724853516 30.21796417236328 93.91237640380859 30.65043830871582 93.91237640380859 M 16.54194068908691 87.08199310302734 L 23.75008010864258 87.08199310302734 C 24.57944107055664 87.08199310302734 25.19594955444336 87.46126556396484 25.56710052490234 87.77943420410156 L 25.57171058654785 87.78355407714844 L 30.40302085876465 92.28399658203125 C 30.540283203125 92.42118072509766 30.71502304077148 92.42119598388672 30.85224151611328 92.28401184082031 L 34.28993225097656 88.78018188476562 C 34.72862243652344 88.34148406982422 35.3577995300293 88.09046173095703 36.01716995239258 88.09046173095703 C 36.67654037475586 88.09046173095703 37.30572128295898 88.34148406982422 37.74341201782227 88.77916717529297 L 37.8095588684082 88.84531402587891 C 38.72732925415039 89.76309204101562 38.72729110717773 91.31387329101562 37.80947875976562 92.23170471191406 L 32.12236022949219 97.91883087158203 C 31.67827033996582 98.36294555664062 31.07697105407715 98.60753631591797 30.42922210693359 98.60753631591797 C 29.78147125244141 98.60753631591797 29.18015098571777 98.36294555664062 28.73603057861328 97.91883087158203 L 25.80013084411621 94.98293304443359 L 21.64772987365723 99.13533020019531 L 27.03041076660156 104.5180130004883 C 27.19779968261719 104.6854934692383 27.2727108001709 104.9908828735352 27.2727108001709 105.2192611694336 L 27.2727108001709 105.2330627441406 L 25.21826171875 116.2992858886719 C 25.01261138916016 117.1220550537109 24.46414184570312 117.8261032104492 23.75109100341797 118.1826171875 C 23.37372207641602 118.3712768554688 22.96240997314453 118.4629745483398 22.49365043640137 118.4629745483398 C 22.04584121704102 118.4629745483398 21.7007007598877 118.3817520141602 21.30238151550293 118.1826248168945 C 20.06614112854004 117.6009216308594 19.43430709838867 116.2556381225586 19.76736640930176 114.9107360839844 L 20.94537734985352 107.3192901611328 L 17.13819885253906 103.3217010498047 L 12.48191070556641 108.301155090332 C 12.3143310546875 108.4687271118164 12.13886070251465 108.54345703125 11.91296005249023 108.54345703125 L 2.654769897460938 108.54345703125 C 1.772731781005859 108.54345703125 1.071331024169922 108.0917358398438 0.6382408142089844 107.7127914428711 L 0.6309394836425781 107.7059707641602 C 0.07131576538085938 107.1463470458984 -0.2095947265625 106.3810424804688 -0.1400680541992188 105.6057434082031 C -0.06754684448242188 104.1179428100586 1.217586517333984 102.9530715942383 2.787059783935547 102.9530715942383 L 8.936113357543945 102.9530715942383 L 18.71940040588379 92.01113128662109 L 17.59855461120605 92.01113128662109 L 13.34702682495117 96.52428436279297 C 12.92217445373535 97.01821136474609 12.27911567687988 97.30144500732422 11.58215141296387 97.30144500732422 C 10.8848876953125 97.30144500732422 10.24162292480469 97.01802062988281 9.816776275634766 96.52370452880859 C 8.976064682006836 95.61055755615234 9.036191940307617 94.06713104248047 9.95128059387207 93.08163452148438 L 9.957521438598633 93.07530212402344 L 16.04145050048828 87.25588226318359 C 16.15108108520508 87.14622497558594 16.33436012268066 87.08199310302734 16.54194068908691 87.08199310302734 Z M 30.65044021606445 94.06237030029297 C 30.15994071960449 94.06237030029297 29.69326019287109 93.88367462158203 29.33637046813965 93.5592041015625 L 24.50378036499023 89.05744171142578 C 24.33765029907227 88.89130401611328 24.04853057861328 88.77071380615234 23.81631088256836 88.77071380615234 L 16.86673545837402 88.77071380615234 L 11.0246410369873 94.35016632080078 C 10.7034969329834 94.67137145996094 10.67764091491699 95.17803955078125 10.96579360961914 95.52913665771484 C 11.14716911315918 95.70839691162109 11.37151908874512 95.81107330322266 11.58230018615723 95.81107330322266 C 11.79795074462891 95.81107330322266 12.01357078552246 95.70502471923828 12.11883163452148 95.54719543457031 L 12.13457107543945 95.52742004394531 L 16.63141059875488 90.76607513427734 C 16.80176162719727 90.59561157226562 17.04075050354004 90.52069091796875 17.20335006713867 90.52069091796875 L 20.50983047485352 90.52069091796875 C 20.87651062011719 90.52069091796875 21.17418098449707 90.72581481933594 21.25053024291992 91.03111267089844 C 21.34394454956055 91.40509796142578 21.28878784179688 91.68864440917969 21.08193397521973 91.89779663085938 L 9.797760009765625 104.5095062255859 L 9.730690002441406 104.5095062255859 C 9.687910079956055 104.5095062255859 9.63755989074707 104.5208206176758 9.579259872436523 104.533935546875 C 9.496570587158203 104.5525207519531 9.393671035766602 104.5756530761719 9.267810821533203 104.5756530761719 L 2.787139892578125 104.5756530761719 C 2.055438995361328 104.5756530761719 1.482269287109375 105.061653137207 1.482269287109375 105.6820831298828 C 1.482269287109375 106.0109252929688 1.581249237060547 106.311393737793 1.776493072509766 106.5753555297852 C 2.012538909912109 106.8077774047852 2.299976348876953 106.9208068847656 2.654842376708984 106.9208068847656 L 11.58348846435547 106.9208068847656 L 16.55181503295898 101.6256713867188 C 16.66310882568359 101.4347076416016 16.92436981201172 101.3659744262695 17.1372013092041 101.3659744262695 C 17.36617088317871 101.3659744262695 17.53632164001465 101.4384460449219 17.70615005493164 101.608283996582 L 22.40353012084961 106.5040740966797 C 22.55533981323242 106.6558456420898 22.64366149902344 106.887336730957 22.64366149902344 107.1369552612305 L 22.64187049865723 107.1600341796875 L 21.38544082641602 115.2278747558594 C 21.26167106628418 115.9086532592773 21.51317977905273 116.4932403564453 22.02555084228516 116.7209548950195 L 22.03170013427734 116.7238540649414 C 22.3224983215332 116.8692245483398 22.65087127685547 116.8690414428711 23.0218677520752 116.7232131958008 C 23.30232238769531 116.5516052246094 23.54380416870117 116.2663879394531 23.67154693603516 115.9559555053711 L 25.6381950378418 105.4016952514648 L 20.00695037841797 99.77043151855469 C 19.77922058105469 99.54270172119141 19.69850158691406 99.37651062011719 19.69850158691406 99.13533020019531 C 19.69850158691406 98.90636444091797 19.77097129821777 98.73621368408203 19.94081115722656 98.56638336181641 L 25.23118209838867 93.2760009765625 C 25.387451171875 93.11974334716797 25.58951950073242 93.03368377685547 25.8001708984375 93.03368377685547 C 26.01082038879395 93.03368377685547 26.212890625 93.11974334716797 26.36915969848633 93.2760009765625 L 29.8740119934082 96.78084564208984 C 30.00559997558594 96.91244506835938 30.1939697265625 96.98491668701172 30.4044303894043 96.98491668701172 C 30.61771011352539 96.98491668701172 30.82518768310547 96.91072082519531 30.98941421508789 96.77587890625 L 36.67156982421875 91.09372711181641 C 36.80126190185547 90.96404266357422 36.87564086914062 90.77372741699219 36.87565231323242 90.57155609130859 C 36.87565994262695 90.36939239501953 36.80130004882812 90.17909240722656 36.67164993286133 90.04944610595703 L 36.60549926757812 89.98328399658203 C 36.47581100463867 89.85360717773438 36.27344131469727 89.77922058105469 36.0502815246582 89.77922058105469 C 35.82711029052734 89.77922058105469 35.62474060058594 89.85360717773438 35.49505996704102 89.98329162597656 L 32.05728149414062 93.48712158203125 C 31.69134140014648 93.85307312011719 31.17893028259277 94.06237030029297 30.65044021606445 94.06237030029297 Z" stroke="none" fill="#ff8000"/>
                </g>
                <g id="Path_5755" data-name="Path 5755" transform="translate(-326.774 -7.784)" fill="#ff8000">
                  <path d="M 357.2037963867188 15.79454040527344 C 354.9745788574219 15.79454040527344 353.1610107421875 13.98097991943359 353.1610107421875 11.75181007385254 C 353.1610107421875 9.522600173950195 354.9745788574219 7.709000110626221 357.2037963867188 7.709000110626221 C 359.4330139160156 7.709000110626221 361.2466125488281 9.522560119628906 361.2466125488281 11.75172996520996 C 361.2466125488281 13.9809398651123 359.4330139160156 15.79454040527344 357.2037963867188 15.79454040527344 Z M 357.2037963867188 9.18157958984375 C 355.78662109375 9.18157958984375 354.6336669921875 10.33454036712646 354.6336669921875 11.75172996520996 C 354.6336669921875 13.16891956329346 355.78662109375 14.32188987731934 357.2037963867188 14.32188987731934 C 358.6210021972656 14.32188987731934 359.7739562988281 13.16891956329346 359.7739562988281 11.75172996520996 C 359.7739562988281 10.33454036712646 358.6210021972656 9.18157958984375 357.2037963867188 9.18157958984375 Z" stroke="none"/>
                  <path d="M 357.2037963867188 15.71953964233398 C 359.3860778808594 15.71953964233398 361.171630859375 13.93408012390137 361.171630859375 11.75172996520996 C 361.171630859375 9.569390296936035 359.3860778808594 7.783999919891357 357.2037963867188 7.783999919891357 C 355.0215454101562 7.783999919891357 353.2359924316406 9.569459915161133 353.2359924316406 11.75181007385254 C 353.2359924316406 13.93414974212646 355.0215454101562 15.71953964233398 357.2037963867188 15.71953964233398 M 357.2037963867188 9.106579780578613 C 358.6586608886719 9.106579780578613 359.8489685058594 10.29693031311035 359.8489685058594 11.75172996520996 C 359.8489685058594 13.20660972595215 358.6585693359375 14.39688968658447 357.2037963867188 14.39688968658447 C 355.7490234375 14.39688968658447 354.5586547851562 13.20652961730957 354.5586547851562 11.75172996520996 C 354.5586547851562 10.29693031311035 355.7490234375 9.106579780578613 357.2037963867188 9.106579780578613 M 357.2037963867188 15.86954021453857 C 354.9332275390625 15.86954021453857 353.0859985351562 14.02233028411865 353.0859985351562 11.75181007385254 C 353.0859985351562 9.481240272521973 354.9332275390625 7.633999824523926 357.2037963867188 7.633999824523926 C 359.474365234375 7.633999824523926 361.3216247558594 9.481209754943848 361.3216247558594 11.75172996520996 C 361.3216247558594 14.02229976654053 359.474365234375 15.86954021453857 357.2037963867188 15.86954021453857 Z M 357.2037963867188 9.256580352783203 C 355.8279724121094 9.256580352783203 354.7086486816406 10.37590026855469 354.7086486816406 11.75172996520996 C 354.7086486816406 13.12757015228271 355.8279724121094 14.2468900680542 357.2037963867188 14.2468900680542 C 358.5796508789062 14.2468900680542 359.698974609375 13.12757015228271 359.698974609375 11.75172996520996 C 359.698974609375 10.37590026855469 358.5796508789062 9.256580352783203 357.2037963867188 9.256580352783203 Z" stroke="none" fill="#ff8000"/>
                </g>
              </g>
            </g>
          </g>
        </g>
      </g>
    </g>
  </g>
</svg>
