<svg xmlns="http://www.w3.org/2000/svg" width="100" height="100" viewBox="0 0 100 100">
  <g id="Group_3252" data-name="Group 3252" transform="translate(-15 -2255)">
    <rect id="Rectangle_1633" data-name="Rectangle 1633" width="100" height="100" transform="translate(15 2255)" fill="rgba(255,255,255,0)"/>
    <g id="demonstration" transform="translate(35.628 2260.051)">
      <path id="Path_6476" data-name="Path 6476" d="M-95.13-.782a5.565,5.565,0,0,1,.5.435l.258.238c.18.171.357.343.531.519l-.281.106A9.376,9.376,0,0,0-99.628,5.25c-.344.782-.657,1.576-.971,2.37q-.157.4-.315.793-.67,1.68-1.331,3.363-.313.795-.635,1.586-.172.422-.341.845c-.075.184-.151.367-.228.551a3.182,3.182,0,0,0-.245,2.353,1.2,1.2,0,0,0,.514.493,2.181,2.181,0,0,0,.429-.019l.229-.017a1.489,1.489,0,0,0,.9-.727l.153-.317.087-.181c.44-.928.822-1.883,1.213-2.833l.26-.628.4-.967q.638-1.543,1.285-3.082l.345-.823.211-.5.095-.226q.274-.653.554-1.3h.1c0,.068,0,.136,0,.206q.009,2.486.023,4.972.007,1.2.011,2.4,0,1.048.01,2.1,0,.555,0,1.11c0,.413,0,.826.007,1.239,0,.122,0,.245,0,.371a2.166,2.166,0,0,0,.559,1.739,3.738,3.738,0,0,0,2.1.4h.3q.49,0,.981,0h2.12q.917,0,1.834,0,.707,0,1.415,0h.676q.473,0,.947,0l.279,0a2.78,2.78,0,0,0,1.811-.471,2.1,2.1,0,0,0,.565-1.5c0-.107,0-.214,0-.324,0-.174,0-.174,0-.352,0-.123,0-.246,0-.373q0-.505.006-1.011,0-.529.007-1.057.007-1,.012-2,.006-1.139.014-2.279.016-2.343.027-4.686a3.344,3.344,0,0,1,.645.806l.136.242.145.263c.506.9,1.03,1.789,1.564,2.673q.535.886,1.055,1.781l.117.2q.284.489.566.979l.206.355.183.316c.132.246.132.246.353.336a1.579,1.579,0,0,0,1.391-.4c.231-.252.435-.521.64-.8l.181-.238q.287-.377.57-.756l.187-.249q.373-.5.746-1,.627-.839,1.272-1.662c.592-.758,1.177-1.52,1.747-2.295.107-.144.218-.284.329-.424a1.964,1.964,0,0,0,.441-1.484,1.021,1.021,0,0,0-.549-.742,1.192,1.192,0,0,0-.882-.012,9.216,9.216,0,0,0-1.994,2.288c-.316.425-.642.842-.97,1.257q-.4.5-.791,1.012l-.189.244-.365.474-.169.219-.149.194a7.569,7.569,0,0,1-.553.585c-.465-.653-.908-1.316-1.335-1.994l-.367-.578-.385-.608C-80.211,6.229-81,5-81.825,3.784l-.182-.267q-.249-.362-.5-.721l-.153-.224c-.85-1.2-2.387-1.606-3.723-2.062l.5-.5.22-.226.215-.209.214-.214a.73.73,0,0,1,.573-.142,5.308,5.308,0,0,1,1.157.462l.212.108a6.739,6.739,0,0,1,1.882,1.414l.193.2a14.2,14.2,0,0,1,1.5,1.952l.209.317c.515.787,1.011,1.582,1.481,2.4l.113.2q.343.6.682,1.195c.424-.141.587-.458.839-.808l.321-.436L-75.915,6c.35-.467.718-.919,1.085-1.372.169-.208.332-.418.493-.633a3.37,3.37,0,0,1,2.264-1.5,3.288,3.288,0,0,1,2.112.54,2.8,2.8,0,0,1,1,1.752,4.455,4.455,0,0,1-1.224,3.472l-.283.372q-.324.425-.65.849-.57.742-1.135,1.487l-.2.264-1.24,1.629-.407.533c-.285.373-.57.747-.845,1.127a4.121,4.121,0,0,1-2.1,1.69,3.316,3.316,0,0,1-2.485-.5,3.616,3.616,0,0,1-.712-.9l-.17-.291-.174-.3-.346-.594-.153-.265c-.106-.179-.218-.354-.334-.526l0,.239q-.009,1.119-.022,2.237-.007.575-.011,1.15,0,.556-.012,1.112,0,.211,0,.422a4.523,4.523,0,0,1-.944,3.19,3.642,3.642,0,0,1-2.87,1.034l-.351,0c-.382,0-.764,0-1.145,0h-.6q-.938,0-1.875,0-.964,0-1.928,0-.831,0-1.661,0-.495,0-.99,0c-.368,0-.736,0-1.1,0l-.327,0a3.581,3.581,0,0,1-2.555-1.047,3.867,3.867,0,0,1-.836-2.745l-.006-.331q-.009-.521-.015-1.042-.006-.354-.012-.709-.014-.866-.026-1.732l-.1.252q-.187.469-.377.936-.081.2-.161.4a4.97,4.97,0,0,1-2.418,3.024,3.035,3.035,0,0,1-2.205-.012,3.322,3.322,0,0,1-1.508-1.691,4.556,4.556,0,0,1-.138-1.154l-.012-.208a6.61,6.61,0,0,1,.658-2.445l.083-.213c.2-.519.41-1.035.619-1.551l.42-1.042.112-.278c.3-.755.6-1.512.893-2.27l.415-1.062q.134-.345.267-.691A14.275,14.275,0,0,1-99.5,1.9l.131-.146C-98.638.95-96.314-1.338-95.13-.782Z" transform="translate(105 47.465)" fill="#292775"/>
      <path id="Path_6477" data-name="Path 6477" d="M-27.541-.242l.363,0H-25.2l1.251,0,2.451,0h1.992l5.65,0h.616q2.471,0,4.941,0,2.537,0,5.075,0,1.424,0,2.849,0,1.213,0,2.426,0,.619,0,1.237,0,.567,0,1.134,0c.2,0,.4,0,.6,0A3.872,3.872,0,0,1,7.36.4a3.558,3.558,0,0,1,1.1,2.8c0,.1,0,.208,0,.314q0,.522,0,1.043,0,.374,0,.748,0,.91,0,1.821,0,.74,0,1.48,0,2.1,0,4.2v.457q0,1.835,0,3.671,0,1.886,0,3.772,0,1.058,0,2.117,0,1,0,1.991,0,.365,0,.73c0,.333,0,.665,0,1,0,.144,0,.144,0,.291A3.443,3.443,0,0,1,7.534,29.2a3.521,3.521,0,0,1-2.516.818H4.709l-1.007,0H3l-1.838,0-1.877,0q-1.84,0-3.68-.01v-1.59l.36,0q1.682-.009,3.365-.022l1.73-.011q.835,0,1.67-.012l.636,0q.447,0,.893-.007h.263a2.667,2.667,0,0,0,1.86-.565,3.609,3.609,0,0,0,.38-1.952c0-.1,0-.195,0-.3q0-.488,0-.976,0-.35,0-.7,0-.951,0-1.9,0-.895,0-1.79,0-1.881,0-3.761,0-1.719,0-3.438,0-1.767,0-3.533,0-.991,0-1.982,0-.932,0-1.864,0-.342,0-.684,0-.467,0-.934c0-.09,0-.179,0-.272a2.652,2.652,0,0,0-.561-1.873,4.252,4.252,0,0,0-2.284-.38H-8.977q-2.355,0-4.71,0-2.419,0-4.838,0H-21.24q-1.156,0-2.312,0-.59,0-1.179,0-.54,0-1.08,0l-.574,0a2.909,2.909,0,0,0-2.1.561,3.46,3.46,0,0,0-.386,1.814l0,.247q0,.4-.006.8,0,.279-.006.559-.008.733-.013,1.465-.006.749-.014,1.5-.014,1.467-.026,2.934l-.571.242-.321.136a4.844,4.844,0,0,1-.7.218q-.014-1.879-.021-3.758,0-.873-.009-1.745-.007-.843-.008-1.686,0-.321,0-.642c0-.3,0-.6,0-.9l0-.265A3.26,3.26,0,0,1-29.706.632,3.121,3.121,0,0,1-27.541-.242Z" transform="translate(41.892 23.743)" fill="#292775"/>
      <path id="Path_6478" data-name="Path 6478" d="M-79.289-8.057A5.794,5.794,0,0,1-76.834-4.5a6.131,6.131,0,0,1-1.012,4.6,5.668,5.668,0,0,1-3.726,2.186c-.272.013-.542.016-.815.013l-.291,0a4.6,4.6,0,0,1-2.008-.439l-.276-.121A5.834,5.834,0,0,1-87.79-1.581a5.95,5.95,0,0,1,.222-4.008l.117-.28a5.86,5.86,0,0,1,3.592-2.919A6.038,6.038,0,0,1-79.289-8.057Zm-6.09,2.177a4.026,4.026,0,0,0-.935,2.988A3.986,3.986,0,0,0-84.76-.141a4.316,4.316,0,0,0,3.255.714,4.092,4.092,0,0,0,2.534-1.907,3.973,3.973,0,0,0,.432-2.9,4.046,4.046,0,0,0-2.1-2.588A4,4,0,0,0-85.379-5.88Z" transform="translate(97.339 45.116)" fill="#292775"/>
    </g>
    <g id="MDI_play" data-name="MDI / play" transform="translate(56.096 2286.994)">
      <g id="Boundary" fill="#ff8000" stroke="rgba(0,0,0,0)" stroke-width="1" opacity="0">
        <rect width="24" height="24" stroke="none"/>
        <rect x="0.5" y="0.5" width="23" height="23" fill="none"/>
      </g>
      <path id="Path_play" data-name="Path / play" d="M8,5.14v14l11-7Z" transform="translate(-1 -0.14)" fill="#ff8000"/>
    </g>
  </g>
</svg>
