<svg xmlns="http://www.w3.org/2000/svg" width="100" height="100" viewBox="0 0 100 100">
  <g id="Group_2927" data-name="Group 2927" transform="translate(-15 -904)">
    <rect id="Rectangle_888" data-name="Rectangle 888" width="100" height="100" transform="translate(15 904)" fill="none"/>
    <path id="e46e35d059ef5fdab52c9f8c4b69d1eb" d="M32.66,30.72h-.037l-2.241-1.57V27.442A8.761,8.761,0,0,0,34.193,22.8a4.066,4.066,0,0,0,2.4-7.2,5.249,5.249,0,0,0,.606-2.373V12.5A4.212,4.212,0,0,0,39.07,9.527l.044-.336a.73.73,0,0,0-.548-.832l-2.38-.73A5.067,5.067,0,0,0,37.2,4.65a.73.73,0,0,0-.73-.73H20.629A5.308,5.308,0,0,0,15.3,9.22v4.008a5.249,5.249,0,0,0,.577,2.373,4.074,4.074,0,0,0,2.343,7.2A8.41,8.41,0,0,0,22.1,27.486v1.665l-2.241,1.57h-.037a9.155,9.155,0,0,0-9.126,9.14v2.4a2.657,2.657,0,0,0,2.65,2.657h25.8a2.657,2.657,0,0,0,2.65-2.657v-2.4a9.155,9.155,0,0,0-9.14-9.14ZM29.74,30.5l1.672,1.168-1.971,3.446-2.19-1.869Zm6.87-11.776a2.621,2.621,0,0,1-2.022,2.548,9.06,9.06,0,0,0,.124-1.46V17.7a5.358,5.358,0,0,0,1.029-.883A2.592,2.592,0,0,1,36.61,18.726ZM16.759,9.22a3.847,3.847,0,0,1,3.869-3.84h15.01A3.65,3.65,0,0,1,34.39,7.453a6.191,6.191,0,0,1-3.475,1.27.73.73,0,1,0,0,1.46,7.49,7.49,0,0,0,4.052-1.358l2.577.73a2.767,2.767,0,0,1-1.46,1.818.73.73,0,0,0-.4.65V13.2a3.855,3.855,0,0,1-1,2.577v-.942a2.46,2.46,0,0,0-2.453-2.453h-4.38c-2.329,0-3.512-.095-4.811-2.139a.727.727,0,0,0-1.343.416c0,1.978-1.19,4.015-3.176,4.015a.73.73,0,0,0-.73.73v.431a3.855,3.855,0,0,1-1.029-2.606Zm-.9,9.491a2.592,2.592,0,0,1,.9-1.9,5.359,5.359,0,0,0,1.051.883v2.409a8.688,8.688,0,0,0,.088,1.161,2.628,2.628,0,0,1-2.008-2.541Zm3.358,1.38V16.039a4.855,4.855,0,0,0,3.65-3.65c1.46,1.46,3.11,1.46,4.935,1.46h4.38a.993.993,0,0,1,.993.993v5.015a7.169,7.169,0,0,1-6.87,7.257,7.009,7.009,0,0,1-7.133-7Zm7.03,8.476H26.4a8.031,8.031,0,0,0,2.519-.453V29.26L26.25,32.224,23.578,29.26V28.129a8.4,8.4,0,0,0,2.672.438ZM22.739,30.5l2.468,2.745-2.19,1.869-1.971-3.446Zm17.6,11.761a1.2,1.2,0,0,1-1.19,1.2H13.35a1.2,1.2,0,0,1-1.19-1.2v-2.4a7.687,7.687,0,0,1,7.52-7.673l2.533,4.424a.73.73,0,0,0,.511.358h.124a.73.73,0,0,0,.482-.139L26.25,34.3l2.92,2.526a.73.73,0,0,0,.475.175h.124a.73.73,0,0,0,.511-.358l2.541-4.461a7.687,7.687,0,0,1,7.52,7.673Zm-16.4-25.99v.92a.73.73,0,1,1-1.46,0v-.92a.73.73,0,0,1,1.46,0Zm4.629.92v-.92a.73.73,0,0,1,1.46,0v.92a.73.73,0,1,1-1.46,0ZM26.25,22.661a2.431,2.431,0,0,1-1.957-1.007.738.738,0,1,1,1.183-.883.978.978,0,0,0,1.548,0,.73.73,0,1,1,1.183.854,2.431,2.431,0,0,1-1.957,1.037Zm.956,14.784a.956.956,0,1,1-.956-.956.956.956,0,0,1,.956.956Zm0,3.6a.956.956,0,1,1-.956-.956.956.956,0,0,1,.956.956Z" transform="translate(28.3 927.08)" fill="#292775" stroke="#292775" stroke-width="0.25"/>
    <g id="Group_2895" data-name="Group 2895" transform="translate(57 951)">
      <circle id="Ellipse_18" data-name="Ellipse 18" cx="15.372" cy="15.372" r="15.372" transform="translate(0)" fill="#fff"/>
    </g>
    <g id="MDI_shield-star-outline" data-name="MDI / shield-star-outline" transform="translate(60 954)">
      <g id="Boundary" fill="#ff8000" stroke="rgba(0,0,0,0)" stroke-width="1" opacity="0">
        <rect width="24" height="24" stroke="none"/>
        <rect x="0.5" y="0.5" width="23" height="23" fill="none"/>
      </g>
      <path id="Path_shield-star-outline" data-name="Path / shield-star-outline" d="M21,11c0,5.55-3.84,10.74-9,12-5.16-1.26-9-6.45-9-12V5l9-4,9,4v6M12,21c3.75-1,7-5.46,7-9.78V6.3L12,3.18,5,6.3v4.92C5,15.54,8.25,20,12,21m3.05-5-3.08-1.85L8.9,16l.81-3.5L7,10.16l3.58-.31,1.39-3.3,1.4,3.29,3.58.31L14.23,12.5l.82,3.5" fill="#ff8000"/>
    </g>
  </g>
</svg>
