<svg xmlns="http://www.w3.org/2000/svg" width="100" height="100" viewBox="0 0 100 100">
  <g id="Group_3251" data-name="Group 3251" transform="translate(-257 -2095)">
    <rect id="Rectangle_1632" data-name="Rectangle 1632" width="100" height="100" transform="translate(257 2095)" fill="rgba(255,255,255,0)"/>
    <g id="Group_3247" data-name="Group 3247" transform="translate(93 -130.45)">
      <path id="Subtraction_21" data-name="Subtraction 21" d="M1.595,47.328c-.843-.006-.843-.006-1.256-.25a1.266,1.266,0,0,1-.3-1.02V46c0-.068,0-.136,0-.206V45.1q0-.125,0-.249v-.01q0-.119,0-.239,0-.342,0-.683t0-.691q0-.74,0-1.48,0-.863,0-1.727v-.072q0-.889,0-1.779,0-.4,0-.806v-.035q0-.421,0-.841,0-2.8,0-5.594V29.445c0-.181,0-.181,0-.365,0-1.681,0-3.486-.006-5.851,0-1.989-.005-4.008-.005-6q0-1.686,0-3.372c0-.95,0-1.916,0-2.87,0-.592,0-1.044,0-1.465,0-.445,0-.9,0-1.341,0-.162,0-.324,0-.486C0,7.5,0,7.3,0,7.035c0-.122,0-.245,0-.37a1.333,1.333,0,0,1,.464-.838,1.093,1.093,0,0,1,.565-.116H2.136l.537,0H2.7l.515,0h.727l1.786,0v-.04l0-.148c-.008-.61-.015-1.246-.02-1.942q0-.362-.008-.724c0-.276-.006-.557-.008-.828l0-.213c0-.108,0-.216-.006-.328,0-.751,0-.751.243-1.152A1.31,1.31,0,0,1,6.892.035l.173,0,.182,0H9.18l1.862,0h.011l1.161,0,3.227,0h1.048c1.261,0,2.365,0,3.373-.006,1.15,0,2.315-.005,3.462-.005q.973,0,1.945,0l1.338,0h.67l.492,0h.35l.566,0,.269,0a2.165,2.165,0,0,1,1.662.794l.191.189.1.1.1.1.109.108.11.109.71.709.5.493,1.035,1.035q.659.659,1.32,1.317l.007.007q.512.509,1.021,1.02l.005.005.484.483c.2.2.409.407.682.683l.134.132.071.07a1.966,1.966,0,0,1,.72,1.569v.306c0,.053,0,.106,0,.159s0,.111,0,.168c0,.167,0,.167,0,.337,0,.355,0,.71-.006,1.065l0,.724q0,.367,0,.734l-2.069-.036V9.539l-.7-.005-.8-.006-.465,0-.474,0q-.745-.008-1.49-.014c-.449,0-.842-.007-1.2-.012l-.458,0c-.195,0-.4,0-.642-.007l-.369,0a1.02,1.02,0,0,1-.725-.35,12.667,12.667,0,0,1-.3-4.839c.049-.75.1-1.525.089-2.276H7.682V39.645H35.83v-2.83l2.153.038-.008.609-.007.449q-.005.354-.008.707c0,.3-.008.638-.015,1.018,0,.1,0,.2,0,.307v.011a2.347,2.347,0,0,1-.36,1.444,1.188,1.188,0,0,1-.785.228H36.33c-.225,0-.45,0-.675-.006H35.2c-.336,0-.7,0-1.121-.01l0,.188c.008.608.015,1.243.02,1.942v.008q0,.358.009.717c0,.312.007.652.009,1.041,0,.05,0,.1,0,.15v.006c0,.057,0,.114,0,.172,0,.751,0,.751-.242,1.152a1.145,1.145,0,0,1-.959.309h-.73l-.405,0H30.67l-1.2,0-2.908,0H25.19l-4.547,0H19.166c-1.778,0-3.333,0-4.756.006-1.62,0-3.262.005-4.879.005q-1.37,0-2.741,0l-1.708,0H4.139l-.872,0H1.977ZM2.011,7.683V45.316H32.117V41.6l-.524,0-.452,0-8.854-.031-.581,0h-.025l-.554,0h-.233l-1.873-.006-1.868-.006-1.919-.007-1.919-.007-2.369-.008-1.815-.007H8.385l-1.015,0h-.3l-.274,0H6.558a1.98,1.98,0,0,1-.629-.116,2.448,2.448,0,0,1-.117-.869c0-.059,0-.117,0-.176s0-.119,0-.178v-.391q0-.1,0-.207v-.009q0-.1,0-.2,0-.379,0-.759v-.381q0-.307,0-.614v-.026q0-.294,0-.589,0-1.065-.006-2.13,0-1.54-.008-3.08l0-.818-.011-4.179q-.005-2.427-.013-4.855c0-.049,0-.1,0-.147s0-.1,0-.155q0-.377,0-.755t0-.745Q5.739,13.91,5.723,7.683ZM30.328,3.451c-.018,0-.039,0-.067,0V7.58h4.125c-.488-.573-.488-.573-1-1.116l-.1-.1-.1-.1-.107-.106-.108-.108-.225-.226-.233-.232-.235-.235-.72-.72L31.1,4.175l-.218-.219-.1-.1-.1-.1L30.621,3.7,30.5,3.58C30.411,3.476,30.389,3.451,30.328,3.451Z" transform="translate(191 2253.31)" fill="#292775" stroke="rgba(112,112,112,0)" stroke-width="2"/>
      <path id="Path_6470" data-name="Path 6470" d="M-14.894-.034l.4,0c.438,0,.875,0,1.313,0l.912,0q.956,0,1.911,0,1.1,0,2.208,0,1.063,0,2.126,0h.9c.421,0,.842,0,1.263,0l.378,0c.844.012.844.012,1.3.351a1.451,1.451,0,0,1,.33,1c-.225.617-.225.617-.557.828a2.047,2.047,0,0,1-.815.129l-.342,0h-.373l-.394,0q-.646,0-1.292,0l-.9,0-1.881,0q-1.086,0-2.173.006-1.046.005-2.092,0l-.889,0c-.414,0-.828,0-1.243,0l-.372,0C-16,2.293-16,2.293-16.452,2.02A1.58,1.58,0,0,1-16.844.871C-16.606-.115-15.711-.042-14.894-.034Z" transform="translate(218.637 2264.608)" fill="#292775"/>
      <path id="Path_6471" data-name="Path 6471" d="M-15.049-.034l.4,0c.438,0,.875,0,1.313,0l.912,0q.956,0,1.911,0,1.1,0,2.208,0,1.063,0,2.126,0h.9c.421,0,.842,0,1.263,0l.378,0c.844.012.844.012,1.3.351a1.451,1.451,0,0,1,.33,1c-.225.617-.225.617-.557.828a2.053,2.053,0,0,1-.814.13l-.341,0h-.372l-.394,0q-.645,0-1.29,0l-.9,0-1.879,0q-1.085,0-2.17.009-1.045.007-2.09.006l-.888,0c-.414,0-.828,0-1.242,0l-.371.005c-.927-.009-.927-.009-1.357-.352a.927.927,0,0,1-.351-.822V.884C-16.718-.1-15.909-.042-15.049-.034Z" transform="translate(218.795 2259.695)" fill="#292775"/>
      <path id="Path_6472" data-name="Path 6472" d="M-60.516-1.344a1.142,1.142,0,0,1,.42.9,1.249,1.249,0,0,1-.429.931l-.223.244q-.536.564-1.087,1.114l-.236.237-.489.489-.75.751-.477.477-.227.227-.21.209-.184.184a1.466,1.466,0,0,1-1.136.328A3.2,3.2,0,0,1-67,3.633l-.322-.315c-1.1-1.076-1.1-1.076-1.117-1.7a1.312,1.312,0,0,1,.282-.89,1.49,1.49,0,0,1,1.029-.3,2.2,2.2,0,0,1,.933.648c.194.191.39.364.6.538l.332.275.286-.294q.528-.541,1.06-1.078l.457-.467q.329-.337.66-.671l.2-.211A1.648,1.648,0,0,1-60.516-1.344Z" transform="translate(270.527 2277.14)" fill="#292775"/>
      <path id="Path_6473" data-name="Path 6473" d="M-58.637-.307a1.316,1.316,0,0,1,.579.579,1.572,1.572,0,0,1,0,.926,3.036,3.036,0,0,1-.358.439l-.223.244q-.531.561-1.073,1.11l-.234.236-.485.487q-.371.372-.739.747l-.474.476-.221.225a2.026,2.026,0,0,1-1.5.788,3.309,3.309,0,0,1-1.295-.933l-.187-.182c-1.45-1.416-1.45-1.416-1.47-2.061a1.041,1.041,0,0,1,.253-.825,1.517,1.517,0,0,1,1.288-.289,5.132,5.132,0,0,1,.684.577c.2.19.394.364.6.538l.332.275.281-.283,1.035-1.039.448-.45.644-.646.2-.2A1.863,1.863,0,0,1-58.637-.307Z" transform="translate(268.416 2283.385)" fill="#292775"/>
      <path id="Path_6474" data-name="Path 6474" d="M-10.556-.034l.445,0,.478,0h.492q.515,0,1.03,0c.44,0,.879,0,1.319,0q.508,0,1.016,0h.486c.227,0,.453,0,.68,0l.39,0a1.093,1.093,0,0,1,.8.523,1.6,1.6,0,0,1-.022,1.259,1.26,1.26,0,0,1-.988.508l-.365,0-.416,0h-.448l-.461,0h-.965q-.617,0-1.235,0c-.394,0-.787,0-1.181,0l-.447,0-.417,0h-.366a1.718,1.718,0,0,1-.909-.391,1.712,1.712,0,0,1-.3-1.026A1.231,1.231,0,0,1-10.556-.034Z" transform="translate(214.005 2270.249)" fill="#292775"/>
      <g id="Ellipse_158" data-name="Ellipse 158" transform="translate(216.367 2267.111)" fill="rgba(255,255,255,0)" stroke="#ff8000" stroke-width="2">
        <circle cx="10.804" cy="10.804" r="10.804" stroke="none"/>
        <circle cx="10.804" cy="10.804" r="9.804" fill="none"/>
      </g>
      <path id="Path_6475" data-name="Path 6475" d="M-88.812-.269a1.08,1.08,0,0,1,.656.676,1.157,1.157,0,0,1-.154,1.034A8.337,8.337,0,0,1-89.235,2.5l-.194.195q-.315.316-.632.63l-.44.44-.921.918q-.591.588-1.181,1.179l-.908.906-.436.435-.608.605-.182.182a1.561,1.561,0,0,1-1.151.6,1.229,1.229,0,0,1-.973-.378l-.241-.223c-.51-.493-1.019-.988-1.52-1.489q-.285-.284-.571-.567l-.365-.364L-99.73,5.4a2.045,2.045,0,0,1-.708-1.251A1.493,1.493,0,0,1-100,3.222a1.284,1.284,0,0,1,.954-.2,1.412,1.412,0,0,1,.718.42l.242.222q.625.6,1.233,1.215l.255.257.613.619a25.338,25.338,0,0,0,1.854-1.729l.512-.515,1.085-1.091,1.264-1.271.5-.508.308-.309.271-.273A1.489,1.489,0,0,1-88.812-.269Z" transform="translate(321.668 2273.747)" fill="#ff8000"/>
    </g>
  </g>
</svg>
