<svg xmlns="http://www.w3.org/2000/svg" xmlns:xlink="http://www.w3.org/1999/xlink" width="464.624" height="385.4" viewBox="0 0 464.624 385.4">
  <defs>
    <linearGradient id="linear-gradient" x1="0.5" y1="1.001" x2="0.5" gradientUnits="objectBoundingBox">
      <stop offset="0" stop-color="gray" stop-opacity="0.251"/>
      <stop offset="0.54" stop-color="gray" stop-opacity="0.122"/>
      <stop offset="1" stop-color="gray" stop-opacity="0.102"/>
    </linearGradient>
  </defs>
  <g id="Group_3128" data-name="Group 3128" transform="translate(-243 -125.77)">
    <g id="Group_3125" data-name="Group 3125" transform="translate(243.029 125.77)">
      <path id="Path_5849" data-name="Path 5849" d="M915.6,746.65s.227-4.762,4.886-4.208" transform="translate(-651.596 -490.801)" fill="#3f3d56"/>
      <circle id="Ellipse_114" data-name="Ellipse 114" cx="2.332" cy="2.332" r="2.332" transform="translate(260.36 246.654)" fill="#ff8000"/>
      <rect id="Rectangle_1470" data-name="Rectangle 1470" width="0.658" height="4.607" transform="translate(262.312 252.912)" fill="#3f3d56"/>
      <path id="Path_5850" data-name="Path 5850" d="M299.053,279.352q0,1.749-.113,3.469a52.55,52.55,0,0,1-4.924,19.078c-.022.051-.048.1-.069.146-.132.278-.267.556-.406.83a51.927,51.927,0,0,1-2.8,4.935A52.809,52.809,0,0,1,247.4,332.2l.523,30.063,6.818-3.59,1.217,2.314-7.984,4.2.976,55.835.011.746-5.271,1.173.011-.749,1.66-89.992a52.7,52.7,0,0,1-37.287-16.223c-.333-.344-.662-.7-.983-1.049-.015-.015-.026-.029-.037-.04a52.921,52.921,0,0,1-9.629-14.9c.051.058.106.113.157.172a52.875,52.875,0,0,1,25.07-68.132c.183-.091.369-.179.552-.271a52.915,52.915,0,0,1,68.553,20.811c.322.541.633,1.093.932,1.649A52.586,52.586,0,0,1,299.053,279.352Z" transform="translate(-193.345 -163.5)" fill="#d5dbe1"/>
      <circle id="Ellipse_115" data-name="Ellipse 115" cx="69.287" cy="69.287" r="69.287" transform="translate(29.305 0)" fill="#ff8000"/>
      <path id="Path_5851" data-name="Path 5851" d="M292.647,117.084A69.293,69.293,0,0,0,408.1,190.416a69.293,69.293,0,1,1-115.453-73.332Z" transform="translate(-245.215 -94.075)" opacity="0.2"/>
      <path id="Path_5852" data-name="Path 5852" d="M267.727,382.561l-7.077-1.985.015-.76,2.12-115.252.106-5.747,0-.168.369-20.135.537-29.186v0l.366-19.784h.194l.373,21.433.486,27.9.347,19.795v.146l.015.815v0l.673,38.584.069,3.835,1.389,79.746Z" transform="translate(-165.386 -120.253)" fill="#3f3d56"/>
      <rect id="Rectangle_1471" data-name="Rectangle 1471" width="12.944" height="3.426" transform="translate(98.349 179.286) rotate(-27.766)" fill="#3f3d56"/>
      <rect id="Rectangle_1472" data-name="Rectangle 1472" width="32.67" height="0.731" transform="translate(64.564 276.256)" fill="#cbcbcb"/>
      <rect id="Rectangle_1473" data-name="Rectangle 1473" width="32.67" height="0.731" transform="translate(124.515 288.685)" fill="#cbcbcb"/>
      <rect id="Rectangle_1474" data-name="Rectangle 1474" width="32.67" height="0.731" transform="translate(217.732 279.181)" fill="#cbcbcb"/>
      <path id="Path_5853" data-name="Path 5853" d="M837.565,699.574V678.308S845.853,693.385,837.565,699.574Z" transform="translate(-602.085 -450.141)" fill="#f1f1f1"/>
      <path id="Path_5854" data-name="Path 5854" d="M811.776,711.512l-15.666-14.381S812.822,701.221,811.776,711.512Z" transform="translate(-575.785 -462.083)" fill="#f1f1f1"/>
      <path id="Path_5855" data-name="Path 5855" d="M394.565,713.574V692.308S402.853,707.385,394.565,713.574Z" transform="translate(-321.026 -459.023)" fill="#f1f1f1"/>
      <path id="Path_5856" data-name="Path 5856" d="M368.776,725.512l-15.666-14.381S369.822,715.221,368.776,725.512Z" transform="translate(-294.726 -470.965)" fill="#f1f1f1"/>
      <path id="Path_5857" data-name="Path 5857" d="M548.565,746.586V720.142S558.871,738.89,548.565,746.586Z" transform="translate(-418.731 -476.682)" fill="#f1f1f1"/>
      <path id="Path_5858" data-name="Path 5858" d="M516.5,761.431l-19.48-17.883S517.8,748.635,516.5,761.431Z" transform="translate(-386.026 -491.532)" fill="#f1f1f1"/>
      <path id="Path_5859" data-name="Path 5859" d="M364.561,699.081l-.2.706-61.351-17.474L256.792,692.5l-59.107,10.1-.08-.022L169.61,694.72l-7.077-1.985-21.615-6.068-18.029,4.017-5.271,1.173-11.46,2.555L106,693.7l11.628-2.592,5.249-1.17,18.062-4.025.088.022,21.52,6.039,7.048,1.978,28.126,7.9,58.928-10.064,46.382-10.225.091.022Z" transform="translate(-67.269 -432.412)" fill="#cbcbcb"/>
      <path id="Path_5860" data-name="Path 5860" d="M694.266,169l4.677-3.741c-3.634-.4-5.126,1.581-5.737,3.149a7.967,7.967,0,0,0-5.929.366l9.358,3.4A7.082,7.082,0,0,0,694.266,169Z" transform="translate(-506.736 -124.604)" fill="#3f3d56"/>
      <path id="Path_5861" data-name="Path 5861" d="M224.266,165l4.677-3.741c-3.634-.4-5.126,1.581-5.737,3.149a7.967,7.967,0,0,0-5.929.366l9.358,3.4A7.082,7.082,0,0,0,224.266,165Z" transform="translate(-208.547 -122.066)" fill="#3f3d56"/>
      <path id="Path_5862" data-name="Path 5862" d="M666.266,360l4.677-3.741c-3.634-.4-5.126,1.581-5.737,3.149a7.967,7.967,0,0,0-5.929.366l9.358,3.4A7.082,7.082,0,0,0,666.266,360Z" transform="translate(-488.971 -245.782)" fill="#3f3d56"/>
      <path id="Path_5863" data-name="Path 5863" d="M398.156,728.647l3.575,1.328,6.824-13.156-5.276-1.96Z" transform="translate(-252.626 -453.538)" fill="#ffb7b7"/>
      <path id="Path_5864" data-name="Path 5864" d="M587.206,802.6l7.04,2.616h0a4.786,4.786,0,0,1,2.819,6.153l-.054.146-11.526-4.283Z" transform="translate(-442.154 -528.997)" fill="#2f2e41"/>
      <path id="Path_5865" data-name="Path 5865" d="M494.391,737.2H498.2l1.814-14.709H494.39Z" transform="translate(-313.681 -458.382)" fill="#ffb7b7"/>
      <path id="Path_5866" data-name="Path 5866" d="M685.927,813.468h7.51a4.786,4.786,0,0,1,4.786,4.785v.156h-12.3Z" transform="translate(-505.879 -535.892)" fill="#2f2e41"/>
      <path id="Path_5867" data-name="Path 5867" d="M604.614,533.486,605.858,531l10.576,5.288-.311,2.177,2.022,2.644s3.422,1.866,2.8,8.088l-.622,5.91-.778,7.621,5.444,18.819,2.8,24.885,2.022,20.063-9.8-.467-9.021-32.661-15.864,35.15-10.887-2.8,14.931-34.839,1.866-14.62s-1.244-7.776,4.666-13.064l-.933-2.8v-3.45l-3.111-16.458Z" transform="translate(-441.364 -356.68)" fill="#2f2e41"/>
      <rect id="Rectangle_1475" data-name="Rectangle 1475" width="0.366" height="25.209" transform="translate(162.607 212.472) rotate(-15.751)" opacity="0.2"/>
      <rect id="Rectangle_1476" data-name="Rectangle 1476" width="15.242" height="1.555" transform="translate(178.803 207.601) rotate(180)" fill="#3f3d56"/>
      <ellipse id="Ellipse_116" data-name="Ellipse 116" cx="0.622" cy="1.555" rx="0.622" ry="1.555" transform="translate(178.181 205.423)" fill="#3f3d56"/>
      <circle id="Ellipse_117" data-name="Ellipse 117" cx="8.291" cy="8.291" r="8.291" transform="translate(160.676 168.807) rotate(-61.337)" fill="#ffb7b7"/>
      <circle id="Ellipse_118" data-name="Ellipse 118" cx="7.335" cy="7.335" r="7.335" transform="translate(151.906 147.878)" fill="#2f2e41"/>
      <path id="Path_5868" data-name="Path 5868" d="M603.016,476.586a7.336,7.336,0,1,0,14.309,3.008,7.336,7.336,0,0,1-14.309-3.008Z" transform="translate(-453.083 -322.159)" fill="#2f2e41"/>
      <path id="Path_5869" data-name="Path 5869" d="M652.811,487.246a8.673,8.673,0,1,1-5.175-6.982c1.449-1.168,3.245-.806,4.7.427,1.651,1.394,2.141,2.352,3.422,4.644C654.5,485.512,654.07,487.069,652.811,487.246Z" transform="translate(-473.899 -324.04)" fill="#2f2e41"/>
      <path id="Path_5870" data-name="Path 5870" d="M599.437,546.816c.093,2.457.277,7.294.277,7.541s3.667,7.852,5.251,11.12v0c.113.23.214.439.3.623a1.473,1.473,0,0,0,1.354.832l6.923-.124a1.475,1.475,0,0,0,1.45-1.438l.772-30.456a.753.753,0,0,0-.752-.772h-8.927a2.007,2.007,0,0,0-1.806,1.133L600,544.14a5.666,5.666,0,0,0-.558,2.676Z" transform="translate(-451.004 -358.675)" fill="#6c63ff"/>
      <path id="Path_5871" data-name="Path 5871" d="M641.357,565.684a19.826,19.826,0,0,0,4.73-4,21.937,21.937,0,0,0,5.467-12.754c.352-4.048-.451-7.056-2.387-8.942a7.879,7.879,0,0,0-5.952-2.033l-.15.017-2.269,1.92.642.759,2.031-1.718a6.938,6.938,0,0,1,5.012,1.775c1.706,1.669,2.407,4.406,2.082,8.136A20.949,20.949,0,0,1,645.37,561a19.25,19.25,0,0,1-4.493,3.817Z" transform="translate(-477.246 -361.079)" fill="#6c63ff"/>
      <rect id="Rectangle_1477" data-name="Rectangle 1477" width="0.331" height="12.348" transform="matrix(0.201, -0.98, 0.98, 0.201, 151.161, 193.359)" fill="#3f3d56"/>
      <rect id="Rectangle_1478" data-name="Rectangle 1478" width="19.263" height="0.331" transform="matrix(0.041, -0.999, 0.999, 0.041, 158.415, 194.705)" fill="#3f3d56"/>
      <path id="Path_5872" data-name="Path 5872" d="M599.436,566.385c.093,2.457.277,7.294.277,7.541s3.667,7.852,5.251,11.12L602.011,567.9a3.779,3.779,0,0,0-2.454-2.915A5.559,5.559,0,0,0,599.436,566.385Z" transform="translate(-451.003 -378.244)" fill="#3f3d56"/>
      <path id="Path_5873" data-name="Path 5873" d="M648.007,645.652a2.917,2.917,0,0,1,.949-4.371l-.6-6.638,3.945-1.349.716,9.386a2.933,2.933,0,0,1-5.009,2.971Z" transform="translate(-481.432 -421.582)" fill="#ffb7b7"/>
      <path id="Path_5874" data-name="Path 5874" d="M641.983,549.054a4.551,4.551,0,0,1,3.079-4.658,4.134,4.134,0,0,1,2.6,0,4.551,4.551,0,0,1,3.083,4.331l.3,33.712-6.991.253Z" transform="translate(-477.99 -365.048)" fill="#cbcbcb"/>
    </g>
    <g id="Group_3126" data-name="Group 3126" transform="translate(295.025 163.778)">
      <ellipse id="Ellipse_109" data-name="Ellipse 109" cx="150.342" cy="8.137" rx="150.342" ry="8.137" transform="translate(111.916 331.118)" fill="#d5dbe1"/>
      <path id="Path_5783" data-name="Path 5783" d="M536.468,208.713c2.314-2.586,1.409-6.616,1.409-6.616s-10.921-27.833-12.132-28.139-4.25-7.327-4.25-7.327-29.122-27.682-30.169-27.682-11.68-7.646-13.042-7.8A17.836,17.836,0,0,1,472.518,129c-2.276-1.237-25.334.155-26.243,1.224s-5.172,1.836-5.172,1.836-8.646.457-9.861,1.987-10.158,2.34-10.158,2.34-4.4,1.638,1.573,5.986h0c-1.914.3-4.15.534-6.422.7-.569.039-1.146.078-1.724.108h-.341a5.637,5.637,0,0,0-2.12-2.849,17.791,17.791,0,0,0-2.013-.935,16.066,16.066,0,0,1-2.982-2.047,97.738,97.738,0,0,0-14.1-9.344,6.753,6.753,0,0,0-2.513-.944c-1.849-.177-3.5,1.121-5.31,1.556-3.181.763-6.387-1.177-9.658-1.207-4.086-.039-7.805,3.142-9.051,7.064-.461,1.452-.668,3.069-1.664,4.219-1.293,1.5-3.478,1.724-5.249,2.616a7.922,7.922,0,0,0-4.258,7.021v.034a4.059,4.059,0,0,0,.039.685,23.95,23.95,0,0,0,1.681,5.3,21.905,21.905,0,0,1,1.207,5.56.281.281,0,0,1,0,.06c.026.315.047.629.06.948v1.116c0,1.646-.056,3.306-.052,4.952v1.013a5.8,5.8,0,0,0,.026.664v.233a5.861,5.861,0,0,0,.052.612,1.084,1.084,0,0,0,.022.263,4.441,4.441,0,0,0,.073.586l.039.276c.03.194.065.388.1.582l.052.267c.043.207.095.431.147.621.022.073.035.142.052.215q.116.431.259.827a12.145,12.145,0,0,0,8.042,7.581,7.47,7.47,0,0,0,2.133.267,4.433,4.433,0,0,0,3.3-1.315c.19.215.375.431.573.646a25.829,25.829,0,0,0,41.948-5.6c.453-.1.9-.19,1.353-.276.784-.147,1.573-.284,2.366-.431l.763-.121h0l.3-.052c3.879-.612,7.646-1.021,10.344-1.293l-10.663,1.323s-2.586,12.417-3.332,13.792,2.586,3.668,2.586,3.668,2.883,3.517,2.883,4.59,3.336,4.129,4.245,5.81a2.584,2.584,0,0,0,.431.582,6.1,6.1,0,0,0-1.836,1.116c-2.108,2-1.4,5.5-2.37,8.236a13.97,13.97,0,0,1-3.082,4.478,6.109,6.109,0,0,0-1.086,1.5,3.7,3.7,0,0,0-.289,1.155h0a5.657,5.657,0,0,0-.026.664v.078a2.5,2.5,0,0,0,.034.509v.22c.211,1.8.823,3.543,1.009,5.344a51.378,51.378,0,0,0,.332,5.37,8.008,8.008,0,0,0,.595,1.771l-6.172,6.9s-.039.34-.052.9c-5.146,4.271-13.1,12.331-10.262,19.438q.465,1.168.862,2.237c-2.09,1.332-2.78,2.914.353,4.491.5.25.974.465,1.444.659,1.608,4.719,2.237,6.034,4.931,2.556.289-.379.625-.862.991-1.383a10.488,10.488,0,0,0,5.986-1.832s10.615-.612,13.361,1.073c1.375.862,4.607,1.034,7.469,1.013a78.222,78.222,0,0,0,.431,9.232s-.457,13,.759,15.753a36.207,36.207,0,0,1,1.888,7.495s-2.039,4.586-.827,7.034-1.06,5.965-1.06,5.965V323.3l.862-.06c-.065.608-.147,1.246-.254,1.853-.25,1.409-.625,2.672-1.2,3.082-1.517,1.09-1.668,6.9-1.668,6.9s-2.426,7.038-1.974,8.262-2.879,3.668-2.12,5.5,2.31,13.455,3.659,16.809-2.75,2.448-2.75,2.448l1.211,8.715s1.215,8.87.306,9.482-6.142,5.047-2.543,7.646c.28.2.565.388.862.565a9.342,9.342,0,0,1-.03,1.207c-.069.685-.241,1.233-.625,1.293-1.069.155-3.194,1.224-3.642.767s-3.017,1.155-5.6,1.681l-.358.056-3.357-.862a23.626,23.626,0,0,0-15.171-.56,5.807,5.807,0,0,0-3.616,2.2,4.755,4.755,0,0,0-.328,4.069c1.621,5.4,12.667,7.266,12.667,7.266s3.827.789,8.426,1.832h-.461a5.073,5.073,0,1,0,1.724.315c5.172,1.19,10.9,2.638,13.227,3.659a40.469,40.469,0,0,0,5.314,1.595,5.043,5.043,0,0,0,9.387,2.112c7.038,1.47,13.817,2.715,13.817,2.715l11.322.185h.078a5.043,5.043,0,1,0,.069,0l17.14.28a5.056,5.056,0,1,0,9.758.159l15.119.246,3.017-3.319a2.681,2.681,0,0,0,.3-1.039c.091-1.09-.474-2.745-4.336-3.448-.284-.052-8.163.073-15.123.19v-2.732s-.194-1.5-.315-3.275c-.034-.521-.065-1.065-.078-1.6a4.147,4.147,0,0,0,1.293.59c2.883.461,6.827-7.952,6.827-7.952a43.811,43.811,0,0,1,.909-8.564c.909-3.823,2.586-16.671,2.586-16.671l3.646-15.442s1.508-31.505.75-32.729.914-3.366.914-3.366,1.211-6.728-.608-9.021,1.06-4.59,1.06-4.59.758-7.952-1.366-11.007,1-5.2,1-5.2l.759-12.387c3.185-3.211,6.064-22.325,6.219-26.454a16.988,16.988,0,0,1,1.517-6.732s2.12-3.211,2.426-5.353,2.586-6.573,2.586-6.573l3.944-14.684c1.59-5.922,1.185-10.3.129-13.421C536.8,209.5,536.636,209.1,536.468,208.713Zm-71.247.862c2.426,1.53,1.668,1.987,2.426,2.9s.151.763-.457,2.293-.151,1.073.151,2.754.155,1.681.155,1.681l.759.108-1.056,7.1c-1.724,1.125-2.513,3.28-2.87,5.5-1.017-1.327-2.043-2.707-2.961-3.991a5.885,5.885,0,0,0,.263-2.327c.034-2.586,1-5.055,1.444-7.6a19.21,19.21,0,0,0-.246-7.805,11.86,11.86,0,0,0-1.013-2.771c.983.655,2.228,1.431,3.4,2.172Zm2.728,149.867s1.918-1.293,3.78-2.47c.625,4.538,1.215,9.258,1.633,13.524-.668-1.483-1.133-2.491-1.133-2.491a5.129,5.129,0,0,1-1.172-2.9c-.073-1.664-3.107-5.642-3.107-5.642Zm-11.374-157.19a3.673,3.673,0,0,1,1.621,1.263c-.534-.431-1.073-.862-1.625-1.267Zm-27.76,56.58c-1.75.552-7.68.47-11.206.263,1.319-2.254,2.629-4.547,3.793-6.6a14.015,14.015,0,0,0,2.09.375l11.546-10.141a19.886,19.886,0,0,0,13.4-.086l.315.491c.134.215.276.431.431.672l-.289-.47s-4.456,2.655-4,3.879-.6,4.28-2.271,7.555c-.431.819-.806,1.629-1.168,2.444C437.681,257.566,430.565,258.281,428.815,258.833Zm21.907,141.3-.065-1.211c.733-.159,1.215-.306,1.215-.306a47.715,47.715,0,0,0-.759-5.353c-.457-1.836-.22-1.224,1.556-2.586s0-16.809,0-16.809.862-1.073,2.228,1.681,2.737,4.435,3.194,4.586-1.823,3.215,0,6.12a17.585,17.585,0,0,1,2.271,6.116s-1.211,4.857.608,7.017a2.671,2.671,0,0,0,.862.59V401.2a15.065,15.065,0,0,1-.039,1.642.608.608,0,0,1-.97.379c-.47-.306-3.448.379-3.245,2.3a14.11,14.11,0,0,1-2.379,2.228l-4.133-1.069Z" transform="translate(-204.972 -89.275)" fill="url(#linear-gradient)"/>
      <path id="Path_5784" data-name="Path 5784" d="M490.323,390.75s-1.444,11.831,10.008,13.042l1.724-8.189-3.607-4.853L493.279,389Z" transform="translate(-281.797 -238.333)" fill="#6c63ff"/>
      <path id="Path_5785" data-name="Path 5785" d="M493.279,389l-2.957,1.745s-1.444,11.831,10.008,13.042" transform="translate(-281.797 -238.333)" opacity="0.1"/>
      <path id="Path_5786" data-name="Path 5786" d="M495.507,196.844s-7.728.474-15.477,1.758q-1.19.2-2.366.431c-.457.086-.905.177-1.353.276-4.06.836-7.758,1.922-9.913,3.31-2.586,1.659-3.448-2.81-3.53-9.021-.034-2.185.039-4.581.155-7,.151-2.8.371-5.637.6-8.189.513-5.655,1.1-10.051,1.1-10.051s2.707,0,6.323-.125l1.164-.043c1.134-.043,2.336-.1,3.547-.177.573-.03,1.151-.065,1.724-.108,2.293-.164,4.556-.4,6.465-.7a14.118,14.118,0,0,0,4.581-1.293C492.628,163.472,495.507,196.844,495.507,196.844Z" transform="translate(-266.204 -111.32)" fill="#f8bdc5"/>
      <path id="Path_5787" data-name="Path 5787" d="M612.685,335.6l-1.508,10.012s-3.289,4.094-2.857,6.37,4.224,102.842,4.224,102.842,7.435,42.47,4.853,47.93-.151,18.2-.151,18.2l15.472-2.427,5.172-185.665Z" transform="translate(-348.949 -206.394)" fill="#474463"/>
      <path id="Path_5788" data-name="Path 5788" d="M612.685,335.6l-1.508,10.012s-3.289,4.094-2.857,6.37,4.224,102.842,4.224,102.842,7.435,42.47,4.853,47.93-.151,18.2-.151,18.2l15.472-2.427,5.172-185.665Z" transform="translate(-348.949 -206.394)" opacity="0.1"/>
      <path id="Path_5789" data-name="Path 5789" d="M657.719,759.85c-.491.815-.453,3.211-.315,5.249.121,1.754.315,3.245.315,3.245v10.314s-16.533-5.762-25.635-11.831c-3.754-2.5-4.823-4.831-4.616-6.693a5.451,5.451,0,0,1,4.616-4.379c1.362,0,5.663-2.375,9.189-4.474,2.771-1.642,5.073-3.112,5.073-3.112S658.628,758.333,657.719,759.85Z" transform="translate(-359.853 -442.705)" fill="#575988"/>
      <path id="Path_5790" data-name="Path 5790" d="M675.977,759.85c-.491.815-.453,3.211-.315,5.249-3.676-1.724-15.059-12.766-16.132-13.818,2.771-1.642,5.073-3.112,5.073-3.112S676.886,758.333,675.977,759.85Z" transform="translate(-378.111 -442.705)" opacity="0.1"/>
      <path id="Path_5791" data-name="Path 5791" d="M680.478,329.385l-3.944,14.563s-2.276,4.4-2.586,6.521-2.426,5.31-2.426,5.31A16.809,16.809,0,0,0,670,362.45c-.151,4.1-3.017,23.058-6.219,26.243l-.759,12.288a3.653,3.653,0,0,0-.909,5.172c2.108,3.051,1.366,10.921,1.366,10.921s-2.883,2.276-1.06,4.551.6,8.952.6,8.952-1.668,2.12-.909,3.336-.75,32.462-.75,32.462l-3.646,15.317s-1.672,12.744-2.586,16.537a42.723,42.723,0,0,0-.909,8.49s-3.944,8.344-6.827,7.891-16.834-14.11-16.834-14.11l1.97-46.116s1.668-19.567.608-23.36-1.819-22.752-1.819-22.752l-2.125-29.88-21.213-33.371s-1.539-9.71,2.857-12.589l.8-5.245.72-4.767,25.183-2.732,38.526-10.008a12.421,12.421,0,0,1,4.525,6.4C681.659,319.166,682.068,323.51,680.478,329.385Z" transform="translate(-348.633 -193.199)" fill="#474463"/>
      <path id="Path_5792" data-name="Path 5792" d="M590.535,369.632s-17.9,21.98-17.14,15.839c.474-3.857-1.974-8.568-3.879-11.546-1.125-1.771-2.056-2.931-2.056-2.931s10.921-20.019,11.529-17.291a22.26,22.26,0,0,0,3.082,5.1C585.5,363.534,590.535,369.632,590.535,369.632Z" transform="translate(-325.722 -218.103)" fill="#ffc1c8"/>
      <path id="Path_5793" data-name="Path 5793" d="M657.719,792.319v2.155s-16.533-5.762-25.635-11.831c-3.754-2.5-4.823-4.831-4.616-6.693,5.025,2.543,14.373,7.391,17.205,9.577C647.078,787.38,653.293,790.315,657.719,792.319Z" transform="translate(-359.853 -458.512)" fill="#fff" opacity="0.3"/>
      <circle id="Ellipse_110" data-name="Ellipse 110" cx="5.055" cy="5.055" r="5.055" transform="translate(288.918 331.881)" fill="#474463"/>
      <circle id="Ellipse_111" data-name="Ellipse 111" cx="5.055" cy="5.055" r="5.055" transform="translate(237.277 324.782)" fill="#474463"/>
      <path id="Path_5794" data-name="Path 5794" d="M582.786,778.456a2.666,2.666,0,0,1-.3,1.03l-3.017,3.288L537.3,782.1l-11.339-.185s-23.868-4.344-28.518-6.37-22.933-5.732-22.933-5.732-11.042-1.853-12.662-7.211a4.634,4.634,0,0,1,.328-4.034,5.818,5.818,0,0,1,3.616-2.185,23.834,23.834,0,0,1,15.171.56l70.682,18.183,1.095.28s25.2-.47,25.7-.379C582.312,775.732,582.876,777.374,582.786,778.456Z" transform="translate(-265.461 -446.821)" fill="#ff8000"/>
      <path id="Path_5795" data-name="Path 5795" d="M582.786,782.63c-4.241-.552-11.637-1.366-13.542-.582,0,0-13.451-1.664-31.958,4.224l-11.322-.185s-23.868-4.344-28.518-6.37-22.933-5.732-22.933-5.732-11.042-1.853-12.662-7.21a4.634,4.634,0,0,1,.328-4.034c.754,2.2,2.207,5.383,4.525,6.275,3.642,1.4,18.61,4.254,18.61,4.254l29.626,7.254s17.106,3.711,23.765,1.293c2.728-.983,7.848-1.858,12.93-2.543l1.095.28s25.2-.47,25.7-.379C582.312,779.906,582.876,781.548,582.786,782.63Z" transform="translate(-265.461 -450.995)" fill="#fff" opacity="0.3"/>
      <path id="Path_5796" data-name="Path 5796" d="M607.344,774.273a14.018,14.018,0,0,1-.237,1.892s-16.757.6-25.48-.694c-2.409-.358-3.771-1.129-4.448-2.052a3.151,3.151,0,0,1-.315-3.017,4.74,4.74,0,0,1,.366-.81c.651-1.138,1.651-1.944,2.2-1.836,1.517.306,4.12-2.806,4.12-2.806-.207-1.9,2.78-2.586,3.245-2.276a.608.608,0,0,0,.97-.379c.03-.142.039-.827.039-1.629,0-1.336-.039-3.017-.039-3.017l16.843,2.047.668,3.219c.612,2.87,1.465,6.814,1.832,8.163a9.742,9.742,0,0,1,.237,3.194Z" transform="translate(-330.933 -448.099)" fill="#474463"/>
      <path id="Path_5797" data-name="Path 5797" d="M608.085,794.957a14.019,14.019,0,0,1-.237,1.892s-16.757.6-25.48-.694c-2.409-.358-3.771-1.129-4.448-2.052a27.473,27.473,0,0,1,6.948.233C587.436,794.975,602.8,794.975,608.085,794.957Z" transform="translate(-331.674 -468.783)" opacity="0.1"/>
      <path id="Path_5798" data-name="Path 5798" d="M528.529,762.773a.862.862,0,0,1-.366.81c-2.12,1.638-12.3-.142-12.3-.142s-20.791-1.293-23.9-3.413a2.193,2.193,0,0,1-.685-.72c-1.293-2.336,3.388-6.258,3.793-6.258s6-.763,6.37-.836c2.586-.521,5.172-2.125,5.6-1.668s2.586-.608,3.638-.759c.384-.056.56-.6.625-1.293a14.365,14.365,0,0,0-.095-2.814l16.606,4.469.146,2.646.478,8.809.06,1.082A.4.4,0,0,1,528.529,762.773Z" transform="translate(-282.248 -441.288)" fill="#474463"/>
      <path id="Path_5799" data-name="Path 5799" d="M516.2,781.433s-20.791-1.293-23.9-3.413a2.192,2.192,0,0,1-.685-.72c4.211.345,11.232.927,12.5,1.25,1.823.431,12.068,1.06,12.068,1.06h12.6l.06,1.082C529.392,783.743,516.2,781.433,516.2,781.433Z" transform="translate(-282.568 -459.28)" opacity="0.1"/>
      <circle id="Ellipse_112" data-name="Ellipse 112" cx="5.055" cy="5.055" r="5.055" transform="translate(211.961 324.782)" fill="#474463"/>
      <circle id="Ellipse_113" data-name="Ellipse 113" cx="5.055" cy="5.055" r="5.055" transform="translate(266.869 335.277)" fill="#474463"/>
      <path id="Path_5800" data-name="Path 5800" d="M487.974,395.721s-.957,1.724-2.4,4.284c-3.448,6.086-9.65,16.873-12.318,20.287-3.793,4.853-3.487.306-7.585-9.857-3.043-7.56,6.323-16.21,11.331-20.14,1.724-1.366,2.931-2.155,2.931-2.155Z" transform="translate(-267.466 -237.843)" fill="#f8bdc5"/>
      <path id="Path_5801" data-name="Path 5801" d="M505.9,432.83s-12.589,1.06-15.016,1.819-12.891.3-13.792,0-18.813,3.793-10.62,7.887,13.361,0,13.361,0,10.62-.608,13.361,1.065,12.74.759,12.74.759Z" transform="translate(-267.043 -263.272)" fill="#ffc1c8"/>
      <path id="Path_5802" data-name="Path 5802" d="M478.9,191.18c1.552,3.969.582,7.426-1.246,10.973-4.577.862-8.883,2.047-11.279,3.586-6.827,4.4-1.668-34.281-1.668-34.281s3.3,0,7.486-.168C470.922,177.074,475.724,183.078,478.9,191.18Z" transform="translate(-266.189 -114.453)" opacity="0.1"/>
      <path id="Path_5803" data-name="Path 5803" d="M432.713,181.25C432.7,194.4,420.8,216.963,411.7,210.967s-27.124-11.162-30.057-23.984a25.859,25.859,0,1,1,51.067-5.733Z" transform="translate(-219.619 -105.385)" fill="#f8bdc5"/>
      <path id="Path_5804" data-name="Path 5804" d="M685.8,316.054a5.921,5.921,0,0,1-3.448,2.392c-5.917,1.668-47.633,11.68-50.361,11.072-2.409-.534-12.749-2.021-15.132-2.362l.72-4.767,25.183-2.732,38.526-10.008A12.443,12.443,0,0,1,685.8,316.054Z" transform="translate(-353.831 -193.181)" opacity="0.1"/>
      <path id="Path_5805" data-name="Path 5805" d="M519.144,196.808a145.39,145.39,0,0,0-14.718,1.638,1.013,1.013,0,0,0-.026-.677l10.085-1.246s-1.474-23.7-6.9-29.385a14.117,14.117,0,0,0,4.581-1.293C516.265,163.436,519.144,196.808,519.144,196.808Z" transform="translate(-289.84 -111.284)" opacity="0.1"/>
      <path id="Path_5806" data-name="Path 5806" d="M501.437,144.946s8.952-.806,10.163-2.323,9.861-1.97,9.861-1.97,4.245-.759,5.172-1.823,23.963-2.426,26.239-1.211a18.224,18.224,0,0,0,5.767,2.125c1.366.155,11.982,7.732,13.042,7.732s30.169,27.458,30.169,27.458,3.017,6.978,4.25,7.279,12.136,27.911,12.136,27.911,1.517,6.672-4.4,8.344-47.633,11.68-50.361,11.072-15.623-2.426-15.623-2.426.151,0-.151-1.668-.759-1.215-.155-2.732,1.215-1.366.457-2.276,0-1.366-2.426-2.883-5.172-3.185-5.31-3.638-2.276-3.491-3.336-3.642-30.794-8.495-30.794-8.495l-6.978-2.276s-3.336-2.276-2.586-3.638,3.332-13.684,3.332-13.684l10.667-1.315s-1.59-25.687-7.564-30S501.437,144.946,501.437,144.946Z" transform="translate(-285.325 -95.022)" fill="#292775"/>
      <path id="Path_5807" data-name="Path 5807" d="M503.719,395.721s-.957,1.724-2.4,4.284c-.224-7.913-5.758-9.447-8.572-9.71,1.724-1.366,2.931-2.155,2.931-2.155Z" transform="translate(-283.211 -237.843)" opacity="0.1"/>
      <path id="Path_5808" data-name="Path 5808" d="M494.963,272.34l.733,4.094s2.883,3.491,2.883,4.551,3.336,4.094,4.25,5.762,4.094,1.974,2.879,4.857-8.189,24.877-8.189,24.877l-7.129,7.887s11.831-1.065,10.008,13.042l15.322-13.361,12-21.83s-11.68-22.144-12.132-23.963S494.963,272.34,494.963,272.34Z" transform="translate(-281.868 -171.952)" fill="#16145a"/>
      <path id="Path_5809" data-name="Path 5809" d="M583.31,279.861s9.706-6.827,9.706-7.585S583.31,279.861,583.31,279.861Z" transform="translate(-334.741 -171.887)" opacity="0.1"/>
      <path id="Path_5810" data-name="Path 5810" d="M621,303.578s5.172-1.215,5.6-3.944S621,303.578,621,303.578Z" transform="translate(-356.187 -187.11)" opacity="0.1"/>
      <path id="Path_5811" data-name="Path 5811" d="M630.82,320.179s7.284-3.607,6.978-4.232S630.82,320.179,630.82,320.179Z" transform="translate(-361.775 -196.733)" opacity="0.1"/>
      <path id="Path_5812" data-name="Path 5812" d="M718.251,272.23s-3.017,1.97-2.121,3.814S718.251,272.23,718.251,272.23Z" transform="translate(-410.223 -171.889)" opacity="0.1"/>
      <path id="Path_5813" data-name="Path 5813" d="M732.842,274.1s-8.594,8.189-6.65,8.344S732.842,274.1,732.842,274.1Z" transform="translate(-415.88 -172.953)" opacity="0.1"/>
      <path id="Path_5814" data-name="Path 5814" d="M696.64,568.68s11.072,2.125,11.374,2.883S696.64,568.68,696.64,568.68Z" transform="translate(-399.227 -340.573)" opacity="0.1"/>
      <path id="Path_5815" data-name="Path 5815" d="M705.79,585.57s5.913,3.642,6.064,4.7S705.79,585.57,705.79,585.57Z" transform="translate(-404.434 -350.183)" opacity="0.1"/>
      <path id="Path_5816" data-name="Path 5816" d="M702.62,604.58s.909,4.094,2.427,4.7S702.62,604.58,702.62,604.58Z" transform="translate(-402.63 -361)" opacity="0.1"/>
      <path id="Path_5817" data-name="Path 5817" d="M429.988,169.771a.291.291,0,0,1-.022.134c-.207,1.349-.759,2.81-2.026,3.258a3.224,3.224,0,0,1-2.3-.211c-2.155-.944-4.073-3.211-6.374-2.663a3.817,3.817,0,0,0-2.4,2.112,10.6,10.6,0,0,0-.862,2.314,8.277,8.277,0,0,0-.116,5.133,5.234,5.234,0,0,0,.388.759c.612.978,1.474,1.81,2.077,2.8.75,1.233.944,3.082-.224,3.926a2.366,2.366,0,0,1-2.008.28,11.948,11.948,0,0,1-2.452-1.086c-1.526-.8-3.448-1.293-4.9-.371-.5.31-.9.759-1.379,1.086a4.974,4.974,0,0,1-3.332.694c-2.741-.28-3.767-2.017-5.861-3.362-1.534-.991-4.741-1.414-5.655.612-.586,1.293.284,2.922-.289,4.241s-2.4,1.724-3.241,2.948c-1.112,1.612-.078,3.944-.892,5.732a2.923,2.923,0,0,1-.5.759A25.937,25.937,0,0,1,424.3,162.229l1.164-.043c1.133-.043,2.336-.1,3.547-.177a9.88,9.88,0,0,1,.668,1.892A15.773,15.773,0,0,1,429.988,169.771Z" transform="translate(-219.454 -105.345)" opacity="0.1"/>
      <path id="Path_5818" data-name="Path 5818" d="M377.469,172.361c-.59,1.293.28,2.922-.289,4.237s-2.4,1.724-3.241,2.948c-1.116,1.616-.082,3.948-.892,5.732-.931,2.039-3.741,2.357-5.9,1.763a12.068,12.068,0,0,1-8.042-7.521c-1.461-4.159-.517-8.736-.9-13.128a21.779,21.779,0,0,0-1.207-5.512,23.4,23.4,0,0,1-1.681-5.254,7.81,7.81,0,0,1,4.215-7.676c1.776-.862,3.961-1.108,5.254-2.586.991-1.146,1.2-2.745,1.664-4.189,1.246-3.879,4.965-7.042,9.051-7,3.267.026,6.465,1.952,9.658,1.194,1.806-.431,3.448-1.724,5.31-1.539a6.737,6.737,0,0,1,2.513.935,97.919,97.919,0,0,1,14.1,9.266,15.869,15.869,0,0,0,2.987,2.03,18.527,18.527,0,0,1,2.013.927,6.489,6.489,0,0,1,2.517,4.1,15.658,15.658,0,0,1,.319,5.87c-.19,1.383-.733,2.935-2.047,3.4a3.22,3.22,0,0,1-2.3-.22c-2.155-.935-4.068-3.2-6.37-2.659-1.879.431-2.784,2.56-3.275,4.426a8.227,8.227,0,0,0-.116,5.137c.552,1.336,1.724,2.314,2.461,3.551s.948,3.086-.224,3.926c-1.293.935-3.047-.06-4.465-.8-1.517-.8-3.448-1.293-4.892-.375-.5.31-.9.759-1.379,1.09a5.017,5.017,0,0,1-3.327.69c-2.745-.28-3.771-2.017-5.861-3.362C381.585,170.753,378.387,170.331,377.469,172.361Z" transform="translate(-204.996 -93.125)" fill="#474463"/>
      <path id="Path_5819" data-name="Path 5819" d="M582.081,358.774c-.116.646-1,.72-1.185,1.349-1.724,6.081-5.517,11.55-11.37,13.792-1.125-1.771-2.056-2.931-2.056-2.931S578.391,350.965,579,353.693A22.558,22.558,0,0,0,582.081,358.774Z" transform="translate(-325.728 -218.097)" opacity="0.1"/>
      <path id="Path_5820" data-name="Path 5820" d="M549.247,329.669c0,11.064-14.63,24.169-21.011,22.093S509.2,340.731,509.2,329.672a20.024,20.024,0,1,1,40.047,0Z" transform="translate(-292.571 -193.181)" fill="#ffc1c8"/>
      <path id="Path_5821" data-name="Path 5821" d="M554.516,750.179l.147,2.646c-1.754.388-5.09.9-7.034-.293-2.513-1.539-6.224-1.914-9.624-4.008a14.361,14.361,0,0,0-.095-2.814Z" transform="translate(-308.908 -441.305)" opacity="0.1"/>
      <path id="Path_5822" data-name="Path 5822" d="M620,762.914c-.116.59-.224.952-.224.952s-13.382-1.371-17.24-3.219c0-1.336-.039-3.017-.039-3.017l16.843,2.047Z" transform="translate(-345.66 -448.087)" opacity="0.1"/>
      <path id="Path_5823" data-name="Path 5823" d="M577.659,599.5c-.909,2.426-1.366,2.883-.453,4.094s.453,7.585-1,8.189-6.9,4.245-6.9,4.245,3.017,3.944,3.108,5.6a5.076,5.076,0,0,0,1.172,2.883s4.672,10.012,5.6,13.2,1.784,8.189,1.784,8.189-1.633,4.551-.5,7.133,0,6.37,0,6.37-16.3-1.668-18.1-3.81-.6-6.96-.6-6.96a17.428,17.428,0,0,0-2.276-6.068c-1.823-2.883.431-5.913,0-6.068s-1.823-1.819-3.194-4.547-2.224-1.672-2.224-1.672,1.776,15.322,0,16.688-2.017.759-1.56,2.586a46.941,46.941,0,0,1,.759,5.31s-5.461,1.668-8.189,0-6.836-1.974-10.443-4.551,1.633-6.978,2.543-7.585-.3-9.4-.3-9.4l-1.215-8.646s4.094.909,2.75-2.426-2.9-14.865-3.659-16.684,2.586-4.25,2.125-5.461,1.97-8.189,1.97-8.189.155-5.762,1.668-6.844c.578-.405.953-1.664,1.2-3.056a37.974,37.974,0,0,0,.47-4.965s34.733-2.427,40.345.909c2.526,1.5,2.349,4.263,1.293,7.06-1.293,3.413-3.948,6.9-4.616,8.159C577.965,595.51,578.568,597.079,577.659,599.5Z" transform="translate(-306.338 -344.853)" fill="#575988"/>
      <path id="Path_5824" data-name="Path 5824" d="M594.755,585.024c-4.31,1.211-10.051,2.991-10.986,4.013-1.517,1.672-6.676-9.4-6.676-9.4s.306,8.327-6.521,4.844c-5.909-3.017-15.447-2.62-17.912-2.457a37.974,37.974,0,0,0,.47-4.965s34.733-2.427,40.345.909C596,579.464,595.824,582.227,594.755,585.024Z" transform="translate(-317.301 -344.853)" opacity="0.1"/>
      <path id="Path_5825" data-name="Path 5825" d="M574.731,380.5s3.017-3.642,3.642-2.276,4.185,4.094,4.185,4.094,1.021,3.185,2.819,3.642,15.3,18.657,15.3,18.657l-4.857,9.857-3.943,23.967s.172,3.793-.9,5.172-5.172,1.06-3.271,2.728,4.629,3.185,6.146,10.775a70.512,70.512,0,0,0,3.336,11.981s-14.257,3.642-15.774,5.31-6.676-9.4-6.676-9.4.306,8.322-6.521,4.844-18.507-2.418-18.507-2.418v-8.965s2.276-3.491,1.065-5.917.827-6.978.827-6.978a35.726,35.726,0,0,0-1.892-7.43c-1.215-2.728-.759-15.623-.759-15.623s-.922-8.344-.082-12.593a37.673,37.673,0,0,1,3.737-10.551c1.668-3.25,2.724-6.284,2.271-7.5s4-3.844,4-3.844l2.47,4,.629,2.388S575.037,385.052,574.731,380.5Z" transform="translate(-314.939 -232.027)" fill="#fff"/>
      <path id="Path_5826" data-name="Path 5826" d="M613.953,432.83s8.495,8.34,9.4,9.706,3.956,8.469.013,10.624-19.394,5.478-20.929,4.331-10.775,1.293-10.775,1.293-15.455,3.793-12.119-2.426,11.227-5.172,11.227-5.172,12.749-.022,14.111-1.293,11.637-4,9.309-9.62S613.953,432.83,613.953,432.83Z" transform="translate(-332.332 -263.272)" fill="#ffc1c8"/>
      <path id="Path_5827" data-name="Path 5827" d="M578.415,519.41s-19.787,17.14-17.817,17.14S578.415,519.41,578.415,519.41Z" transform="translate(-321.739 -312.537)" opacity="0.1"/>
      <path id="Path_5828" data-name="Path 5828" d="M625.837,535.6s-6.288,1.513-5.073,2.426S625.837,535.6,625.837,535.6Z" transform="translate(-355.964 -321.75)" opacity="0.1"/>
      <path id="Path_5829" data-name="Path 5829" d="M581.29,439.16s7.848.7,6.465,3.159S581.29,439.16,581.29,439.16Z" transform="translate(-333.592 -266.874)" opacity="0.1"/>
      <path id="Path_5830" data-name="Path 5830" d="M569.315,610.09s-1.064,3.086,0,4.741,0,5.6,0,5.6v13.792s-.147,10.012,3.487,13.5Z" transform="translate(-326.509 -364.135)" opacity="0.1"/>
      <path id="Path_5831" data-name="Path 5831" d="M545.83,709.81a25.909,25.909,0,0,1,2.426,4.245C548.563,715.193,545.83,709.81,545.83,709.81Z" transform="translate(-313.414 -420.877)" opacity="0.1"/>
      <path id="Path_5832" data-name="Path 5832" d="M547.06,694.66s4.931-.909,5.689-.379S547.06,694.66,547.06,694.66Z" transform="translate(-314.114 -411.947)" opacity="0.1"/>
      <path id="Path_5833" data-name="Path 5833" d="M543.243,738.49s-1.444.151,1.44,1.724,8.495,3.564,8.568,2.883S543.243,738.49,543.243,738.49Z" transform="translate(-311.737 -437.197)" opacity="0.1"/>
      <path id="Path_5834" data-name="Path 5834" d="M592.69,703.375c.509,0,6.857-.379,6.491.608S592.69,703.375,592.69,703.375Z" transform="translate(-340.078 -417.175)" opacity="0.1"/>
      <path id="Path_5835" data-name="Path 5835" d="M612.7,680.633s1.44-2.5,1.97-1.439S612.7,680.633,612.7,680.633Z" transform="translate(-351.464 -403.307)" opacity="0.1"/>
      <path id="Path_5836" data-name="Path 5836" d="M549.253,329.628a19.949,19.949,0,0,1-.767,5.5,3,3,0,0,1-3.31.2,8.916,8.916,0,0,1-2.78-3.017,6.869,6.869,0,0,0-2.961-2.784,5.385,5.385,0,0,0-4.892,1.017c-1.414,1.017-2.543,2.362-3.879,3.448a6.309,6.309,0,0,1-4.741,1.7,8.139,8.139,0,0,1-3.017-1.388,27.081,27.081,0,0,0-4.1-2.629c-1.418-.547-2.586.431-3.935.431-1.073.388-2.241,1.271-2.026,2.388a3.7,3.7,0,0,0,.552,1.155,4.849,4.849,0,0,1-.634,5.34A20.024,20.024,0,1,1,549.257,329.6Z" transform="translate(-292.577 -193.14)" opacity="0.1"/>
      <path id="Path_5837" data-name="Path 5837" d="M509.685,321.1c-1.073.388-2.241,1.271-2.03,2.392a3.839,3.839,0,0,0,.556,1.151,4.838,4.838,0,0,1-2.155,6.512,1.909,1.909,0,0,1-1.2.19,2.121,2.121,0,0,1-.862-.517,7.977,7.977,0,0,1-2.487-4.288,51.654,51.654,0,0,1-.332-5.323c-.19-1.771-.8-3.517-1.009-5.3a4.917,4.917,0,0,1,.272-2.62,6.093,6.093,0,0,1,1.086-1.491,14,14,0,0,0,3.082-4.439c.961-2.724.263-6.193,2.366-8.189a13.148,13.148,0,0,1,3.543-1.832,24.955,24.955,0,0,0,3.254-2.064c3.9-2.681,8.641-4.741,13.279-3.793a18.887,18.887,0,0,1,5.262,2.155,59.169,59.169,0,0,1,8.62,5.793,13.413,13.413,0,0,1,3.017,3.1,10.75,10.75,0,0,1,1.319,3.3,18.894,18.894,0,0,1,.25,7.758c-.431,2.526-1.409,4.978-1.448,7.542a4.874,4.874,0,0,1-.375,2.534c-.711,1.181-2.474,1.293-3.681.638a8.783,8.783,0,0,1-2.776-3.017,6.811,6.811,0,0,0-2.961-2.78,5.383,5.383,0,0,0-4.892,1.013c-1.414,1.013-2.539,2.362-3.879,3.448a6.285,6.285,0,0,1-4.741,1.7,8.13,8.13,0,0,1-3.017-1.383,26.6,26.6,0,0,0-4.094-2.629C512.241,320.112,511.03,321.1,509.685,321.1Z" transform="translate(-287.393 -182.715)" fill="#794f6a"/>
      <path id="Path_5838" data-name="Path 5838" d="M604.821,432.83s-22.3,20.627-17.748,30.941,24.566-7.887,24.566-7.887l7.137-16.515Z" transform="translate(-336.534 -263.272)" fill="#f8bdc5"/>
      <g id="Group_3122" data-name="Group 3122" transform="translate(212.719 126.946)" opacity="0.1">
        <path id="Path_5839" data-name="Path 5839" d="M506.065,360.521a1.9,1.9,0,0,1-1.194.19,2.06,2.06,0,0,1-.862-.521,7.99,7.99,0,0,1-2.491-4.284,53.369,53.369,0,0,1-.328-5.327c-.19-1.771-.8-3.513-1.009-5.3a1.135,1.135,0,0,0-.022-.267,6.822,6.822,0,0,0,.022,1.483c.207,1.784.819,3.508,1.009,5.3a52.813,52.813,0,0,0,.328,5.323,7.986,7.986,0,0,0,2.491,4.288,2.1,2.1,0,0,0,.862.517,1.9,1.9,0,0,0,1.194-.19,4.868,4.868,0,0,0,2.655-4.974A4.78,4.78,0,0,1,506.065,360.521Z" transform="translate(-500.13 -340.248)"/>
        <path id="Path_5840" data-name="Path 5840" d="M555.436,336.671c-.431,2.526-1.409,4.978-1.444,7.542a4.832,4.832,0,0,1-.379,2.534c-.707,1.181-2.47,1.293-3.676.638a8.8,8.8,0,0,1-2.78-3.017,6.786,6.786,0,0,0-2.961-2.78,5.38,5.38,0,0,0-4.887,1.017c-1.414,1.017-2.543,2.358-3.879,3.448a6.312,6.312,0,0,1-4.741,1.7,8.208,8.208,0,0,1-3.017-1.388,26.92,26.92,0,0,0-4.094-2.629c-1.414-.547-2.586.431-3.935.431-1.073.392-2.241,1.271-2.034,2.4a1.782,1.782,0,0,0,.116.353,3.353,3.353,0,0,1,1.918-1.534c1.345,0,2.534-.965,3.935-.431a25.965,25.965,0,0,1,4.094,2.629,8.007,8.007,0,0,0,3.017,1.384,6.218,6.218,0,0,0,4.741-1.7c1.328-1.1,2.47-2.457,3.879-3.448a5.437,5.437,0,0,1,4.887-1.013,6.839,6.839,0,0,1,2.961,2.78,9.156,9.156,0,0,0,2.78,3.017,2.775,2.775,0,0,0,3.676-.638,5.147,5.147,0,0,0,.379-2.534c.034-2.564,1-5.017,1.444-7.542a19.072,19.072,0,0,0,.276-3.931A19.144,19.144,0,0,1,555.436,336.671Z" transform="translate(-510.061 -333.96)"/>
      </g>
      <path id="Path_5841" data-name="Path 5841" d="M563.309,177.909s-8.189,14.865,3.017,22.45,12.288,6.827,12.288,6.827a10.9,10.9,0,0,0,0,2.276c.155.457,3.017,1.513,3.017,1.513s3.487,5.6,8.49,8.042,5.918,8.189,5.918,8.189,0,1.974,2.586,3.793,4.577,7.129,4.577,7.129v4.857c0,.759.909,3.017-1.06,3.258s-.306,4.78-.306,4.78-2.12,2.586-1.668,3.793-.909,3.637-.909,3.637-1.668,2.426-1.517,2.883-1.819,2.125-1.366,3.185-2.271,2.426-1.819,3.642-1.939,1.819-1.939,1.819l-6.555,15.171s13.792,3.017,17.352,10.615L620.8,263.913S630.5,240.1,630.81,238.584s-2.125-6.978-2.125-6.978l-11.831-21.549-17.748-25.027S585,155.007,563.309,177.909Z" transform="translate(-321.717 -113.319)" opacity="0.1"/>
      <path id="Path_5842" data-name="Path 5842" d="M590.124,192.946s-21.308,7.478-10.085,15.063,12.287,6.823,12.287,6.823a11.23,11.23,0,0,0,0,2.276c.151.453,3.017,1.517,3.017,1.517s3.491,5.6,8.495,8.042,5.917,8.189,5.917,8.189,0,1.974,2.586,3.793,4.551,7.129,4.551,7.129v4.853c0,.759.909,3.017-1.064,3.263s-.3,4.78-.3,4.78-2.125,2.586-1.668,3.788-.909,3.642-.909,3.642-1.668,2.426-1.517,2.883-1.823,2.125-1.366,3.185-2.276,2.426-1.819,3.642-1.944,1.819-1.944,1.819L599.752,292.8s11.361.586,14.947,8.189l19.787-29.406s9.71-23.812,10.012-25.329-2.116-6.995-2.116-6.995l-11.831-21.549-26.988-15.567S611.816,170.039,590.124,192.946Z" transform="translate(-331.022 -122.085)" opacity="0.1"/>
      <path id="Path_5843" data-name="Path 5843" d="M566.129,177.912s-8.189,14.865,3.017,22.45,12.287,6.827,12.287,6.827a11.215,11.215,0,0,0,0,2.276c.151.457,3.017,1.513,3.017,1.513s3.491,5.6,8.495,8.042,5.917,8.189,5.917,8.189,0,1.974,2.586,3.793,4.573,7.129,4.573,7.129v4.857c0,.759.909,3.017-1.065,3.258s-.3,4.78-.3,4.78-2.125,2.586-1.668,3.793-.909,3.638-.909,3.638-1.668,2.426-1.517,2.883-1.823,2.125-1.366,3.185-2.276,2.426-1.819,3.642-1.944,1.819-1.944,1.819l-6.551,15.171s13.766,3.017,17.347,10.615l17.386-31.854s9.71-23.812,10.012-25.329-2.125-6.978-2.125-6.978L619.67,210.059,601.927,185.04S587.816,155.009,566.129,177.912Z" transform="translate(-323.322 -113.321)" fill="#292775"/>
      <g id="Group_3123" data-name="Group 3123" transform="translate(150.296 61.121)" opacity="0.1">
        <path id="Path_5844" data-name="Path 5844" d="M358.213,192.164a21.627,21.627,0,0,0-1.207-5.517,23.391,23.391,0,0,1-1.681-5.254v-.164a7.026,7.026,0,0,0,0,1.379,23.6,23.6,0,0,0,1.681,5.254,21.592,21.592,0,0,1,1.207,5.512c.06.707.086,1.422.095,2.155C358.321,194.388,358.308,193.272,358.213,192.164Z" transform="translate(-355.291 -181.23)"/>
        <path id="Path_5845" data-name="Path 5845" d="M376.945,235.244c-.927,2.034-3.741,2.357-5.9,1.758a12.093,12.093,0,0,1-8.042-7.516,17.8,17.8,0,0,1-.862-5.736,19.722,19.722,0,0,0,.862,6.948,12.1,12.1,0,0,0,8.042,7.521c2.155.595,4.969.276,5.9-1.763a6.576,6.576,0,0,0,.336-2.844A4.444,4.444,0,0,1,376.945,235.244Z" transform="translate(-359.189 -205.424)"/>
        <path id="Path_5846" data-name="Path 5846" d="M474.551,182.768c-.185,1.379-.733,2.931-2.047,3.392a3.224,3.224,0,0,1-2.3-.215c-2.155-.94-4.073-3.207-6.374-2.659-1.879.431-2.78,2.556-3.276,4.426a10.9,10.9,0,0,0-.461,3.65,14.223,14.223,0,0,1,.461-2.439c.5-1.866,1.4-3.978,3.276-4.426,2.3-.543,4.2,1.724,6.374,2.659a3.207,3.207,0,0,0,2.3.22c1.315-.461,1.862-2.013,2.047-3.4a15.663,15.663,0,0,0,.129-2.659C474.659,181.8,474.616,182.29,474.551,182.768Z" transform="translate(-414.92 -181.281)"/>
        <path id="Path_5847" data-name="Path 5847" d="M432.031,220.686c-1.293.935-3.047-.06-4.465-.806-1.517-.8-3.448-1.293-4.892-.375-.5.31-.9.759-1.379,1.09a4.96,4.96,0,0,1-3.327.69c-2.745-.28-3.771-2.017-5.861-3.362-1.534-.987-4.741-1.409-5.655.616a3.677,3.677,0,0,0-.177,1.866,2.429,2.429,0,0,1,.177-.651c.918-2.03,4.12-1.608,5.655-.616,2.09,1.345,3.116,3.082,5.861,3.362a4.986,4.986,0,0,0,3.327-.694c.483-.328.884-.776,1.379-1.086,1.457-.905,3.375-.431,4.892.375,1.418.741,3.164,1.724,4.465.8a2.389,2.389,0,0,0,.772-2.461A1.992,1.992,0,0,1,432.031,220.686Z" transform="translate(-384.274 -201.641)"/>
        <path id="Path_5848" data-name="Path 5848" d="M401.058,229.455c-.591,1.353-2.4,1.724-3.241,2.944a5.22,5.22,0,0,0-.552,3.168,3.585,3.585,0,0,1,.552-1.952c.836-1.22,2.651-1.595,3.241-2.948a3.749,3.749,0,0,0,.164-1.836A2.43,2.43,0,0,1,401.058,229.455Z" transform="translate(-379.169 -208.315)"/>
      </g>
    </g>
  </g>
</svg>
