<svg xmlns="http://www.w3.org/2000/svg" width="590.835" height="400" viewBox="0 0 590.835 400">
  <g id="Group_3153" data-name="Group 3153" transform="translate(-141.5 -97)">
    <circle id="Ellipse_127" data-name="Ellipse 127" cx="200" cy="200" r="200" transform="translate(226 97)" fill="#d5dbe1" opacity="0.6"/>
    <g id="Group_3150" data-name="Group 3150" transform="translate(-8.553)">
      <g id="Group_3146" data-name="Group 3146" transform="translate(638.83 177.797)">
        <path id="Path_5955" data-name="Path 5955" d="M208.927,283.848c0-28.182,22.846-95.057,51.028-95.057s51.028,66.875,51.028,95.057a51.028,51.028,0,1,1-102.057,0Z" transform="translate(-208.927 -188.791)" fill="#ff8000"/>
        <path id="Path_5956" data-name="Path 5956" d="M329.961,466.693a.42.42,0,0,1-.42-.42V290.345a.42.42,0,0,1,.839,0V466.273A.42.42,0,0,1,329.961,466.693Z" transform="translate(-278.932 -247.49)" fill="#b6b5c4" opacity="0.8"/>
        <path id="Path_5957" data-name="Path 5957" d="M302.023,342.773a.418.418,0,0,1-.3-.123l-20.2-20.2a.42.42,0,1,1,.593-.593l20.2,20.2a.42.42,0,0,1-.3.716Z" transform="translate(-250.995 -265.954)" fill="#b6b5c4" opacity="0.8"/>
        <path id="Path_5958" data-name="Path 5958" d="M329.961,407.253a.42.42,0,0,1-.3-.716l33.823-33.824a.42.42,0,0,1,.593.593L330.257,407.13A.419.419,0,0,1,329.961,407.253Z" transform="translate(-278.932 -295.47)" fill="#b6b5c4" opacity="0.8"/>
      </g>
      <g id="Group_3145" data-name="Group 3145" transform="translate(591.553 239.484)">
        <path id="Path_5959" data-name="Path 5959" d="M440.656,402.6c0-20.251,16.428-68.306,36.693-68.306s36.693,48.055,36.693,68.306a36.693,36.693,0,1,1-73.385,0Z" transform="translate(-440.656 -334.291)" fill="#b6b5c4"/>
        <path id="Path_5960" data-name="Path 5960" d="M527.687,533.985a.3.3,0,0,1-.3-.3V407.265a.3.3,0,1,1,.6,0V533.683a.3.3,0,0,1-.3.3Z" transform="translate(-490.994 -376.47)" fill="#3f3d56"/>
        <path id="Path_5961" data-name="Path 5961" d="M507.6,444.938a.3.3,0,0,1-.213-.088l-14.523-14.513a.3.3,0,1,1,.427-.426l14.523,14.513a.3.3,0,0,1-.213.515Z" transform="translate(-470.905 -389.738)" fill="#3f3d56"/>
        <path id="Path_5962" data-name="Path 5962" d="M527.687,491.273a.3.3,0,0,1-.213-.515l24.321-24.3a.3.3,0,0,1,.427.426l-24.321,24.3A.3.3,0,0,1,527.687,491.273Z" transform="translate(-490.994 -410.947)" fill="#3f3d56"/>
      </g>
      <line id="Line_133" data-name="Line 133" x2="134" transform="translate(600.053 396.5)" fill="none" stroke="#3f3d56" stroke-width="0.65" opacity="0.2"/>
    </g>
    <g id="Group_3151" data-name="Group 3151" transform="translate(10 -0.284)">
      <g id="Group_3151-2" data-name="Group 3151" transform="translate(171.553 201.284)">
        <path id="Path_5959-2" data-name="Path 5959" d="M440.656,419.163c0-25.162,20.412-84.872,45.591-84.872S531.839,394,531.839,419.163a45.591,45.591,0,1,1-91.183,0Z" transform="translate(-440.656 -334.291)" fill="#b6b5c4"/>
        <path id="Path_5960-2" data-name="Path 5960" d="M527.76,564.791a.375.375,0,0,1-.375-.375V407.338a.375.375,0,1,1,.75,0V564.416A.375.375,0,0,1,527.76,564.791Z" transform="translate(-482.169 -369.075)" fill="#3f3d56"/>
        <path id="Path_5961-2" data-name="Path 5961" d="M511.193,448.6a.374.374,0,0,1-.265-.11l-18.045-18.033a.375.375,0,1,1,.53-.53l18.045,18.033a.375.375,0,0,1-.265.64Z" transform="translate(-465.602 -380.017)" fill="#3f3d56"/>
        <path id="Path_5962-2" data-name="Path 5962" d="M527.76,497.313a.375.375,0,0,1-.265-.639l30.22-30.2a.375.375,0,0,1,.53.53l-30.22,30.2A.374.374,0,0,1,527.76,497.313Z" transform="translate(-482.168 -397.508)" fill="#3f3d56"/>
      </g>
      <g id="Group_3152" data-name="Group 3152" transform="translate(131.553 270.625)">
        <path id="Path_5959-3" data-name="Path 5959" d="M440.656,389.093c0-16.247,13.18-54.8,29.439-54.8s29.439,38.554,29.439,54.8a29.439,29.439,0,1,1-58.877,0Z" transform="translate(-440.656 -334.291)" fill="#ff8000"/>
        <path id="Path_5960-3" data-name="Path 5960" d="M527.627,508.873a.242.242,0,0,1-.242-.242V407.205a.242.242,0,1,1,.484,0V508.631A.242.242,0,0,1,527.627,508.873Z" transform="translate(-498.189 -382.499)" fill="#b6b5c4" opacity="0.8"/>
        <path id="Path_5961-3" data-name="Path 5961" d="M504.667,441.95a.241.241,0,0,1-.171-.071l-11.652-11.644a.242.242,0,1,1,.342-.342l11.652,11.644a.242.242,0,0,1-.171.413Z" transform="translate(-475.228 -397.663)" fill="#b6b5c4" opacity="0.8"/>
        <path id="Path_5962-3" data-name="Path 5962" d="M527.627,486.348a.242.242,0,0,1-.171-.413l19.513-19.5a.242.242,0,0,1,.342.342l-19.513,19.5A.241.241,0,0,1,527.627,486.348Z" transform="translate(-498.189 -421.904)" fill="#b6b5c4" opacity="0.8"/>
      </g>
      <line id="Line_134" data-name="Line 134" x2="134" transform="translate(131.5 396.784)" fill="none" stroke="#3f3d56" stroke-width="0.65" opacity="0.2"/>
    </g>
    <g id="Group_3152-2" data-name="Group 3152" transform="translate(219.052 234.688)">
      <path id="Path_5877" data-name="Path 5877" d="M369,458.867A2.813,2.813,0,0,1,367.083,455l-7.334-6.791,5.044-1.239,6.191,6.639A2.828,2.828,0,0,1,369,458.867Z" transform="translate(-261.607 -339.242)" fill="#ffb6b6"/>
      <path id="Path_5878" data-name="Path 5878" d="M325.213,401.508l-7.687-22.439a7.1,7.1,0,0,1,4.41-9.007h0a7.091,7.091,0,0,1,9.314,5.674l3.073,20.833,12.853,13.163-3.381,4.817Z" transform="translate(-240.2 -300.406)" fill="#292775"/>
      <path id="Path_5879" data-name="Path 5879" d="M140.191,394.585h5.488l2.611-21.167h-8.1Z" transform="translate(-67.868 -187.622)" fill="#ffb6b6"/>
      <path id="Path_5880" data-name="Path 5880" d="M303.018,640.448l8.675-.518v3.717l8.247,5.7a2.322,2.322,0,0,1-1.319,4.232h-16.7Z" transform="translate(-232.553 -436.192)" fill="#2f2e41"/>
      <path id="Path_5881" data-name="Path 5881" d="M308.848,446.2s-1.711-1.792-4.99,2.442c-3.029,3.834-2.879,4.583-2.488,9.454.318,3.483-2.8,20.988.308,23.963l2.508,56.065s7.608,2.135,7.966-1.447L331.8,465.39l-2.347-18.228Z" transform="translate(-231.731 -338.666)" fill="#c2c7cc"/>
      <path id="Path_5882" data-name="Path 5882" d="M212.553,392.223l4.809-2.644-7.91-19.806-7.1,3.9Z" transform="translate(-99.102 -185.79)" fill="#ffb6b6"/>
      <path id="Path_5883" data-name="Path 5883" d="M384.623,637.7l7.352-4.633,1.791,3.257,9.971,1.018a2.322,2.322,0,0,1,.883,4.344l-9.05,4.976-2.169,1.193-3.412,1.876Z" transform="translate(-274.105 -432.743)" fill="#2f2e41"/>
      <path id="Path_5884" data-name="Path 5884" d="M301.477,456.422a129.924,129.924,0,0,1-.933,14.322,19.35,19.35,0,0,0,2.928,13.846,15.752,15.752,0,0,0,9,6.71l29.208,47.921s7.7-1.794,6.283-5.106l-17.133-71.935L319.99,447.337Z" transform="translate(-231.726 -339.425)" fill="#c2c7cc"/>
      <path id="Path_5885" data-name="Path 5885" d="M301.334,385.507l-.869,27.988,28.984-8.021.51-1.384,1.243-4.713s-2.874-6.78-2.288-22.568l-7.322-19.52-11.6-.237-.065.065a31.384,31.384,0,0,0-8.6,28.39Z" transform="translate(-231.82 -294.062)" fill="#292775"/>
      <path id="Path_5886" data-name="Path 5886" d="M405.891,429.161a2.813,2.813,0,0,1-3.611-2.358l-9.765-2.135,3.72-3.625,8.7,2.583a2.828,2.828,0,0,1,.954,5.535Z" transform="translate(-278.07 -326.213)" fill="#ffb6b6"/>
      <path id="Path_5887" data-name="Path 5887" d="M341.078,399.888l-18-15.443a7.1,7.1,0,0,1-.765-10h0a7.091,7.091,0,0,1,10.9.168l13.212,16.4,17.753,4.829-.472,5.866Z" transform="translate(-241.939 -301.557)" fill="#292775"/>
      <path id="Path_5888" data-name="Path 5888" d="M330.285,310.582c0,6.587-5.2,7.914-11.775,8.348a12.511,12.511,0,1,1,11.248-15.765A62.766,62.766,0,0,1,330.285,310.582Z" transform="translate(-232.73 -262.348)" fill="#ffb8b8"/>
      <path id="Path_5889" data-name="Path 5889" d="M319.543,281.6c-1.014-.03-.666-1.941-1.483-2.551l-.012.055a1.991,1.991,0,0,1-3.805.162,3.026,3.026,0,0,0-1.922-2.016,4.963,4.963,0,0,1-2.99,4.074,12.377,12.377,0,0,1-5.194.919,22.924,22.924,0,0,0-5.288.4,6.027,6.027,0,0,0-4.124,3.066,3.541,3.541,0,0,0,1.4,4.585,3.161,3.161,0,0,0-2.729,2.2,8.735,8.735,0,0,0-.27,3.691c.35,4.575,1.2,9.5,4.533,12.656a13.928,13.928,0,0,0,9.67,3.359c3.5-.014,2.882-.335,6.263-1.228,0,0,3.215-9.215,2.405-10.122a4.358,4.358,0,0,1-1.335-3.273c.147-1.206,1.443-2.287,2.568-1.828-.189-.484-.332-.576-.421-.551a4.285,4.285,0,0,0,.149-.42,4.785,4.785,0,0,1,2.988-3.169A3.71,3.71,0,0,1,324,292.839C327.7,289.367,325.4,281.775,319.543,281.6Z" transform="translate(-228.087 -253.966)" fill="#2f2e41"/>
      <path id="Path_5890" data-name="Path 5890" d="M775.044,458.867A2.813,2.813,0,0,0,776.961,455l7.334-6.791-5.044-1.239-6.191,6.639a2.828,2.828,0,0,0,1.984,5.254Z" transform="translate(-468.506 -339.242)" fill="#9e616a"/>
      <path id="Path_5891" data-name="Path 5891" d="M782.807,414.55l-3.381-4.817L792.28,396.57l3.073-20.833a7.091,7.091,0,0,1,9.314-5.674h0a7.1,7.1,0,0,1,4.41,9.007l-7.687,22.439Z" transform="translate(-472.471 -300.406)" fill="#292775"/>
      <path id="Path_5892" data-name="Path 5892" d="M673.229,394.585h-5.488l-2.611-21.167h8.1Z" transform="translate(-331.621 -187.622)" fill="#9e616a"/>
      <path id="Path_5893" data-name="Path 5893" d="M835.8,653.575H819.1a2.322,2.322,0,0,1-1.319-4.232l8.247-5.7V639.93l8.675.518Z" transform="translate(-491.24 -436.192)" fill="#2f2e41"/>
      <path id="Path_5894" data-name="Path 5894" d="M816.263,446.584a129.888,129.888,0,0,0,7.717,12.1c3.029,3.834,2.639,5.87,2.248,10.741-.318,3.483.314,10.042-2.8,13.017l-2.508,56.065s-7.608,2.135-7.966-1.447l-19.643-71.29,2.347-18.227Z" transform="translate(-479.45 -339.046)" fill="#c2c7cc"/>
      <path id="Path_5895" data-name="Path 5895" d="M593.891,392.223l-4.809-2.644,7.911-19.806,7.1,3.9Z" transform="translate(-293.411 -185.79)" fill="#9e616a"/>
      <path id="Path_5896" data-name="Path 5896" d="M745.531,649.729l-3.412-1.876-2.169-1.193-9.05-4.976a2.322,2.322,0,0,1,.883-4.344l9.971-1.018,1.791-3.257L750.9,637.7Z" transform="translate(-447.485 -432.743)" fill="#2f2e41"/>
      <path id="Path_5897" data-name="Path 5897" d="M807.125,456.422a129.922,129.922,0,0,0,.933,14.322,19.35,19.35,0,0,1-2.928,13.846,15.753,15.753,0,0,1-9,6.71L766.923,539.22s-7.7-1.794-6.283-5.106l17.133-71.935,10.838-14.842Z" transform="translate(-462.945 -339.424)" fill="#c2c7cc"/>
      <path id="Path_5898" data-name="Path 5898" d="M813.335,357.118l-.065-.065-11.6.237-7.321,19.52c.586,15.788-2.288,22.568-2.288,22.568l1.243,4.713-3.842,23.336,36.937-7.473-4.47-34.446a31.384,31.384,0,0,0-8.6-28.39Z" transform="translate(-477.515 -294.062)" fill="#292775"/>
      <path id="Path_5899" data-name="Path 5899" d="M735.487,429.161A2.813,2.813,0,0,0,739.1,426.8l9.765-2.135-3.72-3.625-8.7,2.583a2.828,2.828,0,0,0-.954,5.535Z" transform="translate(-449.378 -326.213)" fill="#9e616a"/>
      <path id="Path_5900" data-name="Path 5900" d="M749.22,401.707l-.472-5.866,17.753-4.829,13.211-16.4a7.092,7.092,0,0,1,10.9-.168h0a7.1,7.1,0,0,1-.765,10l-18,15.443Z" transform="translate(-457.057 -301.557)" fill="#292775"/>
      <path id="Path_5901" data-name="Path 5901" d="M801.654,303.165A12.511,12.511,0,1,1,812.9,318.93c-6.573-.434-12.348-1.205-12.352-7.792A73.436,73.436,0,0,1,801.654,303.165Z" transform="translate(-483.296 -262.348)" fill="#9e616a"/>
      <path id="Path_5902" data-name="Path 5902" d="M804.309,285.992c1.014-.03,13.633.617,15.406.644a22.926,22.926,0,0,1,5.288.4,6.027,6.027,0,0,1,4.124,3.066c.734,1.613.9,5.618,1.334,6.785a8.738,8.738,0,0,1,.27,3.691c-.35,4.575-1.2,9.5-4.533,12.656a13.927,13.927,0,0,1-9.67,3.359c-3.5-.014-2.882-.335-6.263-1.228,0,0-3.215-9.215-2.405-10.122a4.358,4.358,0,0,0,1.335-3.273c-.146-1.206-1.443-2.287-2.568-1.828.189-.484.332-.576.421-.551a4.267,4.267,0,0,1-.149-.42A4.784,4.784,0,0,0,803.91,296a3.711,3.711,0,0,0-4.056,1.227C796.152,293.758,798.449,286.166,804.309,285.992Z" transform="translate(-481.834 -258.357)" fill="#2f2e41"/>
      <path id="Path_5903" data-name="Path 5903" d="M416.932,432.185c16.211-2.124,34.309-4.29,48.5,5.709,5.714,4.027,10.185,9.852,11.549,16.8.862,4.393.588,8.906.644,13.354a36.088,36.088,0,0,0,1.751,11.736,33.088,33.088,0,0,0,12.224,15.7,36.7,36.7,0,0,0,20.322,6.578c16.11.4,30.8-8.333,41.055-20.249,11.014-12.8,17.333-28.668,22.846-44.418q1.09-3.115,2.159-6.238c.313-.91-1.128-1.3-1.439-.4-5.51,16.011-11.16,32.349-21.432,46.033-9.421,12.55-23.116,22.527-39.176,23.68a36.324,36.324,0,0,1-21.047-4.644,32.437,32.437,0,0,1-13.435-14.817,30.547,30.547,0,0,1-2.292-11.149c-.162-4.429.163-8.882-.383-13.293a27.9,27.9,0,0,0-9.857-17.846,40.746,40.746,0,0,0-18.967-8.827c-8.7-1.638-17.6-1.069-26.329-.05-2.231.26-4.459.551-6.687.842-.939.123-.951,1.617,0,1.493Z" transform="translate(-289.982 -330.145)" fill="#3f3d56"/>
      <path id="Path_5904" data-name="Path 5904" d="M636.491,297.025a17.02,17.02,0,0,1-11.1,4.931,21.711,21.711,0,0,1-23.375-21.38c-.045-3.334.682-6.652.517-9.986-.408-8.234-6.19-15.718-5.573-23.942l3.961,1.229-7.971-2.508a10.379,10.379,0,0,1-2.6-1.09,6.135,6.135,0,0,1-1.886-7.424,8.924,8.924,0,0,1,6.423-4.811,14.543,14.543,0,0,1,5.6.035,22.27,22.27,0,0,1,2.617.632,17.052,17.052,0,0,1,21.141,9.389,16.993,16.993,0,0,1,1.428,5.916c.3,5.553-2.07,11.3-1.732,16.668a12.617,12.617,0,0,0,.97,4.264c2.936,6.831,12.165,9.533,14.479,16.6A11.834,11.834,0,0,1,636.491,297.025Z" transform="translate(-376.262 -231.124)" fill="#2f2e41"/>
      <path id="Path_5905" data-name="Path 5905" d="M501.126,332.183l-3.81,3.949L480.27,323.314l5.624-5.828Z" transform="translate(-238.739 -159.519)" fill="#9e616a"/>
      <path id="Path_5906" data-name="Path 5906" d="M692.277,579.339l-2.7,2.8-1.719,1.781-7.171,7.433a2.322,2.322,0,0,1-3.962-1.989l1.627-9.89-2.675-2.581,6.4-5.883Z" transform="translate(-420.342 -401.564)" fill="#2f2e41"/>
      <path id="Path_5907" data-name="Path 5907" d="M431.907,342.9l-4.94,2.39L415.4,327.375l7.291-3.527Z" transform="translate(-206.145 -162.715)" fill="#9e616a"/>
      <path id="Path_5908" data-name="Path 5908" d="M612.158,597.414l-3.505,1.7-2.228,1.078-9.3,4.5a2.322,2.322,0,0,1-3.03-3.235l4.944-8.719-1.619-3.346,8.035-3.311Z" transform="translate(-379.202 -409.132)" fill="#2f2e41"/>
      <path id="Path_5909" data-name="Path 5909" d="M609.263,393.584a129.937,129.937,0,0,0,7.717,12.1c3.029,3.834,2.639,5.87,2.248,10.741-.318,3.483.314,10.042-2.8,13.017l-1.359,30.384,16.763,19.212s-6.777,9.632-7.136,6.049l-24.817-23.076L586.316,412.77l2.347-18.227Z" transform="translate(-375.444 -312.417)" fill="#b6b5c4"/>
      <path id="Path_5910" data-name="Path 5910" d="M605.842,403.422a129.957,129.957,0,0,0,.933,14.322,19.349,19.349,0,0,1-2.928,13.846,15.753,15.753,0,0,1-9,6.71L580.63,461.628l7.9,22.6s-11.353,6.54-9.941,3.228l-13.742-29.386,11.645-48.892,10.838-14.842Z" transform="translate(-364.656 -312.795)" fill="#b6b5c4"/>
      <path id="Path_5911" data-name="Path 5911" d="M608.96,304.118l-.065-.065-11.6.237-7.322,19.52c.586,15.788-2.288,22.568-2.288,22.568l1.243,4.713.51,1.384,32.585,14.479-4.47-34.446a31.383,31.383,0,0,0-8.6-28.39Z" transform="translate(-376.134 -267.432)" fill="#292775"/>
      <path id="Path_5912" data-name="Path 5912" d="M528.487,376.161A2.813,2.813,0,0,0,532.1,373.8l9.765-2.135-3.72-3.625-8.7,2.583a2.828,2.828,0,0,0-.954,5.535Z" transform="translate(-345.372 -299.584)" fill="#9e616a"/>
      <path id="Path_5913" data-name="Path 5913" d="M542.22,348.707l-.472-5.866,17.753-4.829,13.211-16.4a7.092,7.092,0,0,1,10.9-.168h0a7.1,7.1,0,0,1-.765,10l-18,15.443Z" transform="translate(-353.051 -274.928)" fill="#292775"/>
      <path id="Path_5914" data-name="Path 5914" d="M674.368,418.288a2.813,2.813,0,0,0-1.983-3.83l-1.143-9.93-3.981,3.336,1.7,8.918a2.828,2.828,0,0,0,5.411,1.505Z" transform="translate(-416.115 -317.915)" fill="#9e616a"/>
      <path id="Path_5915" data-name="Path 5915" d="M650.915,373.872l-5.884-.12-3.02-18.148-14.988-14.793a7.091,7.091,0,0,1,.929-10.866h0a7.1,7.1,0,0,1,9.872,1.767l13.556,19.464Z" transform="translate(-394.837 -279.804)" fill="#292775"/>
      <path id="Path_5916" data-name="Path 5916" d="M594.989,250.165a12.511,12.511,0,1,1,11.249,15.765c-6.573-.434-11.51,2.966-11.249-5.27C594.727,253.408,594.7,251.237,594.989,250.165Z" transform="translate(-379.625 -235.718)" fill="#9e616a"/>
      <path id="Path_5917" data-name="Path 5917" d="M578.16,392.843a13.558,13.558,0,0,1-11.1-5.842,4.3,4.3,0,0,1-.882-3.589,1.884,1.884,0,0,1,2.025-1.427,4.644,4.644,0,0,1,2.487,1.578,27.214,27.214,0,0,1,2.447,3.135c1.168,1.651,3.442,4.323,1.684,6.3-1.479,1.663-3.966,1.8-5.956,2.4-2.151.648-4.353,2.1-4.547,4.553-.188,2.384,2.1,3.993,4.215,4.338a7.8,7.8,0,0,0,6.882-2.485,10.562,10.562,0,0,0,2.573-6.978.747.747,0,0,0-1.493-.026,8.854,8.854,0,0,1-2.529,6.349,6.04,6.04,0,0,1-6.3,1.358,2.648,2.648,0,0,1-1.851-2.6,3.588,3.588,0,0,1,2.01-2.5c2.151-1.144,4.735-1.043,6.833-2.363a4.368,4.368,0,0,0,1.89-5.6,17.956,17.956,0,0,0-2.12-3.487,33.719,33.719,0,0,0-2.5-3.248c-1.348-1.482-3.462-2.919-5.493-1.861-2.314,1.206-2.16,4.23-1.089,6.208,2.442,4.511,7.752,7.262,12.786,7.282a.747.747,0,0,0,.026-1.493Z" transform="translate(-364.385 -305.833)" fill="#2f2e41"/>
      <path id="Path_5918" data-name="Path 5918" d="M629.52,264.012l-19.833-4.055c-.721-3.806,5.941-8.936,7.672-15.19-3.095-.373-7.239-1-10.827-1.806s-6.622-1.816-7.5-2.955a11.95,11.95,0,0,1,14.1-9.309l2.433.5c.08.015.159.035.239.055a11.882,11.882,0,0,1,7.289,5,28.267,28.267,0,0,1,6.732,5.18,16.992,16.992,0,0,1,1.428,5.916C631.55,252.9,629.182,258.649,629.52,264.012Z" transform="translate(-381.835 -230.452)" fill="#2f2e41"/>
    </g>
    <path id="Path_6115" data-name="Path 6115" d="M665.906,359.8l4.436-3.548c-3.446-.38-4.862,1.5-5.442,2.987a7.556,7.556,0,0,0-5.623.347l8.876,3.222A6.716,6.716,0,0,0,665.906,359.8Z" transform="translate(-390.842 -152.817)" fill="#3f3d56"/>
    <path id="Path_6116" data-name="Path 6116" d="M665.906,359.8l4.436-3.548c-3.446-.38-4.862,1.5-5.442,2.987a7.556,7.556,0,0,0-5.623.347l8.876,3.222A6.716,6.716,0,0,0,665.906,359.8Z" transform="translate(-493.842 -114.817)" fill="#3f3d56"/>
    <path id="Path_6117" data-name="Path 6117" d="M665.906,359.8l4.436-3.548c-3.446-.38-4.862,1.5-5.442,2.987a7.556,7.556,0,0,0-5.623.347l8.876,3.222A6.716,6.716,0,0,0,665.906,359.8Z" transform="translate(-32.842 -189.861)" fill="#3f3d56"/>
  </g>
</svg>
